<svg width="444" height="200" viewBox="0 0 444 200" fill="none" xmlns="http://www.w3.org/2000/svg">
<path d="M86.9 69.8L65.5 111.8V141H51.7V111.8L30.3 69.8H45.4L58.7 98.5L71.8 69.8H86.9ZM131.627 103.3L156.127 141H139.927L123.127 114.1L113.427 127.1V141H99.5266V69.8H113.427V109.6L140.327 69.8H154.327L131.627 103.3ZM218.03 120C218.03 126.733 215.564 132.033 210.63 135.9C205.697 139.7 199.397 141.6 191.73 141.6C185.664 141.6 179.797 139.933 174.13 136.6C171.33 134.867 169.03 132.433 167.23 129.3C165.43 126.1 164.53 122.467 164.53 118.4L177.13 117.8C177.13 121.4 178.664 124.2 181.73 126.2C184.797 128.2 188.197 129.2 191.93 129.2C200.264 129.2 204.43 126.267 204.43 120.4C204.43 115.6 201.597 112.767 195.93 111.9L184.33 110.7C178.53 109.833 173.93 107.767 170.53 104.5C167.13 101.233 165.43 96.5333 165.43 90.4C165.43 84.2667 167.864 79.2 172.73 75.2C177.597 71.2 183.73 69.2 191.13 69.2C198.597 69.2 204.597 71.1 209.13 74.9C213.664 78.6333 215.93 83.4667 215.93 89.4L203.53 90C202.397 84.2 198.497 81.3 191.83 81.3C187.764 81.3 184.564 82.1667 182.23 83.9C179.964 85.6333 178.83 87.7 178.83 90.1C178.83 92.4333 179.664 94.3 181.33 95.7C182.997 97.0333 185.064 97.8667 187.53 98.2L198.93 99.4C211.664 101.133 218.03 108 218.03 120ZM285.313 102.1V107.5C285.313 119.433 283.046 128.1 278.513 133.5C274.046 138.9 266.846 141.6 256.913 141.6C246.979 141.6 239.779 138.9 235.313 133.5C230.913 128.1 228.713 119.333 228.713 107.2V102C228.713 90.9333 230.946 82.7 235.413 77.3C239.946 71.9 247.079 69.2 256.813 69.2C266.613 69.2 273.813 71.9333 278.413 77.4C283.013 82.8667 285.313 91.1 285.313 102.1ZM271.413 107.2V103.5C271.413 97.1 270.613 92 269.013 88.2C267.146 83.8 263.146 81.6 257.013 81.6C250.813 81.6 246.779 83.8 244.913 88.2C243.379 91.8 242.613 96.9 242.613 103.5V107.2C242.613 115.8 243.813 121.6 246.213 124.6C247.146 125.867 248.513 126.967 250.313 127.9C252.179 128.767 254.379 129.2 256.913 129.2C259.513 129.2 261.713 128.767 263.513 127.9C265.313 127.033 266.713 125.967 267.713 124.7C268.713 123.433 269.479 121.767 270.013 119.7C270.946 116.433 271.413 112.267 271.413 107.2ZM348.368 82.2H323.268C320.335 82.2 318.268 82.7667 317.068 83.9C315.935 85.0333 315.368 87 315.368 89.8V99.7H341.468L340.468 112.1H315.368V141H301.468V84.3C301.468 79.0333 302.601 75.3 304.868 73.1C307.201 70.9 311.168 69.8 316.768 69.8H348.368V82.2ZM410.752 82.2H391.652V141H377.752V82.2H358.752V69.8H410.752V82.2Z" fill="white"/>
</svg>
