<svg width="456" height="200" viewBox="0 0 456 200" fill="none" xmlns="http://www.w3.org/2000/svg">
<g clip-path="url(#clip0)">
<path d="M31.5625 76.9688H44.375L66.0156 132.203L87.5781 76.9688H100.391L69.2188 155.406C66.3542 162.646 63.3333 167.776 60.1562 170.797C57.0312 173.87 53.125 175.406 48.4375 175.406C47.8125 175.406 47.2135 175.38 46.6406 175.328C46.1198 175.276 45.599 175.198 45.0781 175.094C44.5573 174.99 44.0625 174.833 43.5938 174.625V165.016C47.2396 165.016 49.9479 164.208 51.7188 162.594C53.5417 160.979 55.1042 158.583 56.4062 155.406L59.6094 147.438L31.5625 76.9688ZM131.634 149H119.603V48.2188H131.634V149ZM162.025 149L131.634 111.422L158.822 76.9688H172.416L145.228 110.562L176.4 149H162.025ZM238.034 128.219C238.034 131.188 237.435 133.974 236.238 136.578C235.092 139.182 233.451 141.474 231.316 143.453C229.18 145.432 226.602 146.995 223.581 148.141C220.56 149.234 217.123 149.781 213.269 149.781C205.248 149.781 198.946 147.646 194.363 143.375C189.779 139.104 187.279 133.792 186.863 127.438H198.894C199.31 130.615 200.691 133.271 203.034 135.406C205.378 137.542 208.79 138.609 213.269 138.609C217.331 138.609 220.482 137.568 222.722 135.484C224.961 133.401 226.081 130.979 226.081 128.219C226.081 125.562 225.144 123.557 223.269 122.203C221.394 120.849 219.076 119.781 216.316 119C213.555 118.219 210.534 117.49 207.253 116.812C204.024 116.083 201.003 115.042 198.191 113.688C195.43 112.281 193.113 110.302 191.238 107.75C189.363 105.146 188.425 101.552 188.425 96.9688C188.425 94.2083 188.998 91.5781 190.144 89.0781C191.342 86.5781 192.982 84.3646 195.066 82.4375C197.149 80.5104 199.649 79 202.566 77.9062C205.534 76.7604 208.842 76.1875 212.488 76.1875C220.144 76.1875 226.081 78.1927 230.3 82.2031C234.519 86.2135 236.836 91.4219 237.253 97.8281H225.222C224.805 94.651 223.581 92.125 221.55 90.25C219.519 88.375 216.498 87.4375 212.488 87.4375C208.842 87.4375 205.925 88.4271 203.738 90.4062C201.55 92.3333 200.456 94.5208 200.456 96.9688C200.456 99.625 201.394 101.63 203.269 102.984C205.144 104.339 207.461 105.432 210.222 106.266C212.982 107.047 215.977 107.776 219.206 108.453C222.488 109.13 225.508 110.172 228.269 111.578C231.081 112.932 233.399 114.938 235.222 117.594C237.097 120.198 238.034 123.74 238.034 128.219ZM267.559 112.984C267.559 116.839 268.132 120.354 269.278 123.531C270.476 126.656 272.091 129.339 274.122 131.578C276.153 133.818 278.471 135.562 281.075 136.812C283.731 138.01 286.44 138.609 289.2 138.609C291.96 138.609 294.643 138.01 297.247 136.812C299.851 135.562 302.143 133.818 304.122 131.578C306.101 129.339 307.69 126.656 308.887 123.531C310.137 120.354 310.762 116.839 310.762 112.984C310.762 109.13 310.137 105.641 308.887 102.516C307.69 99.3906 306.101 96.7083 304.122 94.4688C302.143 92.2292 299.851 90.5104 297.247 89.3125C294.643 88.0625 291.96 87.4375 289.2 87.4375C286.44 87.4375 283.731 88.0625 281.075 89.3125C278.471 90.5104 276.153 92.2292 274.122 94.4688C272.091 96.7083 270.476 99.3906 269.278 102.516C268.132 105.641 267.559 109.13 267.559 112.984ZM322.794 112.984C322.794 118.401 321.908 123.375 320.137 127.906C318.367 132.385 315.971 136.266 312.95 139.547C309.929 142.776 306.361 145.302 302.247 147.125C298.132 148.896 293.783 149.781 289.2 149.781C284.617 149.781 280.268 148.896 276.153 147.125C272.039 145.302 268.445 142.776 265.372 139.547C262.351 136.266 259.955 132.385 258.184 127.906C256.466 123.427 255.606 118.453 255.606 112.984C255.606 107.568 256.466 102.62 258.184 98.1406C259.955 93.6615 262.351 89.8073 265.372 86.5781C268.445 83.2969 272.039 80.7448 276.153 78.9219C280.268 77.099 284.617 76.1875 289.2 76.1875C293.783 76.1875 298.132 77.099 302.247 78.9219C306.361 80.7448 309.929 83.2969 312.95 86.5781C315.971 89.8073 318.367 93.6615 320.137 98.1406C321.908 102.62 322.794 107.568 322.794 112.984ZM391.616 57.8281H402.006V76.9688H418.022V88.2188H402.006V125.797C402.006 129.859 403.1 133.01 405.288 135.25C407.475 137.49 410.392 138.609 414.038 138.609C415.079 138.609 416.043 138.505 416.928 138.297C417.345 138.193 417.709 138.036 418.022 137.828V148.219C417.501 148.531 416.902 148.792 416.225 149C414.819 149.521 413.022 149.781 410.834 149.781C408.074 149.781 405.418 149.208 402.866 148.062C400.366 146.865 398.152 145.224 396.225 143.141C394.35 141.057 392.84 138.557 391.694 135.641C390.6 132.724 390.053 129.443 390.053 125.797V88.2188H359.584V149H347.631V88.2188H338.803V76.9688H347.631V71.4219C347.631 67.776 348.178 64.4948 349.272 61.5781C350.418 58.6094 351.954 56.1094 353.881 54.0781C355.808 51.9948 358.022 50.3802 360.522 49.2344C363.022 48.0365 365.652 47.4375 368.413 47.4375C369.61 47.4375 370.652 47.5156 371.538 47.6719C372.423 47.8281 373.204 48.0104 373.881 48.2188C374.506 48.5312 375.079 48.7917 375.6 49V59.3906C375.288 59.2865 374.923 59.1823 374.506 59.0781C374.194 58.974 373.751 58.8698 373.178 58.7656C372.657 58.6615 372.136 58.6094 371.616 58.6094C367.97 58.6094 365.053 59.7292 362.866 61.9688C360.678 64.2083 359.584 67.3594 359.584 71.4219V76.9688H382.788C388.673 76.9688 391.616 74.0521 391.616 68.2188V57.8281Z" fill="white"/>
</g>
<defs>
<clipPath id="clip0">
<rect width="456" height="200" fill="white"/>
</clipPath>
</defs>
</svg>
