<svg width="451" height="200" viewBox="0 0 451 200" fill="none" xmlns="http://www.w3.org/2000/svg">
<path d="M54.2676 116.432L29.6582 73.6094H42.7441L59.9805 103.736L77.2656 73.6094H90.3516L65.6445 116.432V149H54.2676V116.432ZM114.469 103.688L143.814 73.6094H159L124.918 107.74L159.195 149H143.961L116.812 115.455L114.469 117.799V149H103.092V73.6094H114.469V103.688ZM213.195 84.8398L203.967 90.3086C202.242 87.3138 200.598 85.3607 199.035 84.4492C197.408 83.4076 195.308 82.8867 192.736 82.8867C189.579 82.8867 186.958 83.7819 184.875 85.5723C182.792 87.3301 181.75 89.5436 181.75 92.2129C181.75 95.8913 184.484 98.8535 189.953 101.1L197.473 104.176C203.592 106.65 208.068 109.677 210.9 113.258C213.732 116.806 215.148 121.168 215.148 126.344C215.148 133.277 212.837 139.007 208.215 143.531C203.56 148.089 197.782 150.367 190.881 150.367C184.338 150.367 178.934 148.43 174.67 144.557C170.471 140.683 167.85 135.23 166.809 128.199L178.332 125.66C178.853 130.087 179.764 133.147 181.066 134.84C183.41 138.095 186.828 139.723 191.32 139.723C194.868 139.723 197.814 138.535 200.158 136.158C202.502 133.782 203.674 130.771 203.674 127.125C203.674 125.66 203.462 124.326 203.039 123.121C202.648 121.884 202.014 120.761 201.135 119.752C200.288 118.71 199.182 117.75 197.814 116.871C196.447 115.96 194.82 115.097 192.932 114.283L185.656 111.256C175.337 106.894 170.178 100.514 170.178 92.1152C170.178 86.4512 172.342 81.7148 176.672 77.9062C181.001 74.0651 186.389 72.1445 192.834 72.1445C201.525 72.1445 208.312 76.3763 213.195 84.8398ZM229.109 110.963C229.109 100.351 232.999 91.2363 240.779 83.6191C248.527 76.002 257.837 72.1934 268.709 72.1934C279.451 72.1934 288.663 76.0345 296.346 83.7168C304.061 91.3991 307.918 100.628 307.918 111.402C307.918 122.242 304.044 131.438 296.297 138.99C288.517 146.575 279.126 150.367 268.123 150.367C258.39 150.367 249.65 146.998 241.902 140.26C233.374 132.805 229.109 123.04 229.109 110.963ZM240.584 111.109C240.584 119.443 243.383 126.295 248.982 131.666C254.549 137.037 260.978 139.723 268.27 139.723C276.18 139.723 282.853 136.988 288.289 131.52C293.725 125.986 296.443 119.247 296.443 111.305C296.443 103.264 293.758 96.526 288.387 91.0898C283.048 85.6211 276.44 82.8867 268.562 82.8867C260.717 82.8867 254.093 85.6211 248.689 91.0898C243.286 96.4935 240.584 103.167 240.584 111.109ZM363.871 84.3027H337.602V102.418H362.943V113.111H337.602V149H326.225V73.6094H363.871V84.3027ZM401.904 84.3027V149H390.527V84.3027H373.193V73.6094H419.189V84.3027H401.904Z" fill="white"/>
</svg>
