<svg width="450" height="200" viewBox="0 0 450 200" fill="none" xmlns="http://www.w3.org/2000/svg">
<path d="M66.36 114.63V141H57.72V114.63L32.7 72.78H41.7L62.04 107.25L82.47 72.78H91.47L66.36 114.63ZM120.8 110.22L116.12 115.17V141H107.39V72.78H116.12V103.29L145.1 72.78H156.17L126.74 103.92L156.62 141H145.37L120.8 110.22ZM192.127 142.53C183.427 142.53 175.657 140.91 168.817 137.67V129.39C175.717 133.05 183.487 134.88 192.127 134.88C197.107 134.88 200.737 133.83 203.017 131.73C205.357 129.63 206.527 126.87 206.527 123.45C206.527 120.21 205.447 117.78 203.287 116.16C201.187 114.54 198.067 113.13 193.927 111.93L187.807 110.22C184.327 109.2 181.357 108.03 178.897 106.71C176.437 105.39 174.367 103.5 172.687 101.04C171.067 98.52 170.257 95.25 170.257 91.23C170.257 84.81 172.117 79.92 175.837 76.56C179.617 73.2 184.957 71.52 191.857 71.52C195.877 71.52 199.417 71.91 202.477 72.69C205.537 73.41 208.717 74.52 212.017 76.02V84.12C205.897 80.82 199.177 79.17 191.857 79.17C187.417 79.17 184.177 80.22 182.137 82.32C180.097 84.36 179.077 87.18 179.077 90.78C179.137 94.08 180.127 96.51 182.047 98.07C184.027 99.63 187.087 101.01 191.227 102.21L197.437 103.92C201.097 104.94 204.187 106.14 206.707 107.52C209.287 108.84 211.357 110.79 212.917 113.37C214.537 115.89 215.347 119.19 215.347 123.27C215.287 129.21 213.187 133.92 209.047 137.4C204.967 140.82 199.327 142.53 192.127 142.53ZM262.199 142.53C255.179 142.53 249.209 141 244.289 137.94C239.429 134.82 235.769 130.59 233.309 125.25C230.849 119.85 229.619 113.76 229.619 106.98C229.619 100.32 230.849 94.32 233.309 88.98C235.769 83.64 239.429 79.41 244.289 76.29C249.209 73.11 255.179 71.52 262.199 71.52C269.159 71.52 275.069 73.11 279.929 76.29C284.789 79.41 288.449 83.67 290.909 89.07C293.429 94.41 294.689 100.38 294.689 106.98C294.689 113.76 293.459 119.85 290.999 125.25C288.539 130.59 284.849 134.82 279.929 137.94C275.069 141 269.159 142.53 262.199 142.53ZM262.199 134.88C267.119 134.88 271.349 133.65 274.889 131.19C278.429 128.73 281.099 125.37 282.899 121.11C284.759 116.85 285.689 112.05 285.689 106.71C285.689 101.55 284.759 96.9 282.899 92.76C281.039 88.56 278.339 85.26 274.799 82.86C271.259 80.4 267.059 79.17 262.199 79.17C257.159 79.17 252.869 80.4 249.329 82.86C245.789 85.32 243.119 88.65 241.319 92.85C239.519 97.05 238.619 101.76 238.619 106.98C238.619 112.32 239.519 117.09 241.319 121.29C243.119 125.49 245.789 128.82 249.329 131.28C252.869 133.68 257.159 134.88 262.199 134.88ZM321.774 80.61V104.01H349.854V111.84H321.774V141H313.044V72.78H354.354V80.61H321.774ZM415.669 80.61H395.149V141H386.329V80.61H365.809V72.78H415.669V80.61Z" fill="white"/>
</svg>
