<svg width="330" height="200" viewBox="0 0 330 200" fill="none" xmlns="http://www.w3.org/2000/svg">
<path d="M76.32 98.4C69.96 107.16 48.96 136.2 40.56 136.2C31.68 136.2 48.84 110.28 51.36 106.8C55.2 100.44 47.64 98.4 46.08 98.4H45.84C45.72 98.88 43.8 100.44 41.52 103.32C39.24 106.2 36.6 110.28 34.32 115.44C30.96 123.24 27.12 141.12 41.28 141.12C41.52 141.12 41.64 141.12 41.76 141C47.16 141 54.36 136.08 61.2 129.72C50.88 149.04 39.12 165.48 25.68 165.48C23.88 165.48 21.96 165.36 20.04 164.52C16.8 173.04 20.76 176.64 26.64 176.64C29.88 176.64 33.36 175.56 36.72 173.76C48.12 167.64 55.8 156.72 62.52 144.48C69.12 132.12 74.64 118.44 81.72 106.8C85.92 100.08 76.68 98.04 76.32 98.4ZM149.139 110.04L145.179 107.4C145.059 107.52 126.339 134.76 116.859 134.76C109.539 134.76 108.219 124.56 108.579 119.28C116.139 111.96 124.299 105.96 129.939 105.96C130.539 105.96 131.019 105.96 131.379 106.08C132.339 101.04 132.099 96.6 127.419 96.6C115.539 96.6 96.8194 118.68 90.6994 127.68C98.8594 109.44 120.219 78.12 122.619 66.84C123.939 61.08 122.739 57.6 117.579 57.6H116.739C116.139 57.72 115.659 57.96 115.299 58.2C114.699 58.68 114.099 59.28 114.579 60.36C115.059 69.48 92.3794 100.8 83.8594 122.52C78.8194 135.48 83.6194 140.64 88.8994 140.64L89.0194 140.76C89.7394 140.04 94.4194 134.16 100.539 127.44C100.899 133.8 104.139 141.36 114.459 141.36C115.419 141.36 116.499 141.24 117.579 141.12C129.699 139.2 149.139 110.16 149.139 110.04ZM187.434 109.92L183.594 107.28C180.354 112.44 169.314 127.92 160.914 132.48C161.394 130.8 161.634 128.88 161.634 126.72C161.634 118.44 157.074 103.56 161.634 96.84L161.754 96.72L155.514 93L138.714 116.4L142.554 119.4L152.154 106.08C151.794 111.84 152.514 117.72 152.514 123.48C152.514 130.56 152.874 135.96 146.034 135.96C142.674 135.96 140.634 132.96 139.314 129.96C138.594 128.28 137.994 126.36 137.634 124.08L132.954 124.2C133.074 127.32 133.674 130.08 134.754 132.6C136.554 136.8 140.154 141 147.354 141C166.434 141 177.834 123.96 187.434 109.92ZM181.332 110.4C175.092 118.08 167.892 141.12 186.012 141.12C193.212 141.12 199.092 136.44 203.892 130.8C205.212 131.16 206.652 131.4 208.092 131.4C220.332 131.4 231.372 112.2 231.252 112.08L227.532 109.56C227.532 109.68 216.852 126.48 207.372 126.48H207.132C208.212 124.68 209.172 123.24 210.132 121.68C215.892 111.72 216.972 101.16 209.292 96.72C206.532 95.16 203.412 94.44 200.052 94.44C190.932 94.44 181.332 100.44 181.332 110.4ZM186.972 135.72C184.812 135.12 179.532 130.2 185.292 121.56C188.652 117.36 191.772 112.56 196.212 110.28C195.132 117.12 195.852 124.08 199.692 128.04C196.212 132.24 192.132 135.96 188.652 135.96C188.292 135.96 187.812 135.84 186.972 135.72ZM207.012 117.84C206.532 118.44 205.092 121.08 202.812 123.96C201.372 121.56 201.012 117.72 201.372 114.48C201.492 112.68 201.852 110.76 202.212 108.72C204.132 104.28 200.772 100.92 197.412 100.92C194.652 101.04 192.012 101.4 189.132 103.2C189.012 103.2 189.132 103.08 189.492 102.96C191.772 100.92 194.652 99.6 198.132 99.24C198.972 99.12 199.572 99.12 200.412 99.12C205.572 99.12 209.292 101.52 210.252 104.4C211.692 108.72 209.292 113.88 207.012 117.84ZM263.843 108.6L259.883 105.96C256.403 113.04 250.403 119.16 242.123 119.16C239.363 119.16 236.603 118.56 233.363 117C233.843 116.04 234.323 115.32 234.683 114.72C242.723 100.32 255.443 81.24 258.683 66.84C260.003 61.08 258.923 57.6 253.763 57.6H252.923C252.323 57.72 251.842 57.96 251.483 58.2C250.643 58.8 250.403 59.52 250.763 60.36C253.883 76.8 181.762 167.76 206.722 175.44C207.562 175.8 208.643 175.92 209.722 175.92C225.203 175.92 248.123 143.76 233.843 123.72C237.323 124.32 240.203 124.68 242.483 124.68C254.483 124.68 258.083 117.6 263.843 108.6ZM211.882 169.8C203.122 166.92 226.523 129.48 228.923 125.16C242.843 142.44 220.522 169.92 212.722 169.92C212.362 169.92 212.002 169.92 211.882 169.8ZM267.981 88.8C264.021 88.32 260.421 87.6 257.421 87.6C256.701 87.6 256.101 87.6 255.741 87.72C251.421 88.08 247.581 94.08 254.301 98.16C254.421 97.56 254.661 96.96 255.021 96.48C255.621 95.64 256.461 94.8 258.261 94.8C260.541 94.8 262.341 95.04 264.381 95.4C251.901 117.6 240.021 141 258.501 141H258.981C270.261 141 285.021 118.68 290.781 110.04L286.941 107.4C286.821 107.4 267.981 136.2 258.501 136.2C258.141 136.2 257.661 136.08 257.181 135.96V135.84H257.061C254.421 134.16 258.621 125.52 264.621 114.72C267.501 109.32 271.221 103.32 274.701 97.2C275.301 97.2 275.901 97.32 276.501 97.32C277.461 97.32 278.301 97.2 279.261 97.08C287.061 96.12 288.501 94.32 288.861 89.04C285.501 89.88 282.141 89.88 278.901 89.88C283.341 81.72 287.181 73.92 288.741 66.84C290.061 61.08 288.861 57.6 283.701 57.6H282.861C282.261 57.72 281.781 57.96 281.421 58.2C280.581 58.8 280.341 59.52 280.701 60.36C281.661 64.56 275.301 76.44 267.981 88.8Z" fill="white"/>
</svg>
