<svg width="466" height="200" viewBox="0 0 466 200" fill="none" xmlns="http://www.w3.org/2000/svg">
<path d="M67.9883 141H54.0234V119.076C50.931 118.295 48.0827 117.042 45.4785 115.316C42.9069 113.591 40.6934 111.54 38.8379 109.164C36.9824 106.755 35.5339 104.102 34.4922 101.205C33.4831 98.2754 32.9785 95.1992 32.9785 91.9766V70.9805H46.9922V91.9766C46.9922 93.8971 47.3503 95.7201 48.0664 97.4453C48.8151 99.138 49.8242 100.619 51.0938 101.889C52.3633 103.158 53.8444 104.167 55.5371 104.916C57.2624 105.632 59.0853 105.99 61.0059 105.99C62.9264 105.99 64.7331 105.632 66.4258 104.916C68.151 104.167 69.6484 103.158 70.918 101.889C72.1875 100.619 73.1803 99.138 73.8965 97.4453C74.6452 95.7201 75.0195 93.8971 75.0195 91.9766V70.9805H88.9844V91.9766C88.9844 95.1992 88.4635 98.2754 87.4219 101.205C86.4128 104.102 84.9805 106.755 83.125 109.164C81.2695 111.54 79.056 113.591 76.4844 115.316C73.9128 117.042 71.0807 118.295 67.9883 119.076V141ZM116.52 141H102.506V70.9805H116.52V105.99L142.594 70.9805H158.512L136.393 100.521L158.512 141H142.594L127.213 112.68L116.52 126.986V141ZM164.904 91.9766C164.904 89.0794 165.458 86.3613 166.564 83.8223C167.671 81.2832 169.169 79.0697 171.057 77.1816C172.977 75.2611 175.207 73.7474 177.746 72.6406C180.285 71.5339 183.003 70.9805 185.9 70.9805H218.029V84.9941H185.9C184.924 84.9941 184.012 85.1732 183.166 85.5312C182.32 85.8893 181.571 86.3939 180.92 87.0449C180.301 87.6634 179.813 88.3958 179.455 89.2422C179.097 90.0885 178.918 91 178.918 91.9766C178.918 92.9531 179.097 93.8809 179.455 94.7598C179.813 95.6061 180.301 96.3548 180.92 97.0059C181.571 97.6243 182.32 98.1126 183.166 98.4707C184.012 98.8288 184.924 99.0078 185.9 99.0078H199.914C202.811 99.0078 205.529 99.5612 208.068 100.668C210.64 101.742 212.87 103.24 214.758 105.16C216.678 107.048 218.176 109.278 219.25 111.85C220.357 114.389 220.91 117.107 220.91 120.004C220.91 122.901 220.357 125.619 219.25 128.158C218.176 130.697 216.678 132.927 214.758 134.848C212.87 136.736 210.64 138.233 208.068 139.34C205.529 140.447 202.811 141 199.914 141H168.811V126.986H199.914C200.891 126.986 201.802 126.807 202.648 126.449C203.495 126.091 204.227 125.603 204.846 124.984C205.497 124.333 206.001 123.585 206.359 122.738C206.717 121.892 206.896 120.98 206.896 120.004C206.896 119.027 206.717 118.116 206.359 117.27C206.001 116.423 205.497 115.691 204.846 115.072C204.227 114.421 203.495 113.917 202.648 113.559C201.802 113.201 200.891 113.021 199.914 113.021H185.9C183.003 113.021 180.285 112.468 177.746 111.361C175.207 110.255 172.977 108.757 171.057 106.869C169.169 104.949 167.671 102.719 166.564 100.18C165.458 97.6081 164.904 94.8737 164.904 91.9766ZM302.742 106.283C302.742 109.604 302.303 112.81 301.424 115.902C300.577 118.962 299.373 121.843 297.811 124.545C296.248 127.214 294.36 129.656 292.146 131.869C289.933 134.083 287.492 135.987 284.822 137.582C282.153 139.145 279.272 140.349 276.18 141.195C273.087 142.074 269.881 142.514 266.561 142.514C263.24 142.514 260.034 142.074 256.941 141.195C253.882 140.349 251.001 139.145 248.299 137.582C245.63 135.987 243.188 134.083 240.975 131.869C238.761 129.656 236.857 127.214 235.262 124.545C233.699 121.843 232.479 118.962 231.6 115.902C230.753 112.81 230.33 109.604 230.33 106.283C230.33 102.963 230.753 99.7565 231.6 96.6641C232.479 93.5716 233.699 90.6908 235.262 88.0215C236.857 85.3522 238.761 82.9108 240.975 80.6973C243.188 78.4837 245.63 76.5957 248.299 75.0332C251.001 73.4707 253.882 72.2663 256.941 71.4199C260.034 70.541 263.24 70.1016 266.561 70.1016C269.881 70.1016 273.087 70.541 276.18 71.4199C279.272 72.2663 282.153 73.4707 284.822 75.0332C287.492 76.5957 289.933 78.4837 292.146 80.6973C294.36 82.9108 296.248 85.3522 297.811 88.0215C299.373 90.6908 300.577 93.5716 301.424 96.6641C302.303 99.7565 302.742 102.963 302.742 106.283ZM288.826 106.283C288.826 103.223 288.24 100.342 287.068 97.6406C285.896 94.9062 284.301 92.5462 282.283 90.5605C280.298 88.5423 277.938 86.9473 275.203 85.7754C272.501 84.6035 269.62 84.0176 266.561 84.0176C263.468 84.0176 260.571 84.6035 257.869 85.7754C255.167 86.9473 252.807 88.5423 250.789 90.5605C248.771 92.5462 247.176 94.9062 246.004 97.6406C244.832 100.342 244.246 103.223 244.246 106.283C244.246 109.343 244.832 112.224 246.004 114.926C247.176 117.595 248.771 119.939 250.789 121.957C252.807 123.975 255.167 125.57 257.869 126.742C260.571 127.914 263.468 128.5 266.561 128.5C269.62 128.5 272.501 127.914 275.203 126.742C277.938 125.57 280.298 123.975 282.283 121.957C284.301 119.939 285.896 117.595 287.068 114.926C288.24 112.224 288.826 109.343 288.826 106.283ZM329.984 141H315.971V70.9805H364.994V84.9941H329.984V99.0078H350.98V113.021H329.984V141ZM405.615 141H391.65V84.9941H370.605V70.9805H426.611V84.9941H405.615V141Z" fill="white"/>
</svg>
