<svg width="372" height="200" viewBox="0 0 372 200" fill="none" xmlns="http://www.w3.org/2000/svg">
<path d="M31.805 74.215C31.805 73.455 32.1533 72.8217 32.85 72.315C33.61 71.8083 34.4017 71.555 35.225 71.555C36.2383 71.555 37.0617 72.1883 37.695 73.455L55.175 108.13L72.75 73.455C73.3833 72.1883 74.2067 71.555 75.22 71.555C76.0433 71.555 76.8033 71.8083 77.5 72.315C78.26 72.8217 78.64 73.455 78.64 74.215C78.64 74.785 78.5133 75.355 78.26 75.925L58.5 113.64C58.3733 114.02 58.31 114.273 58.31 114.4V138.53C58.31 139.29 57.9933 139.892 57.36 140.335C56.79 140.778 56.0617 141 55.175 141C54.3517 141 53.6233 140.778 52.99 140.335C52.3567 139.892 52.04 139.29 52.04 138.53V114.4C52.04 114.083 52.0083 113.83 51.945 113.64L32.28 75.925C31.9633 75.355 31.805 74.785 31.805 74.215ZM91.4887 138.53V73.835C91.4887 72.315 92.5337 71.555 94.6237 71.555C96.7137 71.555 97.7587 72.315 97.7587 73.835V107.465L125.214 72.505C125.657 71.8717 126.322 71.555 127.209 71.555C127.969 71.555 128.729 71.9033 129.489 72.6C130.249 73.2967 130.629 74.025 130.629 74.785C130.629 75.355 130.47 75.83 130.154 76.21L109.729 101.575L133.099 136.725C133.352 137.232 133.479 137.643 133.479 137.96C133.479 138.783 133.099 139.543 132.339 140.24C131.579 140.873 130.755 141.19 129.869 141.19C128.982 141.19 128.19 140.715 127.494 139.765L105.549 106.8L97.7587 116.68V138.53C97.7587 139.29 97.4421 139.892 96.8087 140.335C96.1754 140.778 95.4471 141 94.6237 141C93.7371 141 92.9771 140.778 92.3437 140.335C91.7737 139.892 91.4887 139.29 91.4887 138.53ZM141.123 131.405C141.123 130.645 141.408 129.885 141.978 129.125C142.611 128.302 143.276 127.89 143.973 127.89C144.479 127.89 145.113 128.302 145.873 129.125L148.533 131.88C149.483 132.893 150.971 133.812 152.998 134.635C155.088 135.395 157.494 135.775 160.218 135.775C164.714 135.775 168.198 134.667 170.668 132.45C173.138 130.17 174.373 126.908 174.373 122.665C174.373 119.815 173.771 117.408 172.568 115.445C171.428 113.418 169.939 111.867 168.103 110.79C166.329 109.65 164.303 108.637 162.023 107.75L155.183 105.09C152.903 104.203 150.844 103.158 149.008 101.955C147.234 100.688 145.746 98.9467 144.543 96.73C143.403 94.45 142.833 91.7583 142.833 88.655C142.833 85.3617 143.434 82.5433 144.638 80.2C145.904 77.7933 147.583 75.9883 149.673 74.785C151.763 73.5817 153.884 72.7267 156.038 72.22C158.254 71.65 160.566 71.365 162.973 71.365C166.836 71.365 170.446 71.935 173.803 73.075C177.223 74.1517 178.933 75.5133 178.933 77.16C178.933 77.92 178.648 78.7117 178.078 79.535C177.571 80.295 176.938 80.675 176.178 80.675C175.798 80.675 175.069 80.39 173.993 79.82C172.916 79.1867 171.396 78.585 169.433 78.015C167.533 77.3817 165.348 77.065 162.878 77.065C158.888 77.065 155.594 77.92 152.998 79.63C150.401 81.34 149.103 84.1583 149.103 88.085C149.103 90.8083 149.863 93.0883 151.383 94.925C152.966 96.7617 154.929 98.0917 157.273 98.915C159.616 99.7383 162.149 100.72 164.873 101.86C167.596 103 170.129 104.235 172.473 105.565C174.816 106.832 176.748 108.89 178.268 111.74C179.851 114.527 180.643 117.978 180.643 122.095C180.643 128.618 178.838 133.527 175.228 136.82C171.618 140.05 166.741 141.665 160.598 141.665C155.088 141.665 150.464 140.493 146.728 138.15C142.991 135.743 141.123 133.495 141.123 131.405ZM194.906 121.24V91.79C194.906 84.8233 196.679 79.725 200.226 76.495C203.836 73.2017 208.649 71.555 214.666 71.555C220.683 71.555 225.464 73.2017 229.011 76.495C232.621 79.725 234.426 84.8233 234.426 91.79V121.24C234.426 128.27 232.621 133.432 229.011 136.725C225.464 139.955 220.683 141.57 214.666 141.57C208.649 141.57 203.836 139.955 200.226 136.725C196.679 133.432 194.906 128.27 194.906 121.24ZM201.176 121.24C201.176 130.93 205.673 135.775 214.666 135.775C223.659 135.775 228.156 130.93 228.156 121.24V91.79C228.156 82.1633 223.659 77.35 214.666 77.35C205.673 77.35 201.176 82.1633 201.176 91.79V121.24ZM251.883 138.625V73.93C251.883 73.17 252.168 72.6 252.738 72.22C253.308 71.7767 253.973 71.555 254.733 71.555H288.363C289.123 71.555 289.693 71.84 290.073 72.41C290.516 72.9167 290.738 73.55 290.738 74.31C290.738 75.1333 290.516 75.8617 290.073 76.495C289.693 77.065 289.123 77.35 288.363 77.35H258.153V103.475H273.163C273.86 103.475 274.398 103.76 274.778 104.33C275.221 104.837 275.443 105.502 275.443 106.325C275.443 108.035 274.683 108.89 273.163 108.89H258.153V138.625C258.153 139.385 257.836 139.987 257.203 140.43C256.57 140.81 255.841 141 255.018 141C252.928 141 251.883 140.208 251.883 138.625ZM296.831 74.5C296.831 73.74 297.021 73.075 297.401 72.505C297.845 71.8717 298.446 71.555 299.206 71.555H337.301C338.061 71.555 338.631 71.84 339.011 72.41C339.455 72.98 339.676 73.645 339.676 74.405C339.676 75.2283 339.455 75.9567 339.011 76.59C338.631 77.16 338.061 77.445 337.301 77.445H321.436V138.53C321.436 139.29 321.12 139.892 320.486 140.335C319.853 140.778 319.125 141 318.301 141C317.415 141 316.655 140.778 316.021 140.335C315.451 139.892 315.166 139.29 315.166 138.53V77.445H299.206C298.51 77.445 297.94 77.16 297.496 76.59C297.053 76.02 296.831 75.3233 296.831 74.5Z" fill="white"/>
</svg>
