<svg width="350" height="200" viewBox="0 0 350 200" fill="none" xmlns="http://www.w3.org/2000/svg">
<path d="M49.9 141V107L36.2 71H45.5L54.6 94.9L63.6 71H72.9L59.2 107V141H49.9ZM86.2938 141V71H95.5938V117.7L114.094 71H123.394L109.494 106L123.394 141H114.094L104.894 117.7L95.5938 141H86.2938ZM139.774 141C137.774 141 136.074 140.3 134.674 138.9C133.274 137.5 132.574 135.8 132.574 133.8V118.3L141.874 120.4V128.1C141.874 129.1 142.208 129.967 142.874 130.7C143.608 131.367 144.441 131.7 145.374 131.7H156.774C157.774 131.7 158.608 131.367 159.274 130.7C160.008 129.967 160.374 129.1 160.374 128.1V110.5C160.374 109.5 160.008 108.667 159.274 108C158.608 107.267 157.774 106.9 156.774 106.9H139.774C137.774 106.9 136.074 106.2 134.674 104.8C133.274 103.4 132.574 101.7 132.574 99.7V78.2C132.574 76.2 133.274 74.5 134.674 73.1C136.074 71.7 137.774 71 139.774 71H162.474C164.474 71 166.174 71.7 167.574 73.1C168.974 74.5 169.674 76.2 169.674 78.2V89L160.374 86.8V83.9C160.374 82.9 160.008 82.0667 159.274 81.4C158.608 80.6667 157.774 80.3 156.774 80.3H145.374C144.441 80.3 143.608 80.6667 142.874 81.4C142.208 82.0667 141.874 82.9 141.874 83.9V94C141.874 95 142.208 95.8667 142.874 96.6C143.608 97.2667 144.441 97.6 145.374 97.6H162.474C164.474 97.6 166.174 98.3 167.574 99.7C168.974 101.1 169.674 102.8 169.674 104.8V133.8C169.674 135.8 168.974 137.5 167.574 138.9C166.174 140.3 164.474 141 162.474 141H139.774ZM187.915 141C186.048 141 184.415 140.3 183.015 138.9C181.615 137.5 180.915 135.767 180.915 133.7V78.3C180.915 76.2333 181.615 74.5 183.015 73.1C184.415 71.7 186.048 71 187.915 71H210.615C212.748 71 214.482 71.7 215.815 73.1C217.215 74.5 217.915 76.2333 217.915 78.3V133.7C217.915 135.767 217.215 137.5 215.815 138.9C214.482 140.3 212.748 141 210.615 141H187.915ZM193.615 131.8H204.915C206.048 131.8 206.948 131.433 207.615 130.7C208.348 129.967 208.715 129.067 208.715 128V84C208.715 82.8667 208.348 81.9667 207.615 81.3C206.948 80.5667 206.048 80.2 204.915 80.2H193.615C192.682 80.2 191.848 80.5667 191.115 81.3C190.448 81.9667 190.115 82.8667 190.115 84V128C190.115 129.067 190.448 129.967 191.115 130.7C191.848 131.433 192.682 131.8 193.615 131.8ZM229.348 141V71H266.548V80.3H238.648V97.6H257.248L255.148 106.9H238.648V141H229.348ZM290.501 141V80.3H276.601V71H313.701V80.3H299.801V141H290.501Z" fill="white"/>
</svg>
