<svg width="446" height="200" viewBox="0 0 446 200" fill="none" xmlns="http://www.w3.org/2000/svg">
<path d="M60.2422 102.719L74.7412 71.3281H90.4365L67.5635 115.734V141H52.9688V115.734L30.0957 71.3281H45.8389L60.2422 102.719ZM122.541 113.055L115.076 121.094V141H100.721V71.3281H115.076V102.91L121.393 94.249L139.146 71.3281H156.803L132.064 102.288L157.521 141H140.438L122.541 113.055ZM202.976 122.721C202.976 120.009 202.019 117.936 200.105 116.5C198.191 115.033 194.745 113.501 189.769 111.906C184.792 110.279 180.852 108.684 177.949 107.121C170.038 102.846 166.082 97.0882 166.082 89.8467C166.082 86.0824 167.135 82.7327 169.24 79.7979C171.378 76.8311 174.424 74.5182 178.38 72.8594C182.368 71.2005 186.834 70.3711 191.778 70.3711C196.755 70.3711 201.189 71.2803 205.081 73.0986C208.973 74.8851 211.988 77.4212 214.125 80.707C216.294 83.9928 217.379 87.7253 217.379 91.9043H203.024C203.024 88.7142 202.019 86.2419 200.009 84.4873C197.999 82.7008 195.176 81.8076 191.539 81.8076C188.03 81.8076 185.303 82.5573 183.357 84.0566C181.411 85.5241 180.438 87.4701 180.438 89.8945C180.438 92.1595 181.57 94.0576 183.835 95.5889C186.132 97.1201 189.498 98.5557 193.932 99.8955C202.098 102.352 208.048 105.398 211.78 109.035C215.513 112.672 217.379 117.202 217.379 122.625C217.379 128.654 215.098 133.392 210.536 136.837C205.974 140.25 199.833 141.957 192.113 141.957C186.754 141.957 181.873 140.984 177.471 139.038C173.069 137.06 169.703 134.365 167.374 130.951C165.077 127.538 163.929 123.582 163.929 119.084H178.332C178.332 126.772 182.926 130.616 192.113 130.616C195.527 130.616 198.191 129.93 200.105 128.559C202.019 127.155 202.976 125.209 202.976 122.721ZM288.291 107.743C288.291 114.602 287.079 120.615 284.655 125.783C282.23 130.951 278.753 134.939 274.223 137.746C269.725 140.553 264.557 141.957 258.719 141.957C252.945 141.957 247.793 140.569 243.263 137.794C238.733 135.019 235.224 131.063 232.736 125.927C230.247 120.759 228.987 114.825 228.955 108.126V104.681C228.955 97.8219 230.183 91.7926 232.64 86.5928C235.128 81.361 238.621 77.3574 243.119 74.582C247.649 71.7747 252.817 70.3711 258.623 70.3711C264.429 70.3711 269.581 71.7747 274.079 74.582C278.609 77.3574 282.102 81.361 284.559 86.5928C287.047 91.7926 288.291 97.806 288.291 104.633V107.743ZM273.744 104.585C273.744 97.2796 272.436 91.7288 269.821 87.9326C267.205 84.1364 263.472 82.2383 258.623 82.2383C253.806 82.2383 250.09 84.1204 247.474 87.8848C244.858 91.6172 243.534 97.1042 243.502 104.346V107.743C243.502 114.857 244.81 120.376 247.426 124.3C250.042 128.224 253.806 130.186 258.719 130.186C263.536 130.186 267.237 128.303 269.821 124.539C272.405 120.743 273.712 115.224 273.744 107.982V104.585ZM344.561 112.528H316.998V141H302.643V71.3281H348.006V82.9561H316.998V100.948H344.561V112.528ZM413.655 82.9561H392.313V141H377.957V82.9561H356.903V71.3281H413.655V82.9561Z" fill="white"/>
</svg>
