<svg width="401" height="200" viewBox="0 0 401 200" fill="none" xmlns="http://www.w3.org/2000/svg">
<path d="M61.825 71.17H73.035V91.025C73.035 95.0783 71.61 98.53 68.76 101.38C66.3533 103.913 63.4083 105.402 59.925 105.845V140.33H48.715V105.845C45.295 105.402 42.3817 103.913 39.975 101.38C37.125 98.53 35.7 95.0783 35.7 91.025V71.17H46.91V91.025C46.91 91.6583 47.0683 92.2917 47.385 92.925C47.765 93.495 48.24 93.9383 48.81 94.255C49.38 94.5717 50.0133 94.73 50.71 94.73H58.025C59.1017 94.73 59.9883 94.3817 60.685 93.685C61.445 92.925 61.825 92.0383 61.825 91.025V71.17ZM126.111 100.525C129.721 104.198 131.526 108.632 131.526 113.825L131.431 139V140.425H129.911H121.646H120.221V138.905L120.316 113.73C120.316 111.703 119.588 109.962 118.131 108.505C116.674 106.985 114.933 106.225 112.906 106.225H99.4161V140.425H88.2061V71.17H99.4161V94.92H108.441C110.468 94.92 112.178 94.2233 113.571 92.83C115.028 91.3733 115.756 89.6 115.756 87.51L115.661 72.69V71.265L117.086 71.17H125.351H126.871V72.595L126.966 87.415C126.966 91.4683 125.826 95.11 123.546 98.34C124.433 99.0367 125.288 99.765 126.111 100.525ZM176.382 71.17C178.852 71.17 181.132 71.7717 183.222 72.975C185.312 74.1783 186.959 75.825 188.162 77.915C189.366 80.005 189.967 82.285 189.967 84.755V88.555H178.757V84.755C178.757 84.1217 178.504 83.5833 177.997 83.14C177.554 82.6333 177.016 82.38 176.382 82.38H157.952V90.55C157.952 91.69 158.332 92.64 159.092 93.4C159.979 94.2867 161.087 94.73 162.417 94.73H162.512L188.447 94.54H189.967V126.84C189.967 130.577 188.637 133.775 185.977 136.435C183.317 139.095 180.119 140.425 176.382 140.425H146.742V117.815H157.952V129.215H176.382C177.016 129.215 177.554 128.993 177.997 128.55C178.504 128.107 178.757 127.537 178.757 126.84V105.845L162.512 105.94H162.417C158.047 105.94 154.311 104.42 151.207 101.38C148.231 98.4033 146.742 94.7933 146.742 90.55V71.17H176.382ZM231.216 71.17C235.966 71.17 240.019 72.8483 243.376 76.205C246.733 79.5617 248.411 83.615 248.411 88.365V140.425H222.381C217.631 140.425 213.578 138.747 210.221 135.39C206.864 132.033 205.186 128.012 205.186 123.325V71.17H231.216ZM216.396 82.38V123.325C216.396 124.908 216.966 126.302 218.106 127.505C219.309 128.645 220.734 129.215 222.381 129.215H237.201V88.365C237.201 86.7183 236.599 85.325 235.396 84.185C234.256 82.9817 232.863 82.38 231.216 82.38H216.396ZM293.079 70.98C296.879 70.98 300.109 72.3417 302.769 75.065C305.493 77.725 306.854 80.955 306.854 84.755V86.275H295.644V84.755C295.644 84.0583 295.391 83.4567 294.884 82.95C294.378 82.4433 293.776 82.19 293.079 82.19H274.839V95.015H295.454V106.225H274.839V140.425H263.629V70.98H293.079ZM322.073 71.17H364.443V82.38H349.053V140.425H337.938V82.38H322.073V71.17Z" fill="white"/>
</svg>
