<svg width="490" height="200" viewBox="0 0 490 200" fill="none" xmlns="http://www.w3.org/2000/svg">
<path d="M85 91C80.5 91 76.7 94.7 76.7 99.3V116.1C76.7 120.6 72.9 124.3 68.3 124.3C63.8 124.3 60.1 120.6 60.1 116.1V99.3C60.1 94.7 56.2 91 51.7 91C47.1 91 43.3 94.7 43.3 99.3V116.1C43.3 129.8 54.5 141 68.3 141C71.3 141 74.2 140.6 76.9 139.6V157.3C76.7 161.8 73.3 165.5 68.6 165.5H69.1C64.5 165.5 60.9 169.2 60.9 173.7C60.9 178.2 64.5 182 68.9 182C82.3 181.9 93.2 171.1 93.4 157.7V157.6V157.4V157.2V116.5V116.1V99.3C93.4 94.7 89.7 91 85 91ZM43.3 165.5C38.7 165.5 35 169.2 35 173.7C35 178.4 38.7 182.1 43.3 182.1C47.8 182.1 51.7 178.4 51.7 173.7C51.7 169.2 47.8 165.5 43.3 165.5ZM154.859 93.4C151.659 90.2 146.459 90.2 143.159 93.4L123.759 112.8V78.8C123.759 74.2 120.159 70.5 115.559 70.5C110.959 70.5 107.359 74.2 107.359 78.8V132.7C107.359 135 107.659 136.6 109.759 138.6C111.359 140.1 113.459 141 115.559 141C117.659 141 119.759 140.2 121.359 138.6L154.859 105.1C158.059 101.9 158.059 96.6 154.859 93.4ZM149.059 124.5C144.459 124.5 140.759 128.2 140.759 132.8C140.759 137.3 144.459 141 149.059 141C153.559 141 157.259 137.3 157.259 132.8C157.259 128.2 153.559 124.5 149.059 124.5ZM229.523 91C222.623 91 216.323 93.8 211.823 98.3C207.323 102.8 204.523 109.1 204.523 116C204.523 120.6 200.823 124.3 196.223 124.3C191.623 124.3 187.923 120.6 187.823 116C187.823 111.4 184.123 107.7 179.523 107.7C174.923 107.7 171.223 111.4 171.223 116C171.223 122.9 174.023 129.2 178.523 133.7C183.023 138.2 189.323 141 196.223 141C203.123 141 209.323 138.2 213.823 133.7C218.323 129.2 221.123 122.9 221.123 116C221.123 111.4 224.923 107.7 229.523 107.7C234.023 107.7 237.823 111.4 237.823 116C237.923 120.5 241.623 124.1 246.123 124.1C250.623 124.1 254.323 120.5 254.423 116V115.9V115.8V115.4C254.123 101.9 243.023 91 229.523 91ZM318.487 116C318.387 102.2 307.187 91 293.387 91C279.687 91 268.387 102.2 268.387 116C268.387 129.8 279.687 141 293.387 141C307.187 141 318.387 129.8 318.487 116ZM293.387 124.7C288.787 124.7 284.687 120.6 284.687 116C284.687 111.4 288.787 107.3 293.387 107.3C297.987 107.3 302.187 111.4 302.187 116C302.187 120.6 297.987 124.7 293.387 124.7ZM377.545 87C382.045 87 385.745 83.3 385.745 78.8C385.745 74.3 382.145 70.6 377.745 70.5C364.245 70.7 353.345 81.7 353.345 95.2V132.8C353.345 137.3 357.045 141 361.545 141C366.145 141 369.745 137.3 369.745 132.8V95.3V95.2C369.845 90.7 373.445 87 378.045 87H377.545ZM340.645 99.5C336.145 99.5 332.445 103.1 332.445 107.7C332.445 112.2 336.145 115.9 340.645 115.9C345.245 115.9 348.945 112.2 348.945 107.7C348.945 103.1 345.245 99.5 340.645 99.5ZM382.145 99.5C377.645 99.5 373.945 103.1 373.945 107.7C373.945 112.2 377.645 115.9 382.145 115.9C386.745 115.9 390.445 112.2 390.445 107.7C390.445 103.1 386.745 99.5 382.145 99.5ZM429.314 87.1C433.914 87.1 437.614 83.4 437.614 78.8C437.614 74.2 433.914 70.5 429.314 70.5C424.714 70.5 421.014 74.2 421.014 78.8C421.014 83.4 424.714 87.1 429.314 87.1ZM412.714 91C408.114 91 404.414 94.7 404.414 99.3C404.414 103.9 408.114 107.4 412.714 107.4H421.114V132.7C421.114 137.3 424.814 141 429.414 141C433.914 141 437.614 137.3 437.614 132.7V107.4H446.014C450.514 107.4 454.214 103.9 454.214 99.3C454.214 94.7 450.514 91 446.014 91H412.714Z" fill="white"/>
</svg>
