<svg width="308" height="200" viewBox="0 0 308 200" fill="none" xmlns="http://www.w3.org/2000/svg">
<path d="M44.3 112.8L30.4 66H41.9L50.3 97.9L58.7 66H69.2L55.3 112.8V136H44.3V112.8ZM92.0484 108.1L88.6484 114.5V136H77.6484V66H88.6484V96.5L103.048 66H114.048L98.7484 97.2L114.048 136H102.748L92.0484 108.1ZM121.166 82.8C121.166 77.1333 122.5 72.8 125.166 69.8C127.9 66.7333 131.966 65.2 137.366 65.2C142.766 65.2 146.8 66.7333 149.466 69.8C152.2 72.8 153.566 77.1333 153.566 82.8V85H143.166V82.1C143.166 79.5667 142.666 77.8 141.666 76.8C140.733 75.7333 139.4 75.2 137.666 75.2C135.933 75.2 134.566 75.7333 133.566 76.8C132.633 77.8 132.166 79.5667 132.166 82.1C132.166 84.5 132.7 86.6333 133.766 88.5C134.833 90.3 136.166 92.0333 137.766 93.7C139.366 95.3 141.066 96.9333 142.866 98.6C144.733 100.2 146.466 101.967 148.066 103.9C149.666 105.833 151 108.033 152.066 110.5C153.133 112.967 153.666 115.867 153.666 119.2C153.666 124.867 152.266 129.233 149.466 132.3C146.733 135.3 142.666 136.8 137.266 136.8C131.866 136.8 127.766 135.3 124.966 132.3C122.233 129.233 120.866 124.867 120.866 119.2V114.9H131.266V119.9C131.266 122.433 131.766 124.2 132.766 125.2C133.833 126.2 135.233 126.7 136.966 126.7C138.7 126.7 140.066 126.2 141.066 125.2C142.133 124.2 142.666 122.433 142.666 119.9C142.666 117.5 142.133 115.4 141.066 113.6C140 111.733 138.666 110 137.066 108.4C135.466 106.733 133.733 105.1 131.866 103.5C130.066 101.833 128.366 100.033 126.766 98.1C125.166 96.1667 123.833 93.9667 122.766 91.5C121.7 89.0333 121.166 86.1333 121.166 82.8ZM174.069 119.9C174.069 122.433 174.569 124.233 175.569 125.3C176.635 126.3 178.035 126.8 179.769 126.8C181.502 126.8 182.869 126.3 183.869 125.3C184.935 124.233 185.469 122.433 185.469 119.9V82.1C185.469 79.5667 184.935 77.8 183.869 76.8C182.869 75.7333 181.502 75.2 179.769 75.2C178.035 75.2 176.635 75.7333 175.569 76.8C174.569 77.8 174.069 79.5667 174.069 82.1V119.9ZM163.069 82.8C163.069 77.1333 164.502 72.8 167.369 69.8C170.235 66.7333 174.369 65.2 179.769 65.2C185.169 65.2 189.302 66.7333 192.169 69.8C195.035 72.8 196.469 77.1333 196.469 82.8V119.2C196.469 124.867 195.035 129.233 192.169 132.3C189.302 135.3 185.169 136.8 179.769 136.8C174.369 136.8 170.235 135.3 167.369 132.3C164.502 129.233 163.069 124.867 163.069 119.2V82.8ZM218.617 97.1H232.817V107.1H218.617V136H207.617V66H236.717V76H218.617V97.1ZM242.792 66H276.792V76H265.292V136H254.292V76H242.792V66Z" fill="white"/>
</svg>
