<svg width="408" height="200" viewBox="0 0 408 200" fill="none" xmlns="http://www.w3.org/2000/svg">
<path d="M79.8 71V76C79.8 84.1333 78.2667 91.6 75.2 98.4C72.2 105.133 67.8 110.267 62 113.8V141H52.6V114C46.8 110.533 42.3333 105.5 39.2 98.9C36.0667 92.2333 34.5 84.9 34.5 76.9V71H44.1V76C44.1 82.8667 45.0667 88.7667 47 93.7C49 98.5667 52.4333 102.567 57.3 105.7C66.0333 99.9 70.4 90 70.4 76V71H79.8ZM138.097 128.5V141H128.497V128.5C128.497 120.967 126.83 115.667 123.497 112.6C120.23 109.467 113.964 107.867 104.697 107.8V141H95.2969V71H104.697V99.5C109.63 99.6333 112.564 99.7667 113.497 99.9L127.597 71H137.797L121.997 102.1C132.73 106.033 138.097 114.833 138.097 128.5ZM189.382 71V79.8H171.682C164.949 79.8 161.582 82.5333 161.582 88C161.582 90.9333 163.049 93.4333 165.982 95.5C168.982 97.5 173.015 99.4333 178.082 101.3C180.349 102.167 182.282 103.067 183.882 104C185.482 104.867 187.082 106.033 188.682 107.5C190.282 108.967 191.482 110.867 192.282 113.2C193.082 115.467 193.482 118.1 193.482 121.1C193.482 124.433 192.782 127.433 191.382 130.1C189.982 132.7 188.182 134.767 185.982 136.3C183.782 137.767 181.515 138.9 179.182 139.7C176.915 140.433 174.682 140.833 172.482 140.9C171.549 140.967 170.215 141 168.482 141H152.882V132.2H168.182C172.715 132.2 176.415 131.267 179.282 129.4C182.149 127.467 183.582 124.667 183.582 121C183.582 119.2 183.182 117.633 182.382 116.3C181.582 114.9 180.415 113.7 178.882 112.7C177.415 111.7 175.882 110.833 174.282 110.1C172.749 109.367 170.882 108.6 168.682 107.8C168.082 107.6 167.615 107.433 167.282 107.3C156.815 103.3 151.582 96.7667 151.582 87.7C151.582 82.1 153.382 77.9333 156.982 75.2C160.582 72.4 165.282 71 171.082 71H189.382ZM263.173 106.3C263.106 102.567 262.539 99.0333 261.473 95.7C260.473 92.3667 258.973 89.4667 256.973 87C255.039 84.4667 252.673 82.4667 249.873 81C247.073 79.5333 243.906 78.8 240.373 78.8C236.839 78.8 233.673 79.5333 230.873 81C228.073 82.4667 225.673 84.4667 223.673 87C221.739 89.4667 220.239 92.3667 219.173 95.7C218.173 99.0333 217.639 102.567 217.573 106.3C217.639 110.1 218.173 113.633 219.173 116.9C220.239 120.167 221.739 123 223.673 125.4C225.673 127.8 228.073 129.7 230.873 131.1C233.673 132.5 236.839 133.2 240.373 133.2C243.906 133.2 247.073 132.5 249.873 131.1C252.673 129.7 255.039 127.8 256.973 125.4C258.973 123 260.473 120.167 261.473 116.9C262.539 113.633 263.106 110.1 263.173 106.3ZM207.473 106.3C207.539 100.767 208.373 95.7667 209.973 91.3C211.573 86.8333 213.806 83.0333 216.673 79.9C219.539 76.7 222.973 74.2667 226.973 72.6C230.973 70.8667 235.439 70 240.373 70C245.239 70 249.673 70.8667 253.673 72.6C257.739 74.2667 261.206 76.7 264.073 79.9C266.939 83.0333 269.173 86.8333 270.773 91.3C272.373 95.7667 273.206 100.767 273.273 106.3C273.206 111.833 272.373 116.8 270.773 121.2C269.239 125.6 267.039 129.333 264.173 132.4C261.306 135.467 257.839 137.833 253.773 139.5C249.773 141.167 245.306 142 240.373 142C235.439 142 230.939 141.167 226.873 139.5C222.873 137.833 219.439 135.467 216.573 132.4C213.706 129.333 211.473 125.6 209.873 121.2C208.339 116.8 207.539 111.833 207.473 106.3ZM299.205 89V102.4H317.805V111.2H299.205V141H289.805V87.7C289.805 82.7667 291.371 78.8 294.505 75.8C296.638 73.8 299.038 72.5 301.705 71.9C304.371 71.3 307.638 71 311.505 71H322.105V79.8H310.205C302.871 79.8 299.205 82.8667 299.205 89ZM330.625 79.8V71H374.625V79.8H357.325V141H347.925V79.8H330.625Z" fill="white"/>
</svg>
