<svg width="473" height="200" viewBox="0 0 473 200" fill="none" xmlns="http://www.w3.org/2000/svg">
<path d="M56.9043 138.998C56.0579 140.691 54.9349 141.537 53.5352 141.537C52.1354 141.537 51.4355 140.821 51.4355 139.389C51.4355 138.51 51.8587 137.549 52.7051 136.508C54.3978 134.49 56.0091 132.162 57.5391 129.525L60.0293 125.082L31.0254 71.9082H59.4922L73.457 101.352L85.957 79.1348C86.8685 77.4421 87.6497 75.7331 88.3008 74.0078C88.9518 72.25 89.8145 71.3711 90.8887 71.3711C92.2233 71.3711 92.8906 72.0384 92.8906 73.373C92.8906 74.1543 92.5977 75.0495 92.0117 76.0586L58.6133 135.629C58.2552 136.28 57.9622 136.817 57.7344 137.24L56.9043 138.998ZM107.096 71.9082H131.998V92.123L149.381 78.9883C151.822 77.1328 153.596 75.6191 154.703 74.4473C155.81 73.2754 156.493 72.5755 156.754 72.3477C157.047 72.0872 157.307 71.8919 157.535 71.7617C157.926 71.5013 158.414 71.3711 159 71.3711C159.618 71.3711 160.107 71.5501 160.465 71.9082C160.823 72.2337 161.002 72.6081 161.002 73.0312C161.002 73.4219 160.953 73.7637 160.855 74.0566C160.758 74.3171 160.562 74.6263 160.27 74.9844C159.618 75.7656 158.382 76.8561 156.559 78.2559L145.621 86.5566L163.932 131.332C164.29 132.178 164.632 132.927 164.957 133.578L165.738 135.336L166.617 136.996C166.845 137.452 167.04 137.891 167.203 138.314C167.366 138.738 167.431 139.145 167.398 139.535C167.366 139.926 167.252 140.284 167.057 140.609C166.601 141.326 166.048 141.684 165.396 141.684C164.485 141.684 163.801 141.423 163.346 140.902C162.76 140.186 162.32 139.389 162.027 138.51L161.148 135.775C160.855 134.864 160.465 133.773 159.977 132.504L142.252 89.0957L131.998 96.8594V141H107.096V71.9082ZM182.092 137.484C180.952 136.833 179.96 136.15 179.113 135.434C178.299 134.717 177.893 133.952 177.893 133.139C177.893 131.576 178.56 130.795 179.895 130.795C180.773 130.795 181.75 131.283 182.824 132.26C183.898 133.236 185.103 134.099 186.438 134.848C187.772 135.564 189.221 136.182 190.783 136.703C194.006 137.777 196.984 138.314 199.719 138.314C202.453 138.314 204.553 138.135 206.018 137.777C207.515 137.419 208.768 136.931 209.777 136.312C211.926 134.978 213 133.269 213 131.186C213 129.265 212.072 127.328 210.217 125.375C208.654 123.715 206.441 121.729 203.576 119.418L195.227 112.875C186.861 106.43 181.929 100.538 180.432 95.1992C179.911 93.3438 179.65 91.2767 179.65 88.998C179.65 86.7194 180.155 84.4733 181.164 82.2598C182.206 80.0462 183.736 78.1094 185.754 76.4492C190.083 72.8359 195.975 71.0293 203.43 71.0293C207.238 71.0293 210.656 71.599 213.684 72.7383C216.711 73.8451 218.778 74.8379 219.885 75.7168C220.992 76.5957 221.545 77.3932 221.545 78.1094C221.545 79.6068 220.926 80.3555 219.689 80.3555C218.973 80.3555 218.208 79.9974 217.395 79.2812C216.581 78.5651 215.669 77.9466 214.66 77.4258C213.684 76.8724 212.561 76.3841 211.291 75.9609C208.557 75.0495 205.871 74.5938 203.234 74.5938C198.384 74.5938 195.959 76.1888 195.959 79.3789C195.959 80.7135 196.398 81.9505 197.277 83.0898C198.84 85.0755 201.883 87.9238 206.408 91.6348C210.965 95.3132 214.611 98.5358 217.346 101.303C220.113 104.07 222.212 106.56 223.645 108.773C225.923 112.257 227.062 115.886 227.062 119.662C227.062 123.406 226.395 126.596 225.061 129.232C223.758 131.837 221.919 134.083 219.543 135.971C214.53 139.942 208.312 141.928 200.891 141.928C193.469 141.928 187.202 140.447 182.092 137.484ZM251.424 132.211C248.201 129.053 245.63 125.245 243.709 120.785C241.821 116.293 240.877 111.41 240.877 106.137C240.877 100.831 241.772 96.0781 243.562 91.8789C245.385 87.6471 247.892 83.985 251.082 80.8926C257.918 74.3171 266.495 71.0293 276.814 71.0293C287.068 71.0293 295.467 74.2682 302.01 80.7461C308.65 87.3216 311.971 95.8503 311.971 106.332C311.971 116.781 308.569 125.375 301.766 132.113C297.501 136.28 292.26 139.161 286.043 140.756C282.951 141.537 279.354 141.928 275.252 141.928C271.183 141.928 267 141.098 262.703 139.438C258.406 137.745 254.646 135.336 251.424 132.211ZM276.766 74.5938C274.975 74.5938 273.299 74.724 271.736 74.9844V137.973C273.234 138.233 274.91 138.363 276.766 138.363C285.457 138.363 292.781 135.466 298.738 129.672C304.956 123.65 308.064 115.87 308.064 106.332C308.064 97.25 305.151 89.6979 299.324 83.6758C293.432 77.6211 285.913 74.5938 276.766 74.5938ZM370.512 96.6641L368.51 96.6152C367.794 96.5501 366.882 96.5176 365.775 96.5176H354.838V141H329.936V71.9082H368.705L373.539 71.7617H374.418C376.859 71.7617 378.08 72.4779 378.08 73.9102C378.08 74.4635 377.852 74.9844 377.396 75.4727C376.973 75.9284 376.501 76.1562 375.98 76.1562C375.134 76.1562 374.32 76.0749 373.539 75.9121C372.042 75.5866 370.089 75.4238 367.68 75.4238H354.838V93.002H364.652C364.652 93.002 366.671 92.9206 370.707 92.7578C372.465 92.7578 373.344 93.4089 373.344 94.7109C373.344 96.013 372.4 96.6641 370.512 96.6641ZM440.625 73.1777C440.625 74.6751 439.046 75.4238 435.889 75.4238H424.561V141H399.561V75.4238H392.236C389.73 75.4238 388.005 75.5378 387.061 75.7656C385.824 76.026 384.928 76.1562 384.375 76.1562C382.715 76.1562 381.885 75.5052 381.885 74.2031C381.885 72.6732 383.496 71.9082 386.719 71.9082H430.273C432.52 71.9082 434.18 71.8105 435.254 71.6152C436.556 71.3874 437.533 71.2734 438.184 71.2734C439.811 71.2734 440.625 71.9082 440.625 73.1777Z" fill="white"/>
</svg>
