<svg width="446" height="200" viewBox="0 0 446 200" fill="none" xmlns="http://www.w3.org/2000/svg">
<path d="M61.899 112.384V141H56.852V112.384L31.225 71.665H35.586C36.0433 71.665 36.4027 71.7793 36.664 72.008C36.958 72.204 37.2357 72.498 37.497 72.89L57.342 104.74C57.7993 105.491 58.1913 106.226 58.518 106.945C58.8447 107.631 59.1387 108.333 59.4 109.052C59.6613 108.333 59.9553 107.631 60.282 106.945C60.6087 106.226 61.0007 105.491 61.458 104.74L81.254 72.89C81.45 72.5307 81.695 72.2367 81.989 72.008C82.283 71.7793 82.6587 71.665 83.116 71.665H87.526L61.899 112.384ZM109.44 103.662H113.556C114.176 103.662 114.715 103.646 115.173 103.613C115.63 103.548 116.038 103.45 116.398 103.319C116.79 103.156 117.149 102.96 117.476 102.731C117.802 102.502 118.145 102.208 118.505 101.849L146.484 73.086C147.006 72.5633 147.48 72.204 147.905 72.008C148.362 71.7793 148.917 71.665 149.571 71.665H153.638L123.356 102.78C122.735 103.433 122.18 103.94 121.69 104.299C121.232 104.658 120.71 104.952 120.122 105.181C120.808 105.377 121.412 105.687 121.935 106.112C122.49 106.504 123.045 107.027 123.601 107.68L155.549 141H151.482C150.632 141 150.028 140.886 149.669 140.657C149.309 140.396 148.934 140.069 148.542 139.677L119.191 109.689C118.831 109.33 118.505 109.019 118.211 108.758C117.917 108.497 117.574 108.284 117.182 108.121C116.822 107.925 116.381 107.794 115.859 107.729C115.336 107.631 114.683 107.582 113.899 107.582H109.44V141H104.442V71.567H109.44V103.662ZM205.103 80.093C204.809 80.6483 204.384 80.926 203.829 80.926C203.404 80.926 202.849 80.632 202.163 80.044C201.51 79.4233 200.611 78.7537 199.468 78.035C198.325 77.2837 196.887 76.5977 195.156 75.977C193.457 75.3563 191.35 75.046 188.835 75.046C186.32 75.046 184.098 75.4053 182.171 76.124C180.276 76.8427 178.676 77.8227 177.369 79.064C176.095 80.3053 175.115 81.7427 174.429 83.376C173.776 85.0093 173.449 86.7243 173.449 88.521C173.449 90.873 173.939 92.8167 174.919 94.352C175.932 95.8873 177.255 97.194 178.888 98.272C180.521 99.35 182.367 100.265 184.425 101.016C186.516 101.735 188.655 102.453 190.844 103.172C193.033 103.891 195.156 104.691 197.214 105.573C199.305 106.422 201.167 107.5 202.8 108.807C204.433 110.114 205.74 111.731 206.72 113.658C207.733 115.553 208.239 117.921 208.239 120.763C208.239 123.67 207.733 126.414 206.72 128.995C205.74 131.543 204.303 133.764 202.408 135.659C200.513 137.554 198.194 139.056 195.45 140.167C192.706 141.245 189.57 141.784 186.042 141.784C181.469 141.784 177.532 140.984 174.233 139.383C170.934 137.75 168.043 135.528 165.56 132.719L166.932 130.563C167.324 130.073 167.781 129.828 168.304 129.828C168.598 129.828 168.974 130.024 169.431 130.416C169.888 130.808 170.444 131.298 171.097 131.886C171.75 132.441 172.534 133.062 173.449 133.748C174.364 134.401 175.425 135.022 176.634 135.61C177.843 136.165 179.231 136.639 180.799 137.031C182.367 137.423 184.147 137.619 186.14 137.619C188.884 137.619 191.334 137.211 193.49 136.394C195.646 135.545 197.459 134.401 198.929 132.964C200.432 131.527 201.575 129.828 202.359 127.868C203.143 125.875 203.535 123.752 203.535 121.498C203.535 119.048 203.029 117.039 202.016 115.471C201.036 113.87 199.729 112.547 198.096 111.502C196.463 110.424 194.601 109.526 192.51 108.807C190.452 108.088 188.329 107.386 186.14 106.7C183.951 106.014 181.812 105.246 179.721 104.397C177.663 103.548 175.817 102.47 174.184 101.163C172.551 99.8237 171.228 98.174 170.215 96.214C169.235 94.2213 168.745 91.7387 168.745 88.766C168.745 86.4467 169.186 84.209 170.068 82.053C170.95 79.897 172.24 78.0023 173.939 76.369C175.638 74.703 177.728 73.38 180.211 72.4C182.726 71.3873 185.585 70.881 188.786 70.881C192.379 70.881 195.597 71.4527 198.439 72.596C201.314 73.7393 203.927 75.487 206.279 77.839L205.103 80.093ZM288.546 106.308C288.546 111.665 287.746 116.533 286.145 120.91C284.545 125.255 282.291 128.979 279.383 132.082C276.476 135.153 272.997 137.537 268.946 139.236C264.896 140.902 260.404 141.735 255.471 141.735C250.604 141.735 246.145 140.902 242.094 139.236C238.044 137.537 234.565 135.153 231.657 132.082C228.75 128.979 226.48 125.255 224.846 120.91C223.246 116.533 222.445 111.665 222.445 106.308C222.445 100.983 223.246 96.1487 224.846 91.804C226.48 87.4267 228.75 83.7027 231.657 80.632C234.565 77.5287 238.044 75.1277 242.094 73.429C246.145 71.7303 250.604 70.881 255.471 70.881C260.404 70.881 264.896 71.7303 268.946 73.429C272.997 75.095 276.476 77.4797 279.383 80.583C282.291 83.6863 284.545 87.4267 286.145 91.804C287.746 96.1487 288.546 100.983 288.546 106.308ZM283.352 106.308C283.352 101.473 282.683 97.1287 281.343 93.274C280.004 89.4193 278.109 86.1527 275.659 83.474C273.242 80.7953 270.318 78.7537 266.888 77.349C263.458 75.9117 259.653 75.193 255.471 75.193C251.355 75.193 247.582 75.9117 244.152 77.349C240.755 78.7537 237.815 80.7953 235.332 83.474C232.882 86.1527 230.971 89.4193 229.599 93.274C228.26 97.1287 227.59 101.473 227.59 106.308C227.59 111.175 228.26 115.536 229.599 119.391C230.971 123.213 232.882 126.463 235.332 129.142C237.815 131.821 240.755 133.862 244.152 135.267C247.582 136.672 251.355 137.374 255.471 137.374C259.653 137.374 263.458 136.672 266.888 135.267C270.318 133.862 273.242 131.821 275.659 129.142C278.109 126.463 280.004 123.213 281.343 119.391C282.683 115.536 283.352 111.175 283.352 106.308ZM350.37 71.665V75.83H313.865V104.985H345.47V109.15H313.865V141H308.818V71.665H350.37ZM414.096 71.665V75.928H389.743V141H384.745V75.928H360.245V71.665H414.096Z" fill="white"/>
</svg>
