<svg width="430" height="200" viewBox="0 0 430 200" fill="none" xmlns="http://www.w3.org/2000/svg">
<path d="M65.3097 73.8182L59.4476 92.5455L53.4024 73.8182H28L47.5403 123.818V140.182H71.2329V123.727L90.7121 73.8182H65.3097Z" fill="white"/>
<path d="M153.716 140.182L138.695 102.091L153.289 73.8182H126.543L115.185 95.7273V73.8182H92.4695V140.182H115.185V123.182L118.788 117.545L127.337 140.182H153.716Z" fill="white"/>
<path d="M151.877 116.364C152.366 130.727 159.816 142 183.325 142C206.712 142 213.735 131.545 213.735 120.091C213.735 108.273 209.094 101.364 183.997 99.5455C176.791 98.7273 175.998 97.5455 175.998 96.0909C175.998 94.7273 176.975 93.3636 181.86 93.3636C186.623 93.3636 187.844 95.3636 188.21 97.5455H212.636C212.025 84 204.148 72 181.799 72C159.51 72 152.61 82.2727 152.61 93.9091C152.61 105.636 157.373 112.818 181.554 114.545C188.821 115.182 189.554 116.545 189.554 117.818C189.554 119.182 188.638 120.636 183.264 120.636C177.952 120.636 176.73 118.636 176.425 116.364H151.877Z" fill="white"/>
<path d="M249.343 142C271.02 142 280.729 127.545 280.729 108.727V105.273C280.729 86.4545 271.02 72 249.343 72C227.726 72 218.017 86.4545 218.017 105.273V108.727C218.017 127.545 227.726 142 249.343 142ZM249.343 115.636C244.397 115.636 242.137 112.182 242.137 107.364V106.636C242.137 101.818 244.397 98.3636 249.343 98.3636C254.289 98.3636 256.609 101.818 256.609 106.636V107.364C256.609 112.182 254.289 115.636 249.343 115.636Z" fill="white"/>
<path d="M335.598 73.8182H286.625V140.182H308.363V123.091H334.743V102.727H308.363V97.3636H335.598V73.8182Z" fill="white"/>
<path d="M357.881 100.727V140.182H381.696V100.727H398V73.8182H341.455V100.727H357.881Z" fill="white"/>
</svg>
