<svg width="486" height="200" viewBox="0 0 486 200" fill="none" xmlns="http://www.w3.org/2000/svg">
<path d="M56.2 113.3L30 72.4H46.5L63.6 100.4H64.1L81 72.4H96.7L70.7 113.3V141H56.2V113.3ZM107.399 72.4H121.899V105.5L153.599 72.4H171.199L144.399 100.3L171.599 141H154.399L134.699 110.5L121.899 121.1V141H107.399V72.4ZM209.867 142.2C204.601 142.2 199.767 141.4 195.367 139.8C191.034 138.133 187.567 135.7 184.967 132.5C182.367 129.3 181.067 125.433 181.067 120.9L181.167 118.7H195.867L195.767 120.3C195.767 123.233 197.067 125.567 199.667 127.3C202.267 129.033 205.901 129.9 210.567 129.9C215.501 129.9 219.067 129.267 221.267 128C223.467 126.667 224.567 124.9 224.567 122.7C224.567 120.767 223.834 119.167 222.367 117.9C220.967 116.567 219.167 115.533 216.967 114.8C214.834 114 211.867 113.067 208.067 112C202.667 110.467 198.301 109 194.967 107.6C191.634 106.2 188.767 104.133 186.367 101.4C183.967 98.6 182.767 94.9333 182.767 90.4C182.767 84.1333 185.301 79.3667 190.367 76.1C195.434 72.8333 202.167 71.2 210.567 71.2C218.501 71.2 224.967 72.9 229.967 76.3C235.034 79.6333 237.567 84.6667 237.567 91.4V92.6H223.167V91.7C223.167 89.1667 222.001 87.1667 219.667 85.7C217.401 84.2333 214.301 83.5 210.367 83.5C206.167 83.5 202.934 84.0667 200.667 85.2C198.467 86.3333 197.367 87.9 197.367 89.9C197.367 91.4333 198.034 92.7667 199.367 93.9C200.701 94.9667 202.367 95.8667 204.367 96.6C206.367 97.2667 209.201 98.1 212.867 99.1C218.334 100.567 222.801 102.033 226.267 103.5C229.801 104.9 232.834 107 235.367 109.8C237.901 112.6 239.167 116.267 239.167 120.8C239.167 128.133 236.534 133.533 231.267 137C226.067 140.467 218.934 142.2 209.867 142.2ZM286.466 142.2C275.466 142.2 266.933 139.267 260.866 133.4C254.8 127.467 251.766 118.567 251.766 106.7C251.766 94.8333 254.8 85.9667 260.866 80.1C266.933 74.1667 275.466 71.2 286.466 71.2C297.533 71.2 306.1 74.1667 312.166 80.1C318.233 85.9667 321.266 94.8333 321.266 106.7C321.266 118.567 318.233 127.467 312.166 133.4C306.1 139.267 297.533 142.2 286.466 142.2ZM286.466 129.9C293 129.9 297.933 128.033 301.266 124.3C304.666 120.5 306.366 115.133 306.366 108.2V105.2C306.366 98.2667 304.666 92.9333 301.266 89.2C297.933 85.4 293 83.5 286.466 83.5C279.933 83.5 275 85.4 271.666 89.2C268.333 92.9333 266.666 98.2667 266.666 105.2V108.2C266.666 115.133 268.333 120.5 271.666 124.3C275 128.033 279.933 129.9 286.466 129.9ZM336.098 72.4H385.798V84.7H350.598V101.6H382.098V113.9H350.598V141H336.098V72.4ZM417.831 84.9H396.631V72.4H453.531V84.9H432.331V141H417.831V84.9Z" fill="white"/>
</svg>
