<svg width="494" height="200" viewBox="0 0 494 200" fill="none" xmlns="http://www.w3.org/2000/svg">
<path d="M71.9 116.2V141H55.7V116L28.6 71H45.8L64.5 102.1L83.2 71H99.1L71.9 116.2ZM134.695 113.5L125.295 123.3V141H109.195V71H125.295V103.7L156.295 71H174.295L145.295 102.2L175.995 141H157.095L134.695 113.5ZM208.753 142.2C203.22 142.2 197.853 141.467 192.653 140C187.52 138.467 183.386 136.5 180.253 134.1L185.753 121.9C188.753 124.1 192.32 125.867 196.453 127.2C200.586 128.533 204.72 129.2 208.853 129.2C213.453 129.2 216.853 128.533 219.053 127.2C221.253 125.8 222.353 123.967 222.353 121.7C222.353 120.033 221.686 118.667 220.353 117.6C219.086 116.467 217.42 115.567 215.353 114.9C213.353 114.233 210.62 113.5 207.153 112.7C201.82 111.433 197.453 110.167 194.053 108.9C190.653 107.633 187.72 105.6 185.253 102.8C182.853 100 181.653 96.2667 181.653 91.6C181.653 87.5333 182.753 83.8667 184.953 80.6C187.153 77.2667 190.453 74.6333 194.853 72.7C199.32 70.7667 204.753 69.8 211.153 69.8C215.62 69.8 219.986 70.3333 224.253 71.4C228.52 72.4667 232.253 74 235.453 76L230.453 88.3C223.986 84.6333 217.52 82.8 211.053 82.8C206.52 82.8 203.153 83.5333 200.953 85C198.82 86.4667 197.753 88.4 197.753 90.8C197.753 93.2 198.986 95 201.453 96.2C203.986 97.3333 207.82 98.4667 212.953 99.6C218.286 100.867 222.653 102.133 226.053 103.4C229.453 104.667 232.353 106.667 234.753 109.4C237.22 112.133 238.453 115.833 238.453 120.5C238.453 124.5 237.32 128.167 235.053 131.5C232.853 134.767 229.52 137.367 225.053 139.3C220.586 141.233 215.153 142.2 208.753 142.2ZM287.423 142.2C280.156 142.2 273.589 140.633 267.723 137.5C261.923 134.367 257.356 130.067 254.023 124.6C250.756 119.067 249.123 112.867 249.123 106C249.123 99.1333 250.756 92.9667 254.023 87.5C257.356 81.9667 261.923 77.6333 267.723 74.5C273.589 71.3667 280.156 69.8 287.423 69.8C294.689 69.8 301.223 71.3667 307.023 74.5C312.823 77.6333 317.389 81.9667 320.723 87.5C324.056 92.9667 325.723 99.1333 325.723 106C325.723 112.867 324.056 119.067 320.723 124.6C317.389 130.067 312.823 134.367 307.023 137.5C301.223 140.633 294.689 142.2 287.423 142.2ZM287.423 128.4C291.556 128.4 295.289 127.467 298.623 125.6C301.956 123.667 304.556 121 306.423 117.6C308.356 114.2 309.323 110.333 309.323 106C309.323 101.667 308.356 97.8 306.423 94.4C304.556 91 301.956 88.3667 298.623 86.5C295.289 84.5667 291.556 83.6 287.423 83.6C283.289 83.6 279.556 84.5667 276.223 86.5C272.889 88.3667 270.256 91 268.323 94.4C266.456 97.8 265.523 101.667 265.523 106C265.523 110.333 266.456 114.2 268.323 117.6C270.256 121 272.889 123.667 276.223 125.6C279.556 127.467 283.289 128.4 287.423 128.4ZM358.098 84V102.5H390.498V115.5H358.098V141H341.898V71H394.798V84H358.098ZM424.753 84.2H402.353V71H463.353V84.2H440.953V141H424.753V84.2Z" fill="white"/>
</svg>
