<svg width="463" height="200" viewBox="0 0 463 200" fill="none" xmlns="http://www.w3.org/2000/svg">
<path d="M57.2 149H68.9V119.1L95.9 78H82.1L63 107.4L44 78H30.3L57.2 119V149ZM109.766 149H121.366V115.8L155.866 149H171.666L133.166 111.9L164.666 78H149.866L121.366 108.6V78H109.766V149ZM174.689 128.6C175.189 139.8 184.689 150.2 200.589 150.2C214.589 150.2 224.189 141.9 224.189 129.9C224.189 119.1 217.689 112.4 206.589 108.8L197.789 106C191.489 103.9 188.189 101.1 188.189 95.9C188.289 90.8 192.989 87.7 198.889 87.7C203.989 87.7 209.289 90.4 210.989 97.1H222.689C221.989 87.2 213.889 76.8 199.089 76.8C185.789 76.8 176.389 84.2 176.489 96.5C176.489 106.9 182.689 113.4 193.889 117L202.589 119.9C209.289 122.1 212.389 125.5 212.389 130.3C212.389 135.9 207.189 139.3 200.489 139.3C193.989 139.3 187.289 135.8 186.389 128.6H174.689ZM310.104 113.5C310.104 93 293.704 76.8 273.404 76.8C253.004 76.8 236.704 93 236.704 113.5C236.704 134 253.004 150.2 273.404 150.2C293.704 150.2 310.104 134 310.104 113.5ZM248.504 113.5C248.504 99.4 259.304 88.1 273.404 88.1C287.404 88.1 298.204 99.4 298.204 113.5C298.204 127.6 287.404 138.9 273.404 138.9C259.304 138.9 248.504 127.6 248.504 113.5ZM326.942 149H338.642V118.6H362.642V107.5H338.642V89.2H369.142V78H326.942V149ZM398.355 149H410.055V89.2H430.755V78H377.755V89.2H398.355V149Z" fill="white"/>
</svg>
