<svg width="460" height="200" viewBox="0 0 460 200" fill="none" xmlns="http://www.w3.org/2000/svg">
<path d="M82.1 70.7C83.6333 70.7 85 71.3 86.2 72.5C87.4667 73.6333 88.1 75.1 88.1 76.9C88.1 77.5 88 78.1333 87.8 78.8C87.6667 79.4 87.4 80 87 80.6L64.3 113.1L66.1 106.2V134.9C66.1 136.633 65.5 138.1 64.3 139.3C63.1667 140.433 61.8333 141 60.3 141C58.6333 141 57.2 140.433 56 139.3C54.8667 138.1 54.3 136.633 54.3 134.9V107L55.1 110.2L33.5 81.5C32.8333 80.6333 32.3667 79.8 32.1 79C31.8333 78.2 31.7 77.4667 31.7 76.8C31.7 75 32.4 73.5333 33.8 72.4C35.2 71.2667 36.6333 70.7 38.1 70.7C39.9667 70.7 41.6 71.6333 43 73.5L62.2 100L59.4 99.6L77.1 73.7C78.5 71.7 80.1667 70.7 82.1 70.7ZM149.27 141C147.404 141 145.904 140.233 144.77 138.7L121.67 108.3L130.77 99L154.67 130.6C155.604 131.867 156.07 133.233 156.07 134.7C156.07 136.567 155.37 138.1 153.97 139.3C152.57 140.433 151.004 141 149.27 141ZM150.47 70.5C152.07 70.5 153.37 71.1667 154.37 72.5C155.437 73.7667 155.97 75.0667 155.97 76.4C155.97 77.8 155.37 79.1 154.17 80.3L112.27 120.4L111.77 106.1L145.57 72.8C147.104 71.2667 148.737 70.5 150.47 70.5ZM107.27 141C105.404 141 103.904 140.433 102.77 139.3C101.637 138.1 101.07 136.633 101.07 134.9V77.1C101.07 75.3667 101.67 73.9333 102.87 72.8C104.07 71.6 105.604 71 107.47 71C109.337 71 110.804 71.6 111.87 72.8C113.004 73.9333 113.57 75.3667 113.57 77.1V134.9C113.57 136.633 113.004 138.1 111.87 139.3C110.737 140.433 109.204 141 107.27 141ZM192.121 142C187.454 142 183.254 141.433 179.521 140.3C175.788 139.1 172.221 137.033 168.821 134.1C167.954 133.367 167.288 132.533 166.821 131.6C166.354 130.667 166.121 129.733 166.121 128.8C166.121 127.267 166.654 125.933 167.721 124.8C168.854 123.6 170.254 123 171.921 123C173.188 123 174.321 123.4 175.321 124.2C177.854 126.267 180.354 127.833 182.821 128.9C185.354 129.967 188.454 130.5 192.121 130.5C194.588 130.5 196.854 130.133 198.921 129.4C200.988 128.6 202.654 127.567 203.921 126.3C205.188 124.967 205.821 123.467 205.821 121.8C205.821 119.8 205.221 118.1 204.021 116.7C202.821 115.3 200.988 114.133 198.521 113.2C196.054 112.2 192.921 111.433 189.121 110.9C185.521 110.367 182.354 109.567 179.621 108.5C176.888 107.367 174.588 105.967 172.721 104.3C170.921 102.567 169.554 100.567 168.621 98.3C167.688 95.9667 167.221 93.3667 167.221 90.5C167.221 86.1667 168.321 82.4667 170.521 79.4C172.788 76.3333 175.821 74 179.621 72.4C183.421 70.8 187.621 70 192.221 70C196.554 70 200.554 70.6667 204.221 72C207.954 73.2667 210.988 74.9 213.321 76.9C215.254 78.4333 216.221 80.2 216.221 82.2C216.221 83.6667 215.654 85 214.521 86.2C213.388 87.4 212.054 88 210.521 88C209.521 88 208.621 87.7 207.821 87.1C206.754 86.1667 205.321 85.3 203.521 84.5C201.721 83.6333 199.821 82.9333 197.821 82.4C195.821 81.8 193.954 81.5 192.221 81.5C189.354 81.5 186.921 81.8667 184.921 82.6C182.988 83.3333 181.521 84.3333 180.521 85.6C179.521 86.8667 179.021 88.3333 179.021 90C179.021 92 179.588 93.6667 180.721 95C181.921 96.2667 183.621 97.3 185.821 98.1C188.021 98.8333 190.654 99.5 193.721 100.1C197.721 100.833 201.221 101.7 204.221 102.7C207.288 103.7 209.821 105 211.821 106.6C213.821 108.133 215.321 110.1 216.321 112.5C217.321 114.833 217.821 117.7 217.821 121.1C217.821 125.433 216.621 129.167 214.221 132.3C211.821 135.433 208.654 137.833 204.721 139.5C200.854 141.167 196.654 142 192.121 142ZM297.689 106C297.689 111 296.856 115.667 295.189 120C293.522 124.333 291.156 128.167 288.089 131.5C285.089 134.767 281.489 137.333 277.289 139.2C273.156 141.067 268.622 142 263.689 142C258.756 142 254.222 141.067 250.089 139.2C245.956 137.333 242.356 134.767 239.289 131.5C236.289 128.167 233.956 124.333 232.289 120C230.622 115.667 229.789 111 229.789 106C229.789 101 230.622 96.3333 232.289 92C233.956 87.6667 236.289 83.8667 239.289 80.6C242.356 77.2667 245.956 74.6667 250.089 72.8C254.222 70.9333 258.756 70 263.689 70C268.622 70 273.156 70.9333 277.289 72.8C281.489 74.6667 285.089 77.2667 288.089 80.6C291.156 83.8667 293.522 87.6667 295.189 92C296.856 96.3333 297.689 101 297.689 106ZM284.689 106C284.689 101.533 283.789 97.5 281.989 93.9C280.189 90.2333 277.722 87.3333 274.589 85.2C271.456 83.0667 267.822 82 263.689 82C259.556 82 255.922 83.0667 252.789 85.2C249.656 87.3333 247.189 90.2 245.389 93.8C243.656 97.4 242.789 101.467 242.789 106C242.789 110.467 243.656 114.533 245.389 118.2C247.189 121.8 249.656 124.667 252.789 126.8C255.922 128.933 259.556 130 263.689 130C267.822 130 271.456 128.933 274.589 126.8C277.722 124.667 280.189 121.8 281.989 118.2C283.789 114.533 284.689 110.467 284.689 106ZM319.468 141C317.601 141 316.068 140.433 314.868 139.3C313.735 138.1 313.168 136.633 313.168 134.9V77.1C313.168 75.3667 313.735 73.9333 314.868 72.8C316.068 71.6 317.535 71 319.268 71H351.768C353.501 71 354.935 71.5667 356.068 72.7C357.268 73.7667 357.868 75.1667 357.868 76.9C357.868 78.3667 357.268 79.6667 356.068 80.8C354.935 81.9333 353.501 82.5 351.768 82.5H324.768L325.668 81.3V101.4L324.968 100.1H347.268C349.001 100.1 350.435 100.667 351.568 101.8C352.768 102.867 353.368 104.267 353.368 106C353.368 107.467 352.768 108.767 351.568 109.9C350.435 111.033 349.001 111.6 347.268 111.6H324.768L325.668 110.7V134.9C325.668 136.633 325.035 138.1 323.768 139.3C322.568 140.433 321.135 141 319.468 141ZM398.485 141C396.618 141 395.085 140.433 393.885 139.3C392.685 138.1 392.085 136.633 392.085 134.9V76.9H405.085V134.9C405.085 136.633 404.452 138.1 403.185 139.3C401.985 140.433 400.418 141 398.485 141ZM376.385 82.5C374.652 82.5 373.185 81.9667 371.985 80.9C370.852 79.8333 370.285 78.4333 370.285 76.7C370.285 74.9667 370.852 73.6 371.985 72.6C373.185 71.5333 374.652 71 376.385 71H420.785C422.518 71 423.952 71.5333 425.085 72.6C426.285 73.6667 426.885 75.0667 426.885 76.8C426.885 78.5333 426.285 79.9333 425.085 81C423.952 82 422.518 82.5 420.785 82.5H376.385Z" fill="white"/>
</svg>
