<svg width="429" height="200" viewBox="0 0 429 200" fill="none" xmlns="http://www.w3.org/2000/svg">
<path d="M53.422 107.386L28.432 68.97H41.564L58.91 97.39L76.256 68.97H89.29L64.398 107.582V141H53.422V107.386ZM115.933 108.758L110.053 116.01V141H99.273V68.97H110.053V101.114L134.749 68.97H147.881L123.087 100.624L151.409 141H137.983L115.933 108.758ZM178.038 141.98C174.118 141.98 170.231 141.294 166.376 139.922C162.522 138.55 159.745 137.015 158.046 135.316L163.24 126.006C164.612 127.247 166.736 128.554 169.61 129.926C172.55 131.233 175.36 131.886 178.038 131.886C181.501 131.886 184.31 131.069 186.466 129.436C188.688 127.803 189.798 125.549 189.798 122.674C189.798 120.453 189.21 118.525 188.034 116.892C186.858 115.259 185.421 113.919 183.722 112.874C182.024 111.763 179.606 110.424 176.47 108.856C172.746 107.027 170.198 105.655 168.826 104.74C162.489 100.493 159.32 94.6133 159.32 87.1C159.32 80.8933 161.378 76.1567 165.494 72.89C169.61 69.558 174.804 67.892 181.076 67.892C187.806 67.892 193.522 69.8193 198.226 73.674L193.032 82.592C191.791 81.2853 190.027 80.1747 187.74 79.26C185.519 78.28 183.134 77.79 180.586 77.79C177.32 77.79 174.739 78.5413 172.844 80.044C171.015 81.4813 170.1 83.6373 170.1 86.512C170.1 88.5373 170.688 90.3667 171.864 92C173.04 93.568 174.51 94.94 176.274 96.116C178.104 97.292 180.554 98.7293 183.624 100.428C186.564 102.061 188.818 103.368 190.386 104.348C191.954 105.263 193.424 106.373 194.796 107.68C196.691 109.379 198.226 111.404 199.402 113.756C200.578 116.108 201.166 118.689 201.166 121.498C201.166 125.875 200.154 129.599 198.128 132.67C196.168 135.741 193.424 138.06 189.896 139.628C186.434 141.196 182.481 141.98 178.038 141.98ZM250.008 141.98C243.475 141.98 237.432 140.477 231.878 137.472C226.39 134.401 222.013 130.057 218.746 124.438C215.48 118.819 213.846 112.286 213.846 104.838C213.846 97.3247 215.48 90.7913 218.746 85.238C222.013 79.6193 226.39 75.3073 231.878 72.302C237.432 69.2967 243.475 67.794 250.008 67.794C256.542 67.794 262.552 69.2967 268.04 72.302C273.594 75.3073 278.004 79.6193 281.27 85.238C284.537 90.7913 286.17 97.3247 286.17 104.838C286.17 112.286 284.537 118.819 281.27 124.438C278.004 130.057 273.594 134.401 268.04 137.472C262.552 140.477 256.542 141.98 250.008 141.98ZM250.008 132.082C254.516 132.082 258.632 131.037 262.356 128.946C266.08 126.79 269.02 123.687 271.176 119.636C273.398 115.52 274.508 110.62 274.508 104.936C274.508 99.1867 273.398 94.2867 271.176 90.236C269.02 86.12 266.08 83.0167 262.356 80.926C258.698 78.8353 254.582 77.79 250.008 77.79C245.435 77.79 241.286 78.8353 237.562 80.926C233.838 83.0167 230.898 86.12 228.742 90.236C226.586 94.2867 225.508 99.1867 225.508 104.936C225.508 110.62 226.619 115.52 228.84 119.636C231.062 123.687 234.034 126.79 237.758 128.946C241.548 131.037 245.631 132.082 250.008 132.082ZM302.246 68.97H336.056V78.476H313.124V98.86H330.96V108.464H313.124V141H302.246V68.97ZM365.73 78.574H347.306V68.97H395.228V78.574H376.608V141H365.73V78.574Z" fill="white"/>
</svg>
