<svg width="467" height="200" viewBox="0 0 467 200" fill="none" xmlns="http://www.w3.org/2000/svg">
<path d="M75.7 71L69.6 82.3L63.5 93.7L57.4 82.3L51.2 71H30.7V73.1L54 112.2V141H72.9V112.4L96.3 73.3V71H75.7ZM164.395 73.1V71H143.895L126.595 98V71H107.695V141H126.595V113.8L144.395 141H165.795V138.9L142.695 105.3L164.395 73.1ZM200.35 142C216.05 142 227.75 134.1 227.75 119.5C227.75 106.1 217.85 100 203.25 97.9C194.45 96.5 191.55 95 191.55 91.6C191.55 88.2 194.45 86.3 199.55 86.3C204.65 86.3 207.65 88.5 208.25 92.6H226.45C225.45 78.6 215.15 69.9 199.75 69.9C184.25 69.9 173.05 78 173.05 92.1C173.05 105.5 182.75 111 196.95 113.2C205.65 114.6 208.95 116.5 208.95 120.1C208.95 123.3 205.75 125.4 200.35 125.4C194.35 125.4 191.15 123 190.75 118.3H172.25C172.95 133.6 183.65 142 200.35 142ZM274.585 142.3C296.085 142.3 311.485 127.1 311.485 106C311.485 84.9 296.085 69.7 274.585 69.7C252.985 69.7 237.585 84.9 237.585 106C237.585 127.1 252.985 142.3 274.585 142.3ZM274.585 124.3C264.385 124.3 256.885 116.7 256.885 106C256.885 95.3 264.385 87.7 274.585 87.7C284.785 87.7 292.185 95.3 292.185 106C292.185 116.7 284.785 124.3 274.585 124.3ZM369.654 71H325.554V141H344.354V117.1H367.454V100.2H344.354V88H369.654V71ZM379.834 71V88.2H397.434V141H416.334V88.2H433.834V71H379.834Z" fill="white"/>
</svg>
