<svg width="465" height="200" viewBox="0 0 465 200" fill="none" xmlns="http://www.w3.org/2000/svg">
<path d="M31.1719 73.4141H41.4258L60 109.391L78.5742 73.4141H88.8281L64.8047 119.586V149H55.1953V119.586L31.1719 73.4141ZM114.019 149H104.409V73.4141H114.019V149ZM114.019 110.621L143.374 73.4141H154.8L124.8 110.621L157.202 149H145.777L114.019 110.621ZM166.748 93.2188C166.748 90.6406 167.354 88.1406 168.565 85.7188C169.776 83.2578 171.475 81.0703 173.663 79.1562C175.85 77.2422 178.448 75.7188 181.455 74.5859C184.463 73.4141 187.764 72.8281 191.358 72.8281C194.639 72.8281 197.686 73.4336 200.498 74.6445C203.35 75.8164 205.83 77.418 207.94 79.4492C210.088 81.4805 211.748 83.9023 212.92 86.7148C214.131 89.5273 214.737 92.4961 214.737 95.6211H205.186C205.186 91.3633 203.858 87.9062 201.202 85.25C198.545 82.5547 195.264 81.207 191.358 81.207C189.131 81.207 187.08 81.5586 185.205 82.2617C183.37 82.9258 181.788 83.8242 180.459 84.957C179.17 86.0508 178.155 87.3203 177.413 88.7656C176.709 90.2109 176.358 91.6953 176.358 93.2188C176.358 96.3438 177.354 98.7656 179.346 100.484C181.338 102.203 183.819 103.648 186.788 104.82C189.756 105.953 192.979 107.027 196.455 108.043C199.932 109.02 203.155 110.328 206.123 111.969C209.092 113.609 211.573 115.777 213.565 118.473C215.557 121.129 216.553 124.703 216.553 129.195C216.553 131.93 215.967 134.527 214.795 136.988C213.663 139.41 212.002 141.559 209.815 143.434C207.666 145.309 205.03 146.812 201.905 147.945C198.78 149.039 195.264 149.586 191.358 149.586C187.452 149.586 183.936 149.039 180.811 147.945C177.686 146.812 175.03 145.23 172.842 143.199C170.694 141.129 169.034 138.707 167.862 135.934C166.729 133.121 166.163 130.074 166.163 126.793H175.772C175.772 131.363 177.08 134.918 179.698 137.457C182.354 139.957 186.241 141.207 191.358 141.207C196.475 141.207 200.342 140.055 202.959 137.75C205.616 135.406 206.944 132.555 206.944 129.195C206.944 126.07 205.948 123.648 203.955 121.93C201.963 120.211 199.483 118.785 196.514 117.652C193.545 116.48 190.323 115.406 186.846 114.43C183.37 113.414 180.147 112.086 177.178 110.445C174.248 108.805 171.768 106.656 169.737 104C167.745 101.305 166.748 97.7109 166.748 93.2188ZM239.4 111.207C239.4 115.543 240.103 119.547 241.509 123.219C242.955 126.891 244.869 130.074 247.252 132.77C249.673 135.426 252.447 137.496 255.572 138.98C258.697 140.465 261.9 141.207 265.181 141.207C268.462 141.207 271.666 140.465 274.791 138.98C277.916 137.496 280.67 135.426 283.052 132.77C285.435 130.074 287.349 126.891 288.795 123.219C290.24 119.508 290.962 115.504 290.962 111.207C290.962 106.871 290.24 102.867 288.795 99.1953C287.349 95.5234 285.435 92.3594 283.052 89.7031C280.67 87.0078 277.916 84.918 274.791 83.4336C271.666 81.9492 268.462 81.207 265.181 81.207C261.9 81.207 258.697 81.9492 255.572 83.4336C252.447 84.918 249.673 87.0078 247.252 89.7031C244.869 92.3594 242.955 95.5234 241.509 99.1953C240.103 102.867 239.4 106.871 239.4 111.207ZM300.572 111.207C300.572 116.637 299.595 121.676 297.642 126.324C295.689 130.973 293.091 135.035 289.849 138.512C286.607 141.988 282.837 144.703 278.541 146.656C274.283 148.609 269.83 149.586 265.181 149.586C260.533 149.586 256.06 148.609 251.763 146.656C247.505 144.703 243.755 141.988 240.513 138.512C237.271 135.035 234.673 130.973 232.72 126.324C230.767 121.676 229.791 116.637 229.791 111.207C229.791 105.855 230.767 100.836 232.72 96.1484C234.673 91.4609 237.271 87.3789 240.513 83.9023C243.755 80.4258 247.505 77.7109 251.763 75.7578C256.06 73.8047 260.533 72.8281 265.181 72.8281C269.83 72.8281 274.283 73.8047 278.541 75.7578C282.837 77.7109 286.607 80.4258 289.849 83.9023C293.091 87.3789 295.689 91.4609 297.642 96.1484C299.595 100.836 300.572 105.855 300.572 111.207ZM328.809 81.793V106.988H358.809V115.426H328.809V149H319.2V73.4141H365.372V81.793H328.809ZM432.574 81.793H409.781V149H400.172V81.793H377.379V73.4141H432.574V81.793Z" fill="white"/>
</svg>
