<svg width="469" height="200" viewBox="0 0 469 200" fill="none" xmlns="http://www.w3.org/2000/svg">
<path d="M56.244 112.704L30.864 70.908H42.852L61.536 103.848L80.22 70.908H92.208L66.72 112.38V141H56.244V112.704ZM106.462 70.908H116.938V141H106.462V70.908ZM117.154 103.74L148.474 70.908H161.11L129.574 103.308L164.242 141H150.634L117.154 103.74ZM196.791 142.08C190.815 142.08 183.687 141.504 175.407 140.352V131.604C183.759 133.404 191.103 134.304 197.439 134.304C202.767 134.304 206.655 133.728 209.103 132.576C211.551 131.352 212.775 129.12 212.775 125.88V116.808C212.775 113.784 211.911 111.66 210.183 110.436C208.455 109.212 205.431 108.6 201.111 108.6H192.903C186.063 108.6 181.203 107.232 178.323 104.496C175.443 101.76 174.003 97.512 174.003 91.752V86.136C174.003 82.32 174.831 79.224 176.487 76.848C178.215 74.472 181.059 72.708 185.019 71.556C189.051 70.404 194.559 69.828 201.543 69.828C206.223 69.828 212.235 70.224 219.579 71.016V78.9C211.371 77.676 205.107 77.064 200.787 77.064C194.091 77.064 189.663 77.712 187.503 79.008C185.271 80.376 184.155 82.644 184.155 85.812V93.804C184.155 96.252 185.019 98.052 186.747 99.204C188.547 100.284 191.607 100.824 195.927 100.824H204.351C209.175 100.824 212.919 101.4 215.583 102.552C218.319 103.704 220.227 105.468 221.307 107.844C222.459 110.148 223.035 113.28 223.035 117.24V122.316C223.035 127.284 222.099 131.208 220.227 134.088C218.427 136.968 215.619 139.02 211.803 140.244C207.987 141.468 202.983 142.08 196.791 142.08ZM269.835 142.08C250.251 142.08 240.459 135.744 240.459 123.072V89.916C240.459 76.524 250.251 69.828 269.835 69.828C289.635 69.828 299.535 76.488 299.535 89.808V123.072C299.535 129.84 296.799 134.7 291.327 137.652C285.855 140.604 278.691 142.08 269.835 142.08ZM270.051 135.06C282.939 135.06 289.383 131.028 289.383 122.964V89.592C289.383 80.952 282.903 76.632 269.943 76.632C263.679 76.632 258.855 77.604 255.471 79.548C252.159 81.492 250.503 84.84 250.503 89.592V122.964C250.503 131.028 257.019 135.06 270.051 135.06ZM320.024 70.908H368.192V78.252H330.5V101.148H364.628V108.492H330.5V141H320.024V70.908ZM402.057 78.252H378.297V70.908H436.293V78.252H412.641V141H402.057V78.252Z" fill="white"/>
</svg>
