<svg width="460" height="200" viewBox="0 0 460 200" fill="none" xmlns="http://www.w3.org/2000/svg">
<path d="M47.7246 65.0039H29.3164L57.3438 108.168V136H72.9199V108.217L100.947 65.0039H83.2227L65.5469 93.2754H65.1562L47.7246 65.0039ZM150.016 136H168.473L142.252 92.5918L167.887 65.0039H148.307L124.283 91.6152H123.648V65.0039H108.219V136H123.648V110.951L130.338 103.725H130.973L150.016 136ZM174.963 84.3887C174.963 94.1055 180.969 100.893 191.662 104.408L202.6 108.021C207.775 109.73 209.729 111.928 209.729 115.688C209.729 121.01 205.285 123.793 198.449 123.793C190.734 123.793 185.852 120.375 181.408 113.881L170.031 122.865C176.623 132.729 184.826 136.977 197.668 136.977C214.27 136.977 225.061 128.285 225.061 114.809C225.061 105.238 219.787 98.6465 207.971 94.6426L196.887 90.8828C191.564 89.0762 189.855 87.0254 189.855 83.6562C189.855 79.5547 192.932 77.2109 198.254 77.2109C203.43 77.2109 207.287 79.457 210.559 83.998L221.35 75.3555C215.832 67.7871 208.459 64.0273 198.254 64.0273C184.289 64.0273 174.963 72.3281 174.963 84.3887ZM268.758 136.977C290.242 136.977 306.062 122.279 306.062 100.6C306.062 78.9199 290.193 64.0273 268.758 64.0273C247.322 64.0273 231.746 78.8711 231.746 100.6C231.746 122.328 247.273 136.977 268.758 136.977ZM268.758 122.816C256.355 122.816 247.713 113.832 247.713 100.6C247.713 87.3672 256.404 78.1875 268.758 78.1875C281.16 78.1875 290.096 87.4648 290.096 100.6C290.096 113.734 281.209 122.816 268.758 122.816ZM363.627 79.2129V65.0039H316.312V136H331.742V111.83H351.811V98.207H331.742V79.2129H363.627ZM371.191 79.1641H392.236V136H407.861V79.1641H428.906V65.0039H371.191V79.1641Z" fill="white"/>
</svg>
