<svg width="503" height="200" viewBox="0 0 503 200" fill="none" xmlns="http://www.w3.org/2000/svg">
<path d="M84.8 71L69.4 96.4L54 71H33.6L59.2 113.3V140.9H79.6V113.3L105.2 71H84.8ZM182.206 71H157.906L136.906 95.1V71.1H116.506V140.9H136.906V121.5L142.506 115.2L160.506 141.1H182.206L154.706 101.6L182.206 71ZM244.073 102.2C239.273 98 232.673 95.8 225.173 95.8H215.073C210.673 95.8 208.873 94.3 208.873 93.6C208.873 92.9 210.673 91.4 215.073 91.4H248.373V71H215.073C207.573 71 200.973 73.2 196.173 77.3C191.273 81.5 188.573 87.4 188.573 93.6C188.573 99.8 191.273 105.7 196.173 109.9C200.973 114 207.573 116.2 215.073 116.2H225.173C229.473 116.2 231.373 117.7 231.373 118.4C231.373 119.2 229.473 120.7 225.173 120.7H191.573V141.1H225.173C232.673 141.1 239.273 138.9 244.073 134.7C248.973 130.6 251.773 124.6 251.773 118.4C251.773 112.3 248.973 106.3 244.073 102.2ZM298.08 71.1C278.68 71.1 263.08 86.7 263.08 106.1C263.08 125.4 278.68 141.1 298.08 141.1C317.38 141.1 333.08 125.4 333.08 106.1C333.08 86.7 317.38 71.1 298.08 71.1ZM298.08 120.7C289.98 120.7 283.38 114.2 283.38 106.1C283.38 98 289.98 91.4 298.08 91.4C306.08 91.4 312.68 98 312.68 106.1C312.68 114.2 306.08 120.7 298.08 120.7ZM395.624 86.3V71.1H344.424V140.9H364.824V113.8H393.424V98.5H364.824V86.3H395.624ZM406.92 71.1V89H427.62V140.9H448.02V89H468.82V71.1H406.92Z" fill="white"/>
</svg>
