<svg width="362" height="200" viewBox="0 0 362 200" fill="none" xmlns="http://www.w3.org/2000/svg">
<path d="M73.3525 71V111.746C73.3525 112.162 73.1404 112.553 72.7164 112.918C72.3147 113.284 71.7567 113.602 71.0426 113.874C70.3284 114.146 69.4915 114.362 68.5318 114.524C67.5721 114.677 66.5455 114.753 65.4519 114.753H61.8699V141H41.4825V114.753H37.9005C36.807 114.753 35.7803 114.677 34.8207 114.524C33.861 114.362 33.0241 114.146 32.3099 113.874C31.5957 113.602 31.0266 113.284 30.6026 112.918C30.2009 112.553 30 112.162 30 111.746V71H50.3539V108.752H52.9986V71H73.3525Z" fill="white"/>
<path d="M126.69 102.369C126.69 102.785 126.478 103.176 126.054 103.541C125.652 103.906 125.094 104.225 124.38 104.497C123.666 104.768 122.829 104.985 121.869 105.146C120.932 105.299 119.916 105.376 118.823 105.376C119.916 105.376 120.932 105.456 121.869 105.618C122.829 105.771 123.666 105.983 124.38 106.255C125.094 106.527 125.652 106.845 126.054 107.21C126.478 107.576 126.69 107.966 126.69 108.383V141H106.336V108.383H103.691V141H83.3373V71H103.691V102.369H106.336V71H126.69V102.369Z" fill="white"/>
<path d="M159.673 101.375V77.0011H157.028V102.369H180.027V137.993C180.027 138.409 179.815 138.8 179.391 139.165C178.989 139.531 178.431 139.849 177.717 140.121C177.003 140.393 176.166 140.609 175.206 140.771C174.247 140.924 173.22 141 172.126 141H144.575C143.481 141 142.455 140.924 141.495 140.771C140.535 140.609 139.699 140.393 138.984 140.121C138.27 139.849 137.701 139.531 137.277 139.165C136.875 138.8 136.675 138.409 136.675 137.993V109.376H157.028V134.999H159.673V108.383H136.675V73.9942C136.675 73.578 136.875 73.1915 137.277 72.8347C137.701 72.4695 138.27 72.151 138.984 71.8791C139.699 71.6073 140.535 71.395 141.495 71.2421C142.455 71.0807 143.481 71 144.575 71H172.126C173.22 71 174.247 71.0807 175.206 71.2421C176.166 71.395 177.003 71.6073 177.717 71.8791C178.431 72.151 178.989 72.4695 179.391 72.8347C179.815 73.1915 180.027 73.578 180.027 73.9942V101.375H159.673Z" fill="white"/>
<path d="M210.366 134.999H213.01V77.0011H210.366V134.999ZM233.364 137.993C233.364 138.409 233.152 138.8 232.728 139.165C232.326 139.531 231.768 139.849 231.054 140.121C230.34 140.393 229.503 140.609 228.544 140.771C227.584 140.924 226.557 141 225.464 141H197.912C196.819 141 195.792 140.924 194.832 140.771C193.873 140.609 193.036 140.393 192.322 140.121C191.607 139.849 191.038 139.531 190.614 139.165C190.213 138.8 190.012 138.409 190.012 137.993V73.9942C190.012 73.578 190.213 73.1915 190.614 72.8347C191.038 72.4695 191.607 72.151 192.322 71.8791C193.036 71.6073 193.873 71.395 194.832 71.2421C195.792 71.0807 196.819 71 197.912 71H225.464C226.557 71 227.584 71.0807 228.544 71.2421C229.503 71.395 230.34 71.6073 231.054 71.8791C231.768 72.151 232.326 72.4695 232.728 72.8347C233.152 73.1915 233.364 73.578 233.364 73.9942V137.993Z" fill="white"/>
<path d="M266.348 77.0011H263.703V102.369H266.348V108.383H263.703V141H243.349V71H266.348V77.0011Z" fill="white"/>
<path d="M302 77.0011H299.389V141H279.001V77.0011H276.39V71H302V77.0011Z" fill="white"/>
</svg>
