<svg width="315" height="200" viewBox="0 0 315 200" fill="none" xmlns="http://www.w3.org/2000/svg">
<path d="M45.895 116.69L31.02 72.15H39.945L50.485 105.385L60.855 72.15H69.865L55.075 116.69V141H45.895V116.69ZM79.6779 72.15H89.2829V104.62L105.093 72.15H114.018L100.418 102.495L116.228 141H106.878L93.7029 108.7L89.2829 116.69V141H79.6779V72.15ZM141.398 141.765C135.618 141.765 131.198 139.98 128.138 136.41C125.134 132.84 123.463 127.938 123.123 121.705L131.623 119.41C131.906 123.83 132.756 127.4 134.173 130.12C135.646 132.84 138.054 134.2 141.398 134.2C143.891 134.2 145.761 133.52 147.008 132.16C148.311 130.743 148.963 128.732 148.963 126.125C148.963 123.292 148.368 120.94 147.178 119.07C145.988 117.2 144.089 115.132 141.483 112.865L129.923 102.665C127.599 100.625 125.899 98.4433 124.823 96.12C123.803 93.74 123.293 90.85 123.293 87.45C123.293 82.4067 124.738 78.4967 127.628 75.72C130.518 72.9433 134.456 71.555 139.443 71.555C144.883 71.555 148.991 73 151.768 75.89C154.544 78.78 156.216 83.2567 156.783 89.32L148.623 91.53C148.339 87.5067 147.546 84.4183 146.243 82.265C144.996 80.055 142.729 78.95 139.443 78.95C137.006 78.95 135.136 79.6017 133.833 80.905C132.529 82.1517 131.878 84.0217 131.878 86.515C131.878 88.555 132.218 90.2833 132.898 91.7C133.578 93.06 134.739 94.4483 136.383 95.865L148.028 106.065C151.031 108.728 153.411 111.618 155.168 114.735C156.981 117.852 157.888 121.393 157.888 125.36C157.888 130.403 156.358 134.398 153.298 137.345C150.238 140.292 146.271 141.765 141.398 141.765ZM186.334 141.765C179.59 141.765 174.745 139.867 171.799 136.07C168.909 132.217 167.464 126.663 167.464 119.41V93.315C167.464 86.175 168.937 80.7633 171.884 77.08C174.83 73.3967 179.647 71.555 186.334 71.555C193.02 71.555 197.809 73.425 200.699 77.165C203.645 80.8483 205.119 86.2317 205.119 93.315V119.495C205.119 126.635 203.645 132.132 200.699 135.985C197.752 139.838 192.964 141.765 186.334 141.765ZM186.334 134.2C189.904 134.2 192.312 133.152 193.559 131.055C194.805 128.958 195.429 125.785 195.429 121.535V91.36C195.429 87.1667 194.805 84.0783 193.559 82.095C192.312 80.055 189.904 79.035 186.334 79.035C182.707 79.035 180.27 80.055 179.024 82.095C177.777 84.0783 177.154 87.1667 177.154 91.36V121.535C177.154 125.785 177.777 128.958 179.024 131.055C180.27 133.152 182.707 134.2 186.334 134.2ZM217.959 72.15H244.564V79.035H227.564V101.985H240.739V108.785H227.564V141H217.959V72.15ZM262.127 79.29H250.482V72.15H283.037V79.29H271.732V141H262.127V79.29Z" fill="white"/>
</svg>
