<svg width="465" height="200" viewBox="0 0 465 200" fill="none" xmlns="http://www.w3.org/2000/svg">
<path d="M76.2476 72.626H92.4365L69.5679 115.302V141H55.2808V115.302L31.6235 72.626H48.4619L62.6562 102.406L76.2476 72.626ZM104.633 72.626H118.688V100.783L145.082 72.626H163.544L135.526 100.783L164.982 141H146.613L125.507 111.127L118.688 118.131V141H104.633V72.626ZM187.197 119.894C187.63 123.017 188.481 125.352 189.748 126.898C192.068 129.713 196.042 131.12 201.67 131.12C205.041 131.12 207.777 130.749 209.88 130.006C213.87 128.584 215.864 125.94 215.864 122.074C215.864 119.817 214.875 118.069 212.895 116.833C210.916 115.626 207.808 114.56 203.572 113.632L196.335 112.008C189.223 110.4 184.306 108.653 181.584 106.767C176.977 103.612 174.673 98.6799 174.673 91.9692C174.673 85.8462 176.899 80.7591 181.352 76.708C185.806 72.6569 192.346 70.6313 200.974 70.6313C208.179 70.6313 214.318 72.5487 219.39 76.3833C224.492 80.187 227.167 85.7225 227.414 92.9897H213.684C213.437 88.8768 211.643 85.9544 208.303 84.2227C206.077 83.0785 203.309 82.5063 200 82.5063C196.32 82.5063 193.382 83.2485 191.186 84.7329C188.991 86.2173 187.893 88.2892 187.893 90.9487C187.893 93.3918 188.975 95.2163 191.14 96.4224C192.532 97.2264 195.5 98.1696 200.046 99.252L211.829 102.082C216.993 103.319 220.889 104.973 223.518 107.045C227.6 110.261 229.641 114.915 229.641 121.007C229.641 127.254 227.244 132.449 222.451 136.593C217.689 140.706 210.947 142.763 202.226 142.763C193.32 142.763 186.316 140.737 181.213 136.686C176.111 132.604 173.559 127.007 173.559 119.894H187.197ZM274.261 130.795C279.921 130.795 284.405 128.708 287.713 124.533C291.053 120.358 292.723 114.42 292.723 106.72C292.723 99.0509 291.053 93.1289 287.713 88.9541C284.405 84.7484 279.921 82.6455 274.261 82.6455C268.602 82.6455 264.087 84.7329 260.716 88.9077C257.346 93.0825 255.66 99.02 255.66 106.72C255.66 114.42 257.346 120.358 260.716 124.533C264.087 128.708 268.602 130.795 274.261 130.795ZM307.01 106.72C307.01 118.997 303.562 128.398 296.666 134.923C291.502 140.242 284.033 142.902 274.261 142.902C264.489 142.902 257.021 140.242 251.857 134.923C244.929 128.398 241.466 118.997 241.466 106.72C241.466 94.1958 244.929 84.7948 251.857 78.5171C257.021 73.1981 264.489 70.5386 274.261 70.5386C284.033 70.5386 291.502 73.1981 296.666 78.5171C303.562 84.7948 307.01 94.1958 307.01 106.72ZM321.758 72.7188H370.232V84.7329H335.952V100.458H365.964V112.333H335.952V141H321.758V72.7188ZM433.314 72.626V84.7329H412.857V141H398.478V84.7329H377.928V72.626H433.314Z" fill="white"/>
</svg>
