<svg width="494" height="200" viewBox="0 0 494 200" fill="none" xmlns="http://www.w3.org/2000/svg">
<path d="M61.76 178.26L106.7 79H89.62L68.2 128.56L46.64 79H29.7L59.8 145.22L44.82 178.26H61.76ZM123.026 149H138.426V115.12L171.886 149H191.626L153.406 110.22L184.626 79H165.166L138.426 105.6V44H123.026V149ZM255.628 129.68C255.628 119.04 249.608 111.76 237.008 108.54L225.248 105.46C219.368 103.92 215.868 101.54 215.868 97.06C215.868 92.58 220.208 89.92 226.088 89.92C231.548 89.92 236.168 92.72 237.568 98.6H252.968C251.848 86 241.348 77.6 226.228 77.6C210.548 77.6 200.188 85.44 200.188 97.2C200.188 107.42 206.068 115.26 218.108 118.34L229.588 121.42C236.868 123.24 239.948 125.9 239.948 130.66C239.948 135.42 235.328 138.08 228.608 138.08C221.748 138.08 215.448 135.28 214.188 127.72H198.228C199.068 141.72 211.808 150.4 228.188 150.4C243.868 150.4 255.628 143.26 255.628 129.68ZM345.144 114C345.144 93.7 329.184 77.6 308.464 77.6C287.744 77.6 271.784 93.7 271.784 114C271.784 134.3 287.744 150.4 308.464 150.4C329.184 150.4 345.144 134.3 345.144 114ZM287.324 114C287.324 101.54 296.004 91.88 308.464 91.88C320.784 91.88 329.464 101.54 329.464 114C329.464 126.46 320.784 136.12 308.464 136.12C296.004 136.12 287.324 126.46 287.324 114ZM371.582 149H386.982V92.72H404.482V79H386.982V69.06C386.982 60.38 390.762 57.16 398.742 57.16C401.682 57.16 404.762 57.72 407.002 58.56V44.84C404.062 43.86 400.282 43.16 395.522 43.16C382.082 43.16 371.582 50.72 371.582 66.4V79H357.022V92.72H371.582V149ZM459.082 148.16V134.44C456.842 135.28 453.902 135.7 450.822 135.7C442.982 135.7 439.062 132.62 439.062 123.94V92.72H459.082V79H439.062V59.54H423.662V79H411.762V92.72H423.662V126.46C423.662 142.28 434.302 149.7 447.602 149.7C452.362 149.7 456.002 149.14 459.082 148.16Z" fill="white"/>
</svg>
