<svg width="305" height="200" viewBox="0 0 305 200" fill="none" xmlns="http://www.w3.org/2000/svg">
<path d="M45.9 120.7V141.1H55V120.7H54.9V115.4L65.9 71H56.7L50.4 99.6L44.2 71H35L45.9 115.4V120.7ZM87.0625 108.7L101.563 141H111.363L95.7625 106.1L108.863 71H99.1625L87.0625 103.8V71H78.0625V141H87.0625V108.7ZM131.465 141H136.965C143.565 141 148.965 135.7 148.965 129V117.5C148.965 113.5 147.065 109.9 143.765 107.6L129.865 97.1H129.765C128.965 96.5 128.465 95.6 128.465 94.6V83.1C128.465 81.4 129.765 80.1 131.465 80.1H136.465C138.065 80.1 139.465 81.4 139.465 83.1V88.3H148.465V83.1C148.465 76.4 143.065 71 136.465 71H131.465C124.765 71 119.465 76.4 119.465 83.1V94.6C119.465 98.6 121.365 102.2 124.565 104.5L138.465 114.9L138.565 115H138.665C139.465 115.6 139.965 116.5 139.965 117.5V129C139.965 130.7 138.665 132 136.965 132H131.465C129.765 132 128.465 130.7 128.465 129V122.3H119.465V129C119.365 135.7 124.765 141 131.465 141ZM173.16 141H179.46C186.06 141 191.46 135.7 191.46 129V83.1C191.46 76.4 186.06 71 179.46 71H173.16C166.46 71 161.16 76.4 161.16 83.1V129C161.16 135.7 166.46 141 173.16 141ZM170.16 83.1C170.16 81.4 171.46 80.1 173.16 80.1H179.46C181.06 80.1 182.36 81.4 182.36 83.1V129C182.36 130.7 181.06 132 179.46 132H173.16C171.46 132 170.16 130.7 170.16 129V83.1ZM214.492 110.6L228.192 110.7V101.7L214.492 101.6V80.1H231.292V71H205.492V141H214.492V110.6ZM250.828 141H259.928V80.1H269.528V71H241.328V80.1H250.828V141Z" fill="white"/>
</svg>
