<svg width="574" height="200" viewBox="0 0 574 200" fill="none" xmlns="http://www.w3.org/2000/svg">
<path d="M113.7 75.66L111.99 78.27C105.57 88.23 100.05 97.05 95.43 104.73C90.87 112.35 87.06 119.37 84 125.79V141H60.51V124.26C58.29 119.76 55.68 115.14 52.68 110.4C49.68 105.6 45.42 99.03 39.9 90.69C35.58 84.33 32.28 79.32 30 75.66H55.2C57 79.32 59.94 84.75 64.02 91.95C68.1 99.27 70.89 104.43 72.39 107.43C74.49 103.05 77.31 97.68 80.85 91.32C84.99 83.88 87.78 78.66 89.22 75.66H113.7ZM169.082 141C166.262 135.9 161.582 128.1 155.042 117.6L144.512 128.04V141H122.102C122.582 129.36 122.822 118.47 122.822 108.33C122.822 98.19 122.582 87.3 122.102 75.66H144.512V102.03C155.552 91.11 163.412 82.32 168.092 75.66H197.252L168.902 103.74C173.102 109.62 177.812 116.01 183.032 122.91C188.312 129.81 193.082 135.84 197.342 141H169.082ZM208.144 133.26C210.184 130.2 211.864 127.35 213.184 124.71C214.564 122.07 215.884 119.01 217.144 115.53C221.404 117.99 226.354 119.91 231.994 121.29C237.634 122.67 242.884 123.36 247.744 123.36C252.724 123.36 256.234 122.94 258.274 122.1C260.314 121.2 261.334 120.24 261.334 119.22C261.334 115.56 255.754 113.73 244.594 113.73C232.354 113.73 223.474 112.47 217.954 109.95C212.434 107.37 209.674 103.23 209.674 97.53C209.674 89.43 213.034 83.46 219.754 79.62C226.474 75.78 235.204 73.86 245.944 73.86C252.184 73.86 258.574 74.67 265.114 76.29C271.714 77.85 277.654 80.01 282.934 82.77C281.194 86.73 279.364 91.56 277.444 97.26C277.084 98.46 276.784 99.36 276.544 99.96C273.484 97.5 268.864 95.46 262.684 93.84C256.504 92.16 251.044 91.32 246.304 91.32C240.604 91.32 236.764 91.71 234.784 92.49C232.804 93.21 231.814 94.29 231.814 95.73C231.814 97.17 233.164 98.34 235.864 99.24C238.624 100.08 242.584 100.5 247.744 100.5C260.464 100.5 269.704 101.97 275.464 104.91C281.224 107.79 284.104 112.23 284.104 118.23C284.104 126.63 281.044 132.69 274.924 136.41C268.804 140.07 259.534 141.9 247.114 141.9C240.454 141.9 233.674 141.18 226.774 139.74C219.874 138.24 213.664 136.08 208.144 133.26ZM334.938 141.9C321.198 141.9 311.088 138.93 304.608 132.99C298.128 126.99 294.888 118.59 294.888 107.79C294.888 97.11 298.098 88.77 304.518 82.77C310.998 76.77 321.138 73.77 334.938 73.77C348.798 73.77 358.938 76.77 365.358 82.77C371.838 88.77 375.078 97.11 375.078 107.79C375.078 118.65 371.868 127.05 365.448 132.99C359.028 138.93 348.858 141.9 334.938 141.9ZM334.938 123.54C341.598 123.54 346.398 122.28 349.338 119.76C352.278 117.18 353.748 113.19 353.748 107.79C353.748 102.51 352.278 98.58 349.338 96C346.398 93.42 341.598 92.13 334.938 92.13C328.338 92.13 323.568 93.42 320.628 96C317.688 98.58 316.218 102.51 316.218 107.79C316.218 113.13 317.688 117.09 320.628 119.67C323.568 122.25 328.338 123.54 334.938 123.54ZM456.052 92.49H407.092V101.94C410.152 102 414.742 102.03 420.862 102.03C431.422 102.03 442.162 101.85 453.082 101.49V119.13C442.162 118.71 430.642 118.5 418.522 118.5C413.482 118.5 409.672 118.53 407.092 118.59V141H385.852C386.332 129.36 386.572 118.47 386.572 108.33C386.572 98.19 386.332 87.3 385.852 75.66H456.052V92.49ZM539.711 94.56C530.291 94.26 521.141 94.08 512.261 94.02V141H489.761V94.02C480.821 94.08 471.701 94.26 462.401 94.56V75.66H539.711V94.56Z" fill="white"/>
</svg>
