<svg width="339" height="200" viewBox="0 0 339 200" fill="none" xmlns="http://www.w3.org/2000/svg">
<path d="M33.6 64.5H47.1V91.95C47.1 92.85 47.16 93.84 47.28 94.92C47.4 96 47.67 96.99 48.09 97.89C48.51 98.79 49.08 99.54 49.8 100.14C50.52 100.74 51.45 101.04 52.59 101.04C53.61 101.04 54.45 100.71 55.11 100.05C55.77 99.39 56.28 98.61 56.64 97.71C57 96.75 57.24 95.76 57.36 94.74C57.54 93.66 57.63 92.73 57.63 91.95C57.63 88.53 57.63 85.83 57.63 83.85C57.63 81.81 57.6 79.95 57.54 78.27C57.54 76.53 57.54 74.67 57.54 72.69C57.54 70.65 57.54 67.92 57.54 64.5H71.04V92.49C71.04 94.71 70.77 96.93 70.23 99.15C69.75 101.31 69 103.32 67.98 105.18C66.96 106.98 65.67 108.6 64.11 110.04C62.61 111.48 60.87 112.59 58.89 113.37V141H45.39V113.19C43.47 112.35 41.76 111.24 40.26 109.86C38.82 108.42 37.59 106.8 36.57 105C35.61 103.14 34.86 101.16 34.32 99.06C33.84 96.9 33.6 94.71 33.6 92.49V64.5ZM95.3484 64.41V101.04C96.9084 101.04 98.2884 100.98 99.4884 100.86C100.688 100.68 101.708 100.32 102.548 99.78C103.388 99.24 104.078 98.46 104.618 97.44C105.158 96.42 105.578 95.07 105.878 93.39V93.3C105.938 91.62 105.968 89.94 105.968 88.26C105.968 86.58 105.968 84.87 105.968 83.13C105.968 80.01 105.938 76.92 105.878 73.86C105.878 70.74 105.878 67.62 105.878 64.5H119.378V92.49C119.378 95.55 118.868 98.4 117.848 101.04C116.888 103.62 115.478 105.87 113.618 107.79C115.478 109.71 116.888 111.99 117.848 114.63C118.868 117.27 119.378 120.12 119.378 123.18V141H105.878C105.878 139.02 105.878 137.04 105.878 135.06C105.938 133.08 105.968 131.13 105.968 129.21C105.968 128.25 105.968 127.08 105.968 125.7C106.028 124.26 105.998 123.12 105.878 122.28C105.398 119.58 104.438 117.63 102.998 116.43C101.558 115.17 99.4884 114.54 96.7884 114.54C96.5484 114.54 96.3084 114.54 96.0684 114.54C95.8884 114.54 95.6484 114.57 95.3484 114.63V141H81.8484V64.41H95.3484ZM153.225 114.09C152.685 113.07 151.725 112.23 150.345 111.57C149.025 110.91 147.495 110.22 145.755 109.5C144.075 108.72 142.305 107.82 140.445 106.8C138.645 105.78 136.965 104.43 135.405 102.75C133.905 101.07 132.645 98.94 131.625 96.36C130.665 93.78 130.185 90.54 130.185 86.64C130.185 83.82 130.575 81.09 131.355 78.45C132.195 75.81 133.395 73.47 134.955 71.43C136.575 69.33 138.555 67.65 140.895 66.39C143.235 65.13 145.935 64.5 148.995 64.5C150.975 64.5 152.865 64.86 154.665 65.58C156.525 66.24 158.205 67.17 159.705 68.37C161.205 69.51 162.525 70.89 163.665 72.51C164.805 74.07 165.705 75.78 166.365 77.64C166.845 79.08 167.175 80.55 167.355 82.05C167.595 83.55 167.745 85.08 167.805 86.64H154.305C154.305 85.86 154.215 84.99 154.035 84.03C153.855 83.01 153.555 82.05 153.135 81.15C152.715 80.25 152.175 79.5 151.515 78.9C150.855 78.3 150.015 78 148.995 78C147.915 78 147.045 78.3 146.385 78.9C145.725 79.5 145.185 80.25 144.765 81.15C144.345 81.99 144.045 82.92 143.865 83.94C143.745 84.9 143.685 85.8 143.685 86.64C143.685 88.02 143.835 89.4 144.135 90.78C144.435 92.16 145.095 93.36 146.115 94.38C146.955 95.22 148.125 95.97 149.625 96.63C151.125 97.23 152.415 97.77 153.495 98.25C158.235 100.35 161.775 102.99 164.115 106.17C166.515 109.35 167.715 113.61 167.715 118.95C167.715 120.99 167.475 123.03 166.995 125.07C166.575 127.11 165.885 129.03 164.925 130.83C164.025 132.63 162.855 134.28 161.415 135.78C159.975 137.22 158.295 138.39 156.375 139.29C155.175 139.83 153.945 140.28 152.685 140.64C151.485 140.94 150.225 141.09 148.905 141.09C146.865 141.09 144.945 140.76 143.145 140.1C141.345 139.44 139.695 138.54 138.195 137.4C136.695 136.26 135.375 134.88 134.235 133.26C133.155 131.64 132.285 129.9 131.625 128.04C131.145 126.54 130.785 125.04 130.545 123.54C130.365 122.04 130.245 120.51 130.185 118.95H143.685C143.685 119.73 143.745 120.63 143.865 121.65C144.045 122.67 144.315 123.63 144.675 124.53C145.095 125.37 145.635 126.09 146.295 126.69C146.955 127.29 147.825 127.59 148.905 127.59C149.265 127.59 149.745 127.47 150.345 127.23C151.125 126.87 151.755 126.39 152.235 125.79C152.715 125.13 153.105 124.44 153.405 123.72C153.705 122.94 153.915 122.16 154.035 121.38C154.155 120.54 154.215 119.73 154.215 118.95C154.215 118.17 154.155 117.36 154.035 116.52C153.915 115.62 153.645 114.81 153.225 114.09ZM178.521 83.22C178.521 80.46 179.001 77.94 179.961 75.66C180.921 73.38 182.241 71.43 183.921 69.81C185.601 68.13 187.581 66.84 189.861 65.94C192.201 64.98 194.721 64.5 197.421 64.5C200.121 64.5 202.611 64.98 204.891 65.94C207.171 66.84 209.121 68.13 210.741 69.81C212.421 71.43 213.711 73.41 214.611 75.75C215.571 78.03 216.051 80.52 216.051 83.22V122.37C216.051 125.13 215.571 127.65 214.611 129.93C213.651 132.21 212.331 134.19 210.651 135.87C208.971 137.49 206.961 138.75 204.621 139.65C202.341 140.55 199.851 141 197.151 141C194.451 141 191.961 140.55 189.681 139.65C187.401 138.69 185.421 137.4 183.741 135.78C182.121 134.1 180.831 132.12 179.871 129.84C178.971 127.56 178.521 125.07 178.521 122.37V83.22ZM192.021 122.37C192.021 125.79 193.731 127.5 197.151 127.5C200.751 127.5 202.551 125.79 202.551 122.37V83.22C202.551 79.74 200.841 78 197.421 78C195.681 78 194.331 78.42 193.371 79.26C192.471 80.1 192.021 81.42 192.021 83.22V122.37ZM227.037 141C226.977 131.88 226.917 122.82 226.857 113.82C226.857 104.76 226.857 95.67 226.857 86.55C226.857 83.31 227.397 80.34 228.477 77.64C229.557 74.94 231.057 72.63 232.977 70.71C234.957 68.73 237.297 67.2 239.997 66.12C242.697 65.04 245.667 64.5 248.907 64.5H257.457V78C256.437 78 255.387 78 254.307 78C253.227 77.94 252.177 77.91 251.157 77.91C249.657 77.91 248.247 78.03 246.927 78.27C245.607 78.45 244.467 78.87 243.507 79.53C242.547 80.13 241.767 81 241.167 82.14C240.627 83.28 240.357 84.75 240.357 86.55V101.04H253.497V114.54H240.447C240.447 118.98 240.447 123.39 240.447 127.77C240.507 132.15 240.537 136.56 240.537 141H227.037ZM268.25 64.5H304.7V78H293.18V141H279.68V78H268.25V64.5Z" fill="white"/>
</svg>
