<svg width="430" height="200" viewBox="0 0 430 200" fill="none" xmlns="http://www.w3.org/2000/svg">
<path d="M57.4189 106.021L76.0811 71.041H84.8857L61.5342 113.868V141H53.3037V114.251L30 71.041H38.9004L57.4189 106.021ZM149.003 141H139.433L113.928 107.073L106.607 113.581V141H98.4718V71.041H106.607V105.733L138.332 71.041H147.95L119.814 101.427L149.003 141ZM202.067 122.386C202.067 128.543 199.833 133.344 195.367 136.789C190.901 140.234 184.84 141.957 177.184 141.957C168.889 141.957 162.509 140.888 158.043 138.751V130.903C160.914 132.116 164.041 133.073 167.422 133.774C170.804 134.476 174.153 134.827 177.471 134.827C182.894 134.827 186.977 133.806 189.721 131.765C192.464 129.691 193.836 126.82 193.836 123.151C193.836 120.727 193.342 118.749 192.353 117.218C191.396 115.655 189.769 114.219 187.472 112.911C185.207 111.603 181.746 110.12 177.088 108.461C170.58 106.132 165.923 103.373 163.115 100.183C160.34 96.9925 158.952 92.8294 158.952 87.6934C158.952 82.3021 160.978 78.0114 165.029 74.8213C169.081 71.6312 174.44 70.0361 181.108 70.0361C188.062 70.0361 194.458 71.3122 200.296 73.8643L197.76 80.9463C191.986 78.5218 186.371 77.3096 180.916 77.3096C176.61 77.3096 173.244 78.2347 170.819 80.085C168.395 81.9352 167.183 84.5033 167.183 87.7891C167.183 90.2135 167.629 92.2074 168.523 93.7705C169.416 95.3018 170.915 96.7214 173.021 98.0293C175.158 99.3053 178.412 100.725 182.782 102.288C190.12 104.904 195.16 107.711 197.903 110.71C200.679 113.709 202.067 117.601 202.067 122.386ZM281.018 105.925C281.018 117.122 278.179 125.927 272.5 132.339C266.854 138.751 258.99 141.957 248.909 141.957C238.605 141.957 230.646 138.815 225.031 132.53C219.449 126.214 216.657 117.313 216.657 105.829C216.657 94.4404 219.465 85.6198 225.079 79.3672C230.694 73.0827 238.669 69.9404 249.005 69.9404C259.054 69.9404 266.902 73.1305 272.548 79.5107C278.195 85.891 281.018 94.6956 281.018 105.925ZM225.271 105.925C225.271 115.399 227.281 122.593 231.3 127.506C235.351 132.387 241.221 134.827 248.909 134.827C256.661 134.827 262.515 132.387 266.471 127.506C270.427 122.625 272.405 115.431 272.405 105.925C272.405 96.514 270.427 89.3841 266.471 84.5352C262.547 79.6543 256.725 77.2139 249.005 77.2139C241.253 77.2139 235.351 79.6702 231.3 84.583C227.281 89.4639 225.271 96.5778 225.271 105.925ZM308.72 141H300.585V71.041H339.584V78.2666H308.72V103.867H337.718V111.093H308.72V141ZM376.665 141H368.531V78.2666H346.375V71.041H398.821V78.2666H376.665V141Z" fill="white"/>
</svg>
