<svg width="424" height="200" viewBox="0 0 424 200" fill="none" xmlns="http://www.w3.org/2000/svg">
<path d="M84.586 73.38L62.144 117.284V141H53.52V117.088L31.078 73.38H40.29L54.5 101.898C55.088 103.139 55.6107 104.413 56.068 105.72C56.5907 107.027 57.0807 108.301 57.538 109.542H58.224C58.6813 108.301 59.1713 107.027 59.694 105.72C60.2167 104.413 60.7393 103.172 61.262 101.996L75.472 73.38H84.586ZM106.767 73.38V94.548C106.767 97.1613 106.571 99.742 106.179 102.29H114.411L134.991 73.38H144.399L124.701 101.408C124.113 102.257 123.525 103.009 122.937 103.662C122.414 104.25 121.761 104.936 120.977 105.72V105.916C121.826 106.7 122.61 107.484 123.329 108.268C124.048 109.052 124.668 109.836 125.191 110.62L145.771 141H136.069L114.509 109.248H106.179C106.375 110.489 106.506 111.698 106.571 112.874C106.702 114.05 106.767 115.226 106.767 116.402V141H98.2409V73.38H106.767ZM178.877 72.204C182.079 72.2693 185.378 72.4327 188.775 72.694C192.173 72.9553 195.57 73.4453 198.967 74.164L198.379 80.436C195.57 80.3053 192.467 80.2073 189.069 80.142C185.672 80.0113 182.405 79.946 179.269 79.946C176.003 79.946 173.357 80.1093 171.331 80.436C169.371 80.7627 167.934 81.6447 167.019 83.082C166.105 84.5193 165.647 86.904 165.647 90.236C165.647 93.96 166.301 96.5733 167.607 98.076C168.979 99.5133 171.168 100.591 174.173 101.31L187.893 104.74C193.12 105.981 196.681 108.17 198.575 111.306C200.535 114.377 201.515 118.525 201.515 123.752C201.515 128.913 200.731 132.833 199.163 135.512C197.595 138.125 195.145 139.889 191.813 140.804C188.481 141.719 184.169 142.176 178.877 142.176C176.656 142.176 173.749 142.078 170.155 141.882C166.627 141.686 162.544 141.163 157.905 140.314L158.493 133.944C162.348 134.075 165.451 134.205 167.803 134.336C170.155 134.401 172.181 134.434 173.879 134.434C175.578 134.434 177.342 134.434 179.171 134.434C182.634 134.434 185.345 134.173 187.305 133.65C189.331 133.127 190.735 132.082 191.519 130.514C192.369 128.946 192.793 126.627 192.793 123.556C192.793 120.943 192.499 118.917 191.911 117.48C191.323 116.043 190.376 114.965 189.069 114.246C187.828 113.462 186.227 112.841 184.267 112.384L170.253 108.856C165.353 107.615 161.891 105.459 159.865 102.388C157.905 99.3173 156.925 95.2013 156.925 90.04C156.925 84.748 157.709 80.8607 159.277 78.378C160.845 75.83 163.23 74.164 166.431 73.38C169.698 72.596 173.847 72.204 178.877 72.204ZM243.121 72.106C249.72 72.106 254.946 73.184 258.801 75.34C262.721 77.496 265.53 81.1547 267.229 86.316C268.928 91.412 269.777 98.37 269.777 107.19C269.777 116.01 268.928 122.968 267.229 128.064C265.53 133.16 262.721 136.819 258.801 139.04C254.946 141.196 249.72 142.274 243.121 142.274C236.588 142.274 231.361 141.196 227.441 139.04C223.521 136.819 220.679 133.16 218.915 128.064C217.216 122.968 216.367 116.01 216.367 107.19C216.367 98.37 217.216 91.412 218.915 86.316C220.679 81.1547 223.521 77.496 227.441 75.34C231.361 73.184 236.588 72.106 243.121 72.106ZM243.121 79.848C238.678 79.848 235.15 80.6973 232.537 82.396C229.989 84.0947 228.16 86.9367 227.049 90.922C226.004 94.842 225.481 100.265 225.481 107.19C225.481 114.05 226.004 119.473 227.049 123.458C228.16 127.443 229.989 130.285 232.537 131.984C235.15 133.683 238.678 134.532 243.121 134.532C247.564 134.532 251.059 133.683 253.607 131.984C256.22 130.285 258.05 127.443 259.095 123.458C260.206 119.473 260.761 114.05 260.761 107.19C260.761 100.265 260.206 94.842 259.095 90.922C258.05 86.9367 256.22 84.0947 253.607 82.396C251.059 80.6973 247.564 79.848 243.121 79.848ZM301.134 73.282C305.838 73.282 310.575 73.3147 315.344 73.38C320.179 73.4453 324.785 73.6413 329.162 73.968L328.672 80.632H303.29C301.003 80.632 299.337 81.1547 298.292 82.2C297.247 83.18 296.724 84.8133 296.724 87.1V102.78H324.948V109.738H296.724V141H288.1V85.434C288.1 81.5793 289.276 78.6067 291.628 76.516C293.98 74.36 297.149 73.282 301.134 73.282ZM391.104 73.38V81.024H369.25V141H360.626V81.024H338.87V73.38H391.104Z" fill="white"/>
</svg>
