<svg width="474" height="200" viewBox="0 0 474 200" fill="none" xmlns="http://www.w3.org/2000/svg">
<path d="M31.767 71.343C32.263 70.971 32.79 70.785 33.348 70.785H51.762C52.878 70.785 53.715 71.219 54.273 72.087L63.852 85.944C64.162 86.44 64.658 86.688 65.34 86.688C66.022 86.688 66.487 86.44 66.735 85.944L76.314 72.087C76.872 71.219 77.74 70.785 78.918 70.785H97.146C98.014 70.785 98.665 71.095 99.099 71.715C99.719 72.521 99.719 73.389 99.099 74.319L76.128 106.683C75.632 107.365 75.384 108.078 75.384 108.822V137.838C75.384 138.706 75.074 139.45 74.454 140.07C73.896 140.69 73.183 141 72.315 141H58.272C57.404 141 56.66 140.69 56.04 140.07C55.482 139.45 55.203 138.706 55.203 137.838V108.078C55.203 107.768 55.11 107.52 54.924 107.334L31.488 74.319C31.178 73.823 31.023 73.327 31.023 72.831C31.085 72.273 31.333 71.777 31.767 71.343ZM111.732 70.785H125.775C126.643 70.785 127.356 71.095 127.914 71.715C128.534 72.273 128.844 72.986 128.844 73.854L129.03 88.734C129.03 89.292 129.185 89.757 129.495 90.129C129.867 90.439 130.301 90.594 130.797 90.594C131.355 90.594 131.82 90.377 132.192 89.943L147.351 71.901C148.033 71.157 148.839 70.785 149.769 70.785H168.09C168.586 70.785 168.958 70.909 169.206 71.157C169.764 71.591 170.074 72.118 170.136 72.738C170.198 73.358 170.012 73.916 169.578 74.412L145.677 102.963C145.057 103.707 145.057 104.451 145.677 105.195L172.089 137.373C172.461 137.869 172.616 138.427 172.554 139.047C172.492 139.605 172.182 140.132 171.624 140.628C171.376 140.876 171.004 141 170.508 141H151.164C150.172 141 149.397 140.628 148.839 139.884L132.006 120.354C131.634 119.92 131.2 119.703 130.704 119.703C130.208 119.703 129.774 119.889 129.402 120.261C129.03 120.571 128.844 120.974 128.844 121.47V137.838C128.844 138.706 128.534 139.45 127.914 140.07C127.356 140.69 126.643 141 125.775 141H111.732C110.864 141 110.12 140.69 109.5 140.07C108.942 139.45 108.663 138.706 108.663 137.838V73.854C108.663 72.986 108.942 72.273 109.5 71.715C110.12 71.095 110.864 70.785 111.732 70.785ZM180.264 131.7L186.03 120.912C186.278 120.416 186.65 120.013 187.146 119.703C187.642 119.393 188.169 119.238 188.727 119.238C189.409 119.238 190.06 119.455 190.68 119.889C195.144 123.423 199.515 125.19 203.793 125.19C204.475 125.19 205.219 125.128 206.025 125.004C206.893 124.818 207.668 124.539 208.35 124.167C209.094 123.733 209.714 123.175 210.21 122.493C210.706 121.749 210.954 120.85 210.954 119.796C210.954 118.866 210.644 118.06 210.024 117.378C209.404 116.696 208.629 116.107 207.699 115.611C206.769 115.115 205.777 114.712 204.723 114.402C203.669 114.03 202.708 113.72 201.84 113.472L201.282 113.379C198.368 112.511 195.733 111.643 193.377 110.775C191.021 109.845 189.006 108.636 187.332 107.148C185.658 105.66 184.356 103.8 183.426 101.568C182.496 99.336 182.031 96.484 182.031 93.012C182.031 89.478 182.62 86.223 183.798 83.247C185.038 80.271 186.743 77.729 188.913 75.621C191.083 73.513 193.687 71.87 196.725 70.692C199.763 69.514 203.08 68.925 206.676 68.925C209.9 68.925 213.31 69.359 216.906 70.227C220.502 71.095 223.819 72.273 226.857 73.761C227.601 74.133 228.128 74.753 228.438 75.621C228.624 76.613 228.531 77.419 228.159 78.039L222.951 88.176C222.703 88.672 222.331 89.106 221.835 89.478C221.339 89.788 220.781 89.943 220.161 89.943C219.665 89.943 219.076 89.726 218.394 89.292C215.48 87.308 212.411 86.316 209.187 86.316C208.567 86.316 207.885 86.409 207.141 86.595C206.397 86.781 205.715 87.06 205.095 87.432C204.475 87.804 203.948 88.269 203.514 88.827C203.142 89.323 202.956 89.912 202.956 90.594C202.956 91.958 203.669 93.043 205.095 93.849C206.521 94.593 208.102 95.244 209.838 95.802L214.302 97.104C218.27 98.282 221.401 99.708 223.695 101.382C226.051 102.994 227.818 104.699 228.996 106.497C230.236 108.233 231.042 110.031 231.414 111.891C231.786 113.689 231.972 115.363 231.972 116.913C231.972 125.469 229.461 131.855 224.439 136.071C221.897 138.241 218.89 139.884 215.418 141C212.008 142.178 208.35 142.767 204.444 142.767C200.414 142.767 196.446 142.178 192.54 141C188.634 139.822 184.914 138.086 181.38 135.792C180.698 135.296 180.233 134.676 179.985 133.932C179.799 133.126 179.892 132.382 180.264 131.7ZM239.188 104.637C239.188 99.677 240.211 94.996 242.257 90.594C244.303 86.192 247.062 82.348 250.534 79.062C254.068 75.776 258.16 73.203 262.81 71.343C267.522 69.421 272.544 68.46 277.876 68.46C283.208 68.46 288.23 69.421 292.942 71.343C297.654 73.203 301.746 75.776 305.218 79.062C308.752 82.348 311.511 86.192 313.495 90.594C315.541 94.996 316.564 99.677 316.564 104.637C316.564 110.217 315.603 115.363 313.681 120.075C311.759 124.787 309.062 128.879 305.59 132.351C302.18 135.761 298.088 138.427 293.314 140.349C288.602 142.271 283.456 143.232 277.876 143.232C272.296 143.232 267.119 142.271 262.345 140.349C257.633 138.427 253.541 135.761 250.069 132.351C246.659 128.879 243.993 124.787 242.071 120.075C240.149 115.363 239.188 110.217 239.188 104.637ZM260.113 104.73C260.113 107.334 260.578 109.783 261.508 112.077C262.438 114.371 263.678 116.386 265.228 118.122C266.84 119.796 268.731 121.129 270.901 122.121C273.071 123.051 275.396 123.516 277.876 123.516C280.356 123.516 282.681 123.051 284.851 122.121C287.021 121.129 288.881 119.796 290.431 118.122C292.043 116.386 293.314 114.371 294.244 112.077C295.174 109.783 295.639 107.334 295.639 104.73C295.639 102.498 295.143 100.39 294.151 98.406C293.221 96.422 291.95 94.686 290.338 93.198C288.726 91.648 286.835 90.439 284.665 89.571C282.495 88.641 280.232 88.176 277.876 88.176C275.52 88.176 273.257 88.641 271.087 89.571C268.979 90.439 267.088 91.648 265.414 93.198C263.802 94.686 262.5 96.422 261.508 98.406C260.578 100.39 260.113 102.498 260.113 104.73ZM326.534 137.838V73.854C326.534 72.986 326.844 72.273 327.464 71.715C328.084 71.095 328.828 70.785 329.696 70.785H373.871C374.739 70.785 375.483 71.095 376.103 71.715C376.723 72.273 377.033 72.986 377.033 73.854V85.2C377.033 86.068 376.723 86.812 376.103 87.432C375.483 87.99 374.739 88.269 373.871 88.269H349.505C348.761 88.269 348.11 88.548 347.552 89.106C347.056 89.602 346.808 90.222 346.808 90.966V94.221C346.808 94.965 347.056 95.616 347.552 96.174C348.11 96.67 348.761 96.918 349.505 96.918H362.897C363.765 96.918 364.509 97.228 365.129 97.848C365.749 98.468 366.059 99.212 366.059 100.08V111.333C366.059 112.201 365.749 112.945 365.129 113.565C364.509 114.185 363.765 114.495 362.897 114.495H349.505C348.761 114.495 348.11 114.774 347.552 115.332C347.056 115.828 346.808 116.448 346.808 117.192V137.838C346.808 138.706 346.498 139.45 345.878 140.07C345.258 140.69 344.514 141 343.646 141H329.696C328.828 141 328.084 140.69 327.464 140.07C326.844 139.45 326.534 138.706 326.534 137.838ZM388.288 70.785H438.415C439.283 70.785 440.027 71.095 440.647 71.715C441.267 72.273 441.577 72.986 441.577 73.854V85.2C441.577 86.068 441.267 86.812 440.647 87.432C440.027 87.99 439.283 88.269 438.415 88.269H425.302C424.806 88.269 424.372 88.455 424 88.827C423.628 89.199 423.442 89.633 423.442 90.129V137.838C423.442 138.706 423.132 139.45 422.512 140.07C421.954 140.69 421.241 141 420.373 141H406.33C405.462 141 404.718 140.69 404.098 140.07C403.54 139.45 403.261 138.706 403.261 137.838V90.129C403.261 89.633 403.075 89.199 402.703 88.827C402.331 88.455 401.897 88.269 401.401 88.269H388.288C387.42 88.269 386.676 87.99 386.056 87.432C385.436 86.812 385.126 86.068 385.126 85.2V73.854C385.126 72.986 385.436 72.273 386.056 71.715C386.676 71.095 387.42 70.785 388.288 70.785Z" fill="white"/>
</svg>
