<svg width="200" height="200" viewBox="0 0 200 200" fill="none" xmlns="http://www.w3.org/2000/svg">
<path d="M162.139 86.7974C167.433 92.6213 176.919 92.9742 181 92.4227C173.058 97.1876 161.366 95.7318 156.513 94.4083C156.778 98.3791 150.005 107.755 146.586 111.946C145.527 113.27 143.498 113.38 142.615 113.27C138.38 111.417 136.88 110.071 136.659 109.63C133.218 100.629 134.563 95.5113 135.666 94.0773C128.783 100.695 127.283 111.174 127.394 115.586C127.658 119.027 124.636 118.564 123.092 117.902C114.356 115.52 107.098 119.557 104.561 121.873C102.444 109.167 112.724 108.416 118.128 109.63V106.652C78.1553 96.5922 53.161 131.359 45.6606 150H33.748C48.5725 135.97 51.6168 112.608 51.2859 102.681C25.6078 101.887 22.0561 82.2751 23.49 72.5686C20.0486 72.8334 18.9677 69.8111 18.8574 68.2669C22.2988 62.1783 21.6149 57.5676 20.8428 56.0234C32.2259 56.0234 30.2184 67.7154 27.7918 73.5613C20.8428 95.401 54.9258 101.357 77.4273 88.1211C95.4284 77.5322 106.988 62.3106 110.518 56.0234C111.841 50.4642 116.805 49.7362 119.121 50.0671C134.343 50.7289 155.52 79.5175 162.139 86.7974Z" fill="white"/>
</svg>
