<svg width="200" height="200" viewBox="0 0 200 200" fill="none" xmlns="http://www.w3.org/2000/svg">
<path d="M62.9501 121.795C65.3433 118.205 72.8989 110.769 83.9758 109.744C95.0527 108.718 112.352 91.8803 119.617 83.5897C115.856 81.0256 108.796 74.6154 110.642 69.4872L117.823 67.7321C114.66 66.7786 110.079 63.1795 117.053 56.4103C115.857 58.3779 115.31 63.1587 122.694 66.5412L133.719 63.8462C139.019 62.8205 149.515 58.6154 149.105 50C151.468 54.7863 152.281 65.3846 136.624 69.4872C144.224 85.6867 151.94 114.153 137.053 132.308V150H130.13L121.155 139.231C111.924 143.077 88.4886 148.462 68.5912 139.231L62.9501 150H53.463L61.3114 126.667C53.4816 125.385 41.9245 119.641 58.3347 106.923C57.9076 105.385 58.8994 101.538 66.2841 98.4615C67.1388 100.684 67.1558 105.744 60.3866 108.205C54.2326 112.735 46.1296 121.795 62.9501 121.795Z" fill="white"/>
</svg>
