<svg width="200" height="200" viewBox="0 0 200 200" fill="none" xmlns="http://www.w3.org/2000/svg">
<path d="M68.7173 150H61.6886C60.8927 144.252 61.2313 136.041 64.332 128.275C59.7236 126.997 51.082 121.566 53.3823 110.064C54.234 107.401 57.7905 101.949 65.203 101.438C64.6705 99.0948 65.5864 94.2173 73.5097 93.4505C74.7876 96.2194 75.0432 102.268 65.842 104.313C59.749 107.721 51.851 115.623 69.0028 119.968C74.5793 112.664 83.7815 107.001 98.4298 106.23C100.56 104.952 105.139 101.374 106.417 97.2844C105.352 94.7284 100.922 90.0639 91.721 91.853C89.378 90.5751 84.6283 86.7413 84.3727 81.6294C88.1001 80.671 96.2577 76.4537 99.0692 67.2524C98.2172 66.9806 96.1299 67.4946 94.5964 71.7253C91.508 68.7434 87.6315 60.7348 96.8328 52.5559C95.1288 57.5612 96.705 67.6997 116.641 68.2109C136.577 68.722 137.301 56.2833 135.171 50C140.922 54.7923 147.504 66.7412 127.823 76.1981C127.184 76.6241 127.248 77.2204 132.616 76.1981C138.162 82.9711 144.1 94.6483 142.519 106.428C147.418 113.391 152.232 130.639 132.296 143.93L128.462 139.137C129.314 136.771 131.082 130.736 131.337 125.524C128.054 128.246 123.948 130.789 118.878 133.067C120.794 135.836 123.989 143.099 121.433 150H110.89C108.29 144.534 103.076 137.978 95.8743 136.034C86.673 138.663 82.8818 146.44 82.1363 150H75.1075C73.8296 146.933 74.1491 144.535 74.4686 143.72C72.6011 145.48 70.6827 147.561 68.7173 150Z" fill="white"/>
</svg>
