<svg width="200" height="200" viewBox="0 0 200 200" fill="none" xmlns="http://www.w3.org/2000/svg">
<circle cx="100" cy="100" r="50" fill="white"/>
<mask id="mask0" mask-type="alpha" maskUnits="userSpaceOnUse" x="50" y="50" width="100" height="100">
<circle cx="100" cy="100" r="50" fill="#C4C4C4"/>
</mask>
<g mask="url(#mask0)">
<path d="M101.136 87.4375L67.5933 60.833H55.4996L25.8359 129.127L54.5869 136.807C57.7054 135.435 64.7638 131.979 68.0496 129.127C71.3354 126.274 76.4163 127.573 78.546 128.578C79.4587 128.853 83.4747 130.553 92.2369 135.161C100.999 139.769 106.08 138.361 107.525 137.081C110.263 135.252 116.287 131.157 118.478 129.401C120.668 127.646 119.999 125.927 119.391 125.287L112.089 113.493C113.762 112.305 116.287 109.27 113.001 106.637C109.716 104.004 110.72 102.065 111.632 101.425C139.197 88.6991 120.379 74.5466 107.525 69.0612C116.105 74.1078 117.033 79.2093 116.424 81.1292C113.869 91.6613 105.167 89.7231 101.136 87.4375Z" fill="#F02F5D"/>
<path d="M103.418 117.607C94.2903 114.316 95.6594 108.19 97.4849 105.539C97.1049 106.179 97.1207 107.733 100.224 108.83C103.327 109.927 103.646 115.139 103.418 117.607Z" fill="white"/>
<path d="M81.2844 95.1173C63.76 98.8474 66.6808 87.3462 70.3317 81.1294C67.1374 82.1351 60.4293 86.2857 59.1515 94.843C57.8737 103.4 63.3348 107.185 66.2251 108.008C70.1803 108.1 79.0033 108.118 82.6542 107.46C87.2179 106.637 91.5533 101.426 89.2715 97.0372C87.4461 93.5265 83.1862 94.2945 81.2844 95.1173Z" fill="white"/>
</g>
</svg>
