<svg width="200" height="200" viewBox="0 0 200 200" fill="none" xmlns="http://www.w3.org/2000/svg">
<path fill-rule="evenodd" clip-rule="evenodd" d="M120 50C114.477 50 110 54.4772 110 60C110 65.5228 114.477 70 120 70V80V90C120 95.5229 124.477 100 130 100C124.477 100 120 104.477 120 110V120V130C114.477 130 110 134.477 110 140C110 145.523 114.477 150 120 150C125.523 150 130 145.523 130 140V120V110C135.523 110 140 105.523 140 100C140 94.4771 135.523 90 130 90V80V60C130 54.4772 125.523 50 120 50Z" fill="white"/>
<path fill-rule="evenodd" clip-rule="evenodd" d="M80 50C85.5228 50 90 54.4772 90 60C90 65.5228 85.5228 70 80 70V80V90C80 95.5228 75.5228 100 70 100C75.5228 100 80 104.477 80 110V120V130C85.5228 130 90 134.477 90 140C90 145.523 85.5228 150 80 150C74.4772 150 70 145.523 70 140V120V110C64.4772 110 60 105.523 60 100C60 94.4772 64.4772 90 70 90V80V60C70 54.4772 74.4772 50 80 50Z" fill="white"/>
</svg>
