<svg width="200" height="200" viewBox="0 0 200 200" fill="none" xmlns="http://www.w3.org/2000/svg">
<path d="M52.1281 125.543C52.1288 118.116 50.3198 106.522 60.2747 103.08M60.2747 103.08L63.1733 150H71.5009L82.363 122.645M60.2747 103.08L110.061 81.6709M139.208 50C141.853 56.4407 138.997 62.6711 135.049 67.3913M135.049 67.3913C132.513 70.4246 122.238 75.3968 122.238 75.3968L110.061 81.6709M135.049 67.3913C143.736 75.2022 153.789 91.9694 141.562 108.333M124.001 122.645V150H117.846L104.268 122.645H98.4752M124.001 122.645L136.312 150H141.562V108.333M124.001 122.645C132.265 118.077 137.908 113.223 141.562 108.333M82.363 122.645H98.4752M82.363 122.645L93.7683 150H98.4752V122.645M110.061 81.6709C105.536 82.7685 95.0717 82.1015 89.4234 70.6522M110.061 81.6709V105.616H127.26C126.898 102.476 127.694 95.7246 133.777 93.8406" stroke="white" stroke-width="5"/>
</svg>
