<svg width="200" height="200" viewBox="0 0 200 200" fill="none" xmlns="http://www.w3.org/2000/svg">
<path d="M67.5 80.5439L80 70.9205C73.8333 69.8047 63.9 65.8159 73.5 58.7866C71.8333 62.5523 72.1 69.4142 86.5 66.7364C104.5 63.3891 95.5 51.2552 89.5 50C98.3333 50.4184 112.9 54.6862 100.5 68.41C103.833 71.3389 114.1 78.7029 128.5 84.728C146.5 92.2594 140 97.6987 160 107.322L136 131.59C134.167 130.056 131.8 125.649 137 120.293C138.167 121.827 141.8 122.971 147 115.272C143.333 113.18 134.1 112.343 126.5 125.732C126 130.335 126.5 140.795 132.5 145.816C134.667 145.955 139.3 146.987 140.5 150H128.5C125.333 148.466 118.7 144.561 117.5 141.213C116 137.029 101.5 126.151 97 128.243C94.5 130.474 90.8 137.113 96 145.816C98 145.676 102.7 146.318 105.5 150H92.5C87.5869 145.623 78.906 135.193 81.5054 126.984C80.314 129.616 77.7503 133.264 74 133.264C68.5 133.264 56.5 133.682 53 144.561C54.3333 145.397 56.7 147.657 55.5 150H42C42.5 147.629 44.3 142.72 47.5 142.05C50.7 141.381 50.8333 137.587 50.5 135.774C50.5 133.682 52.6 129.331 61 128.661C71.5 127.824 68 112.343 64 115.272C60.8 117.615 56 118.201 54 118.201C49.3333 117.503 40 114.435 40 107.741C40.6667 106.485 43 103.556 47 101.883C52 99.7908 56 99.3724 59 94.3515C59.5 96.4435 59 101.213 53 103.556C49.3333 104.119 42.2 106.163 43 109.833C44 114.42 55.5 117.782 67.5 106.067C68 105.23 71.2 103.556 80 103.556C80.5 101.325 83.7 95.9414 92.5 92.2594C103.5 87.6569 93 83.0544 90.5 82.636C88 82.2176 82.5 81.7992 78.5 83.4728C75.3 84.8117 69.8333 82.0781 67.5 80.5439Z" fill="url(#paint0_linear)"/>
<path d="M80 70.9205L67.5 80.5439C69.8333 82.0781 75.3 84.8117 78.5 83.4728C82.5 81.7992 88 82.2176 90.5 82.636C93 83.0544 103.5 87.6569 92.5 92.2594C100 129.498 143.333 113.18 147 115.272C141.8 122.971 138.167 121.827 137 120.293C131.8 125.649 134.167 130.056 136 131.59L160 107.322C140 97.6987 146.5 92.2594 128.5 84.728C114.1 78.7029 103.833 71.3389 100.5 68.41C112.9 54.6862 98.3333 50.4184 89.5 50C95.5 51.2552 104.5 63.3891 86.5 66.7364C72.1 69.4142 71.8333 62.5523 73.5 58.7866C63.9 65.8159 73.8333 69.8047 80 70.9205Z" fill="url(#paint1_linear)"/>
<defs>
<linearGradient id="paint0_linear" x1="134" y1="88.4937" x2="55.2423" y2="164.195" gradientUnits="userSpaceOnUse">
<stop offset="0.336461" stop-color="white"/>
</linearGradient>
<linearGradient id="paint1_linear" x1="160" y1="129.916" x2="83.0677" y2="45.4769" gradientUnits="userSpaceOnUse">
<stop stop-color="white"/>
</linearGradient>
</defs>
</svg>
