<svg width="200" height="200" viewBox="0 0 200 200" fill="none" xmlns="http://www.w3.org/2000/svg">
<path d="M131.124 80.6122C150.89 108.571 142.756 138.52 136.218 150H126.283C128.932 143.265 129.255 134.779 129.085 131.378C133.364 129.541 134.434 127.721 134.434 127.041C126.079 131.531 118.896 131.122 116.349 130.357C116.757 138.316 114.311 146.769 113.038 150H102.594C104.836 136.122 100.472 124.83 98.0095 120.918C98.6209 123.367 97.9246 128.231 97.5001 130.357C77.9378 130.153 69.1416 143.367 67.1888 150H57C57.2038 132.857 63.8775 120.578 67.1888 116.582C65.7624 106.582 72.1983 101.19 75.5945 99.7449C84.3568 96.4796 87.0568 93.9626 87.3115 93.1123C84.6625 92.7041 84.0002 91.2415 84.0002 90.5612C84.204 87.5 82.7266 84.864 81.9625 83.9286C87.0568 85.3572 89.1795 88.4354 89.604 89.7959C90.0285 92.1769 89.0945 97.551 81.9625 100C74.8304 102.449 72.5379 108.163 72.2832 110.714C78.1926 105.204 84.7643 103.316 87.3115 103.061C99.7417 102.653 107.604 97.6191 109.981 95.1531C113.853 100.051 110.236 108.078 107.944 111.48C118.387 101.02 111.765 88.5204 105.907 85.9694C101.22 83.9286 100.218 80.5272 100.303 79.0816L100.812 74.7449C105.621 75.066 109.66 74.8988 113.038 74.3536C112.528 71.5929 112.834 65.051 118.132 60.9694C116.774 63.3215 114.668 69.1058 117.113 73.4261C130.965 69.2174 129.946 57.0388 126.794 50C139.428 60 133.756 71.0034 129.341 75.2551C132.601 76.2755 135.114 79.4218 135.963 80.8673C133.926 80.2551 131.888 80.4422 131.124 80.6122Z" fill="white"/>
</svg>
