<svg width="200" height="200" viewBox="0 0 200 200" fill="none" xmlns="http://www.w3.org/2000/svg">
<path d="M95.936 71.7391C92.5866 75.2174 86.4889 79.0929 83.8587 80.5958C83.4729 87.4235 88.4209 89.9893 90.9431 90.4187C112.843 91.9646 104.47 100.832 97.5463 105.072C82.6034 106.361 74.0355 113.231 71.6195 116.506C60.3473 121.659 53.262 117.955 54.5502 111.836C55.5808 106.94 61.4213 103.14 64.2127 101.852C70.5255 100.435 72.2103 92.8878 72.2636 89.2915C70.4913 92.9952 66.7891 93.1562 64.2127 94.7665C62.1515 96.0547 62.6022 99.0607 63.0853 100.403C40.6698 113.156 54.4971 123.215 64.2127 126.651C59.4461 134.509 59.4354 145.491 60.0259 150H66.7891C70.7827 144.976 73.2842 142.646 74.0358 142.109C73.2629 145.974 73.7138 148.98 74.0358 150H81.4432C84.1485 138.921 93.3058 135.507 97.5463 135.185C101.54 135.443 106.188 137.118 108.013 137.923C109.559 143.076 110.268 148.121 110.429 150H120.091C120.735 144.332 118.963 136.473 117.997 133.253C123.665 131.707 129.269 126.382 131.363 123.913C139.736 130.87 134.208 137.762 130.397 140.338L136.033 145.813C146.725 142.335 149.076 136.312 148.915 133.736C148.529 121.884 143.708 108.615 141.347 103.462C143.408 88.0032 135.227 76.087 130.88 72.0612C143.504 63.9452 139.468 53.9721 135.872 50C138.963 64.4283 125.029 67.3913 117.675 67.0692L101.411 65.942C93.0374 62.4638 94.272 55.153 95.936 51.9324C85.1147 59.9195 91.4271 68.4648 95.936 71.7391Z" fill="white"/>
</svg>
