<svg width="200" height="200" viewBox="0 0 200 200" fill="none" xmlns="http://www.w3.org/2000/svg">
<path d="M29.8199 150C29.5064 148.851 29.5691 145.173 32.3274 139.657C34.0526 136.206 33.9731 122.005 42.9658 104.552C35.1364 110.612 19.6657 116.901 20.4179 93.5815C20.5226 90.1337 21.296 82.4231 23.5528 79.1634C22.8214 77.0738 19.5408 74.1484 12.2691 79.1634C8.50766 75.0887 4.87148 66.9394 20.4179 66.9394C23.7614 67.7752 29.7588 71.3902 27.0006 79.1634C25.23 88.3576 23.8167 105.868 32.3274 102.358C40.8381 98.8471 47.4262 95.0442 49.6565 93.5815C60.0971 78.8941 77.6756 63.1132 107.867 50.0137C119.938 49.6365 145.458 56.9371 159.534 87.3127C159.855 88.0059 160.17 88.7111 160.479 89.4284C164.804 95.4172 182.376 101.845 191.555 104.552C176.259 106.307 167.39 103.82 164.867 102.358C166.033 108.41 165.611 116.412 158.33 118.97C155.882 122.211 151.508 127.405 147.673 130.524C156.449 135.505 160.315 145.583 161.151 150H147.673C152.187 142.979 145.793 135.791 142.031 133.075C137.33 131.821 133.255 133.388 129.807 121.791C126.36 110.194 111.315 119.91 102.225 133.075C105.15 136.836 110.688 145.486 109.434 150H92.5084C91.777 148.224 91.5054 143.669 96.2696 139.657L90.3143 124.298C83.1053 126.074 67.6215 128.561 63.3588 124.298C58.8666 127.746 47.8759 134.892 39.851 135.895C42.5675 138.716 47.5616 145.486 45.8063 150H29.8199Z" fill="white"/>
</svg>
