<svg width="200" height="200" viewBox="0 0 200 200" fill="none" xmlns="http://www.w3.org/2000/svg">
<path d="M145.643 87.5C141.505 121.983 122.08 143.534 112.885 150C108.402 120.69 87.741 116.236 77.9707 117.672C65.5569 122.5 63.6029 141.236 64.1776 150C48.6603 135.517 48.2293 118.966 49.9534 112.5C35.7293 112.931 30.5569 109.914 30.1258 97.4138C29.781 87.4138 46.0741 85.2012 54.2638 85.3449C55.1258 76.7242 62.4534 77.1552 63.3155 76.7242C64.0052 76.3793 64.1776 73.7069 64.1776 72.4138C69.35 84.138 60.0109 87.6437 54.6948 87.9311C38.1431 87.5862 34.0051 93.8219 34.0051 96.9828C33.3155 113.535 47.2235 109.626 54.2638 105.603C61.1603 95.2587 84.0052 89.6552 100.816 88.3621C114.264 87.3276 123.086 76.7242 125.816 71.5517H123.229C118.057 71.5517 115.04 66.092 114.178 63.3621H126.247C123.833 55.0862 126.965 51.0057 128.833 50C128.143 56.5517 132.281 59.6264 134.436 60.3448C136.017 60.9195 139.867 62.069 142.626 62.069C145.385 62.069 146.936 63.2184 147.367 63.7931C147.942 64.3678 149.609 65.9483 151.678 67.6724C153.747 69.3966 155.126 70.115 155.557 70.2586L167.195 74.138C170.299 74.138 170.212 76.1494 169.781 77.1552L167.195 84.0517C166.85 86.4654 165.327 86.2068 164.609 85.7758C162.885 83.7068 160.442 83.7643 159.437 84.0517C153.23 87.1551 147.655 87.6436 145.643 87.5Z" fill="white"/>
</svg>
