<svg width="200" height="200" viewBox="0 0 200 200" fill="none" xmlns="http://www.w3.org/2000/svg">
<path d="M108.315 136.685C124.359 131.598 132.283 112.717 134.239 103.913C145.196 96.8696 149.891 100.978 150.87 103.913L145.489 116.141L150.87 122.989L172.88 116.141C188.141 67.2283 143.043 55 118.587 55C90.9747 56.9175 71.3964 71.7552 58.0908 89.7283M139.62 145C130 117.12 95.5978 78.087 34.9457 145C37.1906 130.532 44.244 108.432 58.0908 89.7283M69.1848 145C64.5606 138.804 55.8678 119.076 58.0908 89.7283M58.0908 89.7283C51.5171 89.7283 35.6304 89.7283 24.6739 89.7283C13.7174 89.7283 10.3261 96.5761 10 100M164.076 97.5543C164.891 105.38 171.12 121.424 189.511 122.989" stroke="white" stroke-width="2"/>
</svg>
