<svg width="200" height="200" viewBox="0 0 200 200" fill="none" xmlns="http://www.w3.org/2000/svg">
<path d="M66.7837 137.448L61.7628 142.05L85.6123 150C117.411 126.569 116.714 100.349 112.391 90.1674C40.0893 71.7573 59.6708 55.7183 78.4992 50C3.18536 51.0042 34.0082 79.4282 58.8339 93.5146L43.3527 103.138C65.7795 110.502 68.3179 129.079 66.7837 137.448Z" fill="white"/>
<path d="M125.78 90.1674C128.792 118.954 104.162 142.05 91.4701 150L108.625 142.887L111.554 137.029C129.294 124.979 138.471 111.925 140.842 106.904C188.374 96.5272 165.389 76.6388 147.955 67.9916C164.357 85.7322 140.006 90.1674 125.78 90.1674Z" fill="white"/>
</svg>
