<svg width="200" height="200" viewBox="0 0 200 200" fill="none" xmlns="http://www.w3.org/2000/svg">
<path d="M112.655 122.924C101.044 122.105 92.2214 133.967 89.2616 140H80.8952L83.2855 124.12C73.5862 123.71 64.7868 134.536 61.5995 140H56.8183C57.2281 128.115 59.3798 118.314 60.4044 114.899C44.5581 106.566 50.2724 96.286 55.1104 92.1878C56.4314 89.3191 58.8487 89.5126 59.8921 89.9679C58.5261 92.1536 56.1351 93.0416 55.1104 93.2123C45.2065 106.361 61.77 112.849 62.9653 112.337C63.9215 111.927 76.9105 100.327 83.2855 94.5784C84.7881 96.7641 85.9607 107.328 86.3591 112.337C88.579 88.6019 81.4068 84.8452 82.7732 85.3575C83.8663 85.7673 86.1885 86.3251 87.2129 86.5528C84.0709 83.8207 72.2431 80.1778 66.7219 78.6979L65.0144 72.7214L76.7967 66.0618L79.0165 63.6712L83.115 62.0555C75.4309 58.3906 72.6988 44.5463 74.9186 50.0106C76.6945 54.382 85.3349 58.2014 89.4331 59.5647L96.7753 56.6702C98.5512 57.8996 99.4503 57.4101 99.6779 57.0116C82.6021 47.9055 80.553 38.2283 81.4068 40.2774C82.2606 42.3265 110.606 51.8889 111.289 55.1333C111.836 57.7288 107.874 62.3621 105.825 64.3542L118.632 62.8174C116.583 67.7352 110.948 72.4937 108.387 74.2582C129.151 105.404 133.545 131.064 133.146 140H124.609C122.013 130.028 115.558 124.461 112.655 122.924Z" fill="white"/>
</svg>
