<svg width="200" height="200" viewBox="0 0 200 200" fill="none" xmlns="http://www.w3.org/2000/svg">
<path d="M33.3778 149.354C40.0588 143.858 51.5458 128.923 44.0458 113.147C40.0588 109.806 33.1838 100.086 37.5804 87.9313C31.2226 82.9745 21.6106 70.2805 34.0243 59.1599C33.593 55.7116 35.8985 49.0737 48.5709 50.1082C46.6312 54.4185 41.2002 62.5219 34.9933 60.4529C30.1442 67.8882 26.7175 83.5994 51.8036 86.9614C54.1743 87.2847 66.351 84.8278 96.0923 72.4141C102.773 69.2891 119.045 64.6555 130.683 71.121C145.23 79.2028 160.424 101.832 159.777 133.19C158.808 137.177 159.907 145.991 172.062 149.353C166.351 150.754 153.635 149.095 148.463 131.25C148.139 133.729 148.398 140.108 152.019 145.797C150.51 148.06 142.256 151.681 121.308 148.06V139.332C125.295 135.56 132.752 123.362 130.683 104.742C130.683 115.194 124.928 138.75 101.911 149.354L99.0017 145.797C101.089 143.28 103.291 139.75 104.696 135.776C97.3547 137.845 92.8841 137.285 91.5664 136.746V132.543C99.325 130.733 104.269 125.97 105.771 123.815C104.571 118.171 100.521 112.681 91.5664 108.621C87.0406 106.358 75.1441 106.229 63.7648 123.815C60.4027 137.263 68.6139 146.875 73.1398 150H63.7648C58.851 146.638 55.9786 139.116 55.1566 135.776C50.1284 142.346 44.7569 148.574 42.1054 149.354H33.3778Z" fill="white"/>
</svg>
