<svg width="200" height="200" viewBox="0 0 200 200" fill="none" xmlns="http://www.w3.org/2000/svg">
<path d="M58.2594 69.2967C48.2163 73.6009 28.5685 85.8359 20 91.4154C23.3477 98.1109 31.3582 100.183 34.9451 100.382C39.2492 108.991 37.5355 124.693 36.1407 131.468C35.1842 138.164 34.9451 146.612 34.9451 150H46.9011L51.0857 137.446H66.0308H110.268L113.257 150H124.615L127.007 137.446L129.398 150H139.561L141.354 131.468C143.267 128.12 146.535 118.117 147.93 113.534L162.277 118.316C170.407 118.795 172.44 112.936 172.44 109.947L168.255 89.6219C163.473 69.5358 148.328 68.4996 141.354 70.4923C121.746 41.3196 96.5187 49.5692 86.3561 57.3407C74.4 68.8185 71.411 68.5319 58.2594 69.2967Z" fill="white"/>
<path d="M139.562 150.001L141.355 131.469C137.051 135.428 129.997 137.104 127.008 137.447L129.399 150.001H139.562Z" fill="white"/>
<path d="M61.2486 150L66.031 137.446H51.0859V150H61.2486Z" fill="white"/>
<circle cx="165.266" cy="92.4441" r="2.98901" fill="#F02F5D"/>
<path d="M141.353 89.0242C146.136 87.8286 144.94 80.6549 140.755 80.6549C132.984 80.6549 131.788 78.8615 131.191 77.0681C128.321 68.938 121.626 63.7172 118.637 62.123L125.213 81.2527C127.006 86.633 136.571 90.2198 141.353 89.0242Z" fill="#F02F5D"/>
<path d="M157.006 87.6609C152.224 86.4653 153.419 79.2916 157.604 79.2916C165.375 79.2916 166.571 77.4982 167.169 75.7048C170.038 67.5747 176.734 62.3539 179.723 60.7598L173.147 79.8895C171.353 85.2697 161.789 88.8565 157.006 87.6609Z" fill="white"/>
<circle cx="150.317" cy="95.0019" r="3.58682" fill="#F02F5D"/>
</svg>
