<svg width="200" height="200" viewBox="0 0 200 200" fill="none" xmlns="http://www.w3.org/2000/svg">
<path d="M74.4547 150C50.5614 121.413 69.2992 98.4445 81.6547 90.5334C82.5078 107.813 94.4548 113.556 100.322 114.267C115.682 111.92 118.633 97.4667 118.188 90.5334C148.482 111.013 135.788 138.711 125.655 150H122.188C122.899 141.911 119.522 125.467 100.322 124.4C81.1217 123.333 77.5661 141.022 78.1884 150H74.4547Z" fill="white"/>
<path d="M107.255 108.933C101.495 113.2 94.5439 110.711 91.7883 108.933C96.9083 95.2801 88.4106 86.0001 83.5217 83.0667C86.935 81.1468 88.855 76.9334 89.3884 75.0667C91.8991 73.5216 94.4892 72.7148 96.9798 72.4H89.3884C62.295 72.4 58.7217 57.4667 60.3217 50C60.3217 60.4533 79.793 65.5555 89.5286 66.8H110.455C127.308 66.8 136.677 55.6 139.254 50C139.254 67.4933 120.055 72.2222 110.455 72.4H102.194C105.763 72.8301 108.754 74.046 110.455 75.0667C110.455 78.0534 114.011 81.6445 115.788 83.0667C105.122 88.6134 105.655 102.622 107.255 108.933Z" fill="white"/>
<path d="M84.3217 85.4666C86.455 86.8889 90.775 91.76 90.9883 99.8666C88.055 98.2666 82.615 93.1466 84.3217 85.4666Z" fill="white"/>
<path d="M108.322 99.8666C108.588 96.3111 110.402 88.4533 115.522 85.4666C116.233 88.7555 115.788 96.24 108.322 99.8666Z" fill="white"/>
<path d="M71.255 83.6C74.6684 81.04 79.7884 81.8222 81.9217 82.5333C85.335 79.76 86.7217 76.4 86.9884 75.0667C79.095 71.8635 73.2106 79.4209 71.255 83.6Z" fill="white"/>
<path d="M128.588 83.6C123.682 73.5733 116.055 73.7334 112.855 75.0667C113.068 78.0534 115.966 81.2889 117.388 82.5333C121.868 80.4 126.722 82.3555 128.588 83.6Z" fill="white"/>
</svg>
