<svg width="200" height="200" viewBox="0 0 200 200" fill="none" xmlns="http://www.w3.org/2000/svg">
<path d="M27.6131 126.23C25.6459 131.913 25.8827 144.444 26.247 150H36.0837C37.1766 134.481 44.5536 128.962 48.1055 128.142C45.4826 135.792 48.1055 145.902 49.7449 150H61.2203C60.7831 141.694 63.9525 135.61 65.5919 133.607C76.5208 123.552 79.0709 118.124 78.9798 116.667C84.2257 121.694 92.4589 124.954 95.9197 125.956C93.0782 132.076 93.0964 144.536 93.4607 150H103.57C104.007 141.913 109.763 130.601 112.586 125.956C113.242 126.175 114.499 125.683 115.045 125.41C118.106 127.377 128.16 142.623 132.805 150H145.1C145.1 145.628 133.625 119.945 127.887 107.65C132.259 93.8798 141.184 103.734 145.1 110.383C149.253 112.568 153.57 109.836 155.209 108.197C155.428 93.3333 147.832 80.51 144.007 75.9563C161.931 79.0164 170.965 74.1348 173.242 71.3115C166.029 73.0601 158.943 71.6758 156.302 70.765C142.969 65.3005 136.357 67.3953 134.718 69.1257C127.942 63.4426 109.854 59.2896 101.657 57.9235C88.7613 77.1585 57.8505 90.1639 44.0072 94.2623C41.4571 94.4444 35.7558 93.388 33.3514 87.7049C30.9471 82.0219 36.9033 79.1439 40.182 78.4153C58.3241 75.7923 63.4061 72.2222 63.6793 70.765C64.7722 68.7614 66.029 63.8251 62.3132 60.1093C58.5973 56.3934 59.672 51.8215 60.6738 50C55.7558 52.7322 52.2039 60.1093 55.4826 63.9344C58.1055 66.9945 57.3041 70.1275 56.5755 71.3115C46.3023 70.4372 39.7267 72.2222 37.723 73.2241C15.4279 85.6831 32.6228 96.4481 44.0072 100.273C40.9471 116.667 31.8028 124.408 27.6131 126.23Z" fill="white"/>
</svg>
