<svg width="200" height="200" viewBox="0 0 200 200" fill="none" xmlns="http://www.w3.org/2000/svg">
<path d="M118.582 55.4718C189.229 49.1072 180.53 109.146 178.833 114.874C177.159 120.526 185.398 125.765 187.859 127.33L187.956 127.391C190.289 128.876 178.409 127.391 173.954 122.936L149.98 129.937C147.505 128.169 142.513 123.657 142.343 119.754C142.173 115.85 146.232 109.783 148.283 107.237C144.818 105.54 136.869 105.667 132.796 119.754C136.615 124.987 143.87 137.363 142.343 145C130.321 121.522 93.3782 88.6524 41.7828 145H35.2061C37.2785 131.46 43.7341 111.003 56.3823 93.0227C45.0098 90.3354 20.2282 88.1856 12.0815 101.084C11.008 95.4271 20.1089 83.7304 65.1005 82.2029C77.9443 68.3201 95.4149 57.5589 118.582 55.4718Z" fill="white"/>
</svg>
