<svg width="200" height="200" viewBox="0 0 200 200" fill="none" xmlns="http://www.w3.org/2000/svg">
<path d="M48.7652 150L80.9248 130.282H48.7652V126.526C46.3395 126.369 41.3943 124.507 41.0187 118.31C40.6431 112.113 46.0265 110.563 48.7652 110.563V108.92L71.3004 92.2535H145.948V107.981C143.21 107.903 136.84 106.291 133.272 100.469L145.948 150H48.7652Z" fill="white"/>
<path d="M64.7273 75.1174C48.2014 66.4789 57.8415 54.7731 64.7273 50C34.3047 65.3991 52.0512 82.3944 64.7273 88.9671H138.906C172.333 74.8826 154.712 57.1205 141.723 50C158.812 64.6479 146.965 72.8482 138.906 75.1174H64.7273Z" fill="white"/>
</svg>
