<svg width="200" height="200" viewBox="0 0 200 200" fill="none" xmlns="http://www.w3.org/2000/svg">
<path d="M89.3058 80.8886C83.4404 70.2916 78.748 49.2817 106.902 50.0189C96.9723 55.3188 85.1711 66.9074 104.355 76.2626C107.686 77.8868 111.95 79.4437 117.321 80.8886C123.187 79.9208 130.56 77.8857 136.075 74.6932C144.562 69.7799 148.649 62.1253 136.075 51.4011C144.101 52.0154 157.329 58.3583 146.03 78.8153C148.423 77.6634 154.088 76.4655 157.607 80.8886C156.603 83.7299 152.143 89.6888 142.326 90.7946C147.342 99.9327 154.365 124.567 142.326 150H133.296C128.267 140.382 116.588 127.979 101.808 133.964C105.142 137.353 104.895 146.067 104.355 150H99.03C100.141 144.84 96.0973 140.371 93.9363 138.782C90.639 141.49 87.2324 145.165 83.7491 150H75.6456C74.5651 145.469 73.9322 135.072 80.0446 129.727C75.6456 127.04 63.9302 127.331 52.2612 150H46.936C47.8396 138.063 52.5633 117.171 64.1655 100.931C59.4256 99.4719 50.1774 94.9874 51.1035 88.7213C52.2612 80.8886 66.3457 81.3494 64.1655 72.3649C62.4214 65.1773 49.3285 65.9913 43 67.2967C47.7849 63.7644 59.4385 59.418 67.7736 70.2916C69.6258 72.3649 69.8573 78.9535 55.9656 88.7213C55.3482 90.6306 56.8454 94.8209 67.7736 96.3078C73.4778 89.6273 80.5686 84.1026 89.3058 80.8886Z" fill="white"/>
</svg>
