<svg width="128" height="128" viewBox="0 0 128 128" fill="none" xmlns="http://www.w3.org/2000/svg">
<g clip-path="url(#clip0_645_334)">
<path d="M0 14.6286C0 6.54943 6.54943 0 14.6286 0H45.7143V76.4343H0V14.6286Z" fill="#121212"/>
<path d="M0 103.863H45.7143V128H14.6286C6.54943 128 0 121.451 0 113.372V103.863Z" fill="#121212"/>
<path d="M95.9999 0H50.2856V53.5771H95.9999V0Z" fill="#121212"/>
<path d="M95.9999 81.0059H50.2856V128H95.9999V81.0059Z" fill="#121212"/>
<path d="M73.1427 58.1484H50.2856V76.4342H73.1427V58.1484Z" fill="#121212"/>
<path d="M22.8571 81.0059H0V99.2916H22.8571V81.0059Z" fill="#121212"/>
<path d="M100.571 0H113.371C121.451 0 128 6.54943 128 14.6286V53.5771H100.571V0Z" fill="#121212"/>
<path d="M100.571 81.0059H128V113.372C128 121.451 121.451 128 113.371 128H100.571V81.0059Z" fill="#121212"/>
<path d="M95.9998 58.1484H73.1426V76.4342H95.9998V58.1484Z" fill="#121212"/>
<path d="M45.7141 81.0059H22.8569V99.2916H45.7141V81.0059Z" fill="#121212"/>
<path d="M128 58.1484H100.571V76.4342H128V58.1484Z" fill="#121212"/>
</g>
<defs>
<clipPath id="clip0_645_334">
<rect width="128" height="128" fill="white"/>
</clipPath>
</defs>
</svg>
