<svg width="186" height="100" viewBox="0 0 186 100" fill="none" xmlns="http://www.w3.org/2000/svg">
<g clip-path="url(#clip0_604_690)">
<path d="M25.4698 0H0.5L38.6682 49.9397V99.8793H58.2872V49.7613L96.5279 0H71.4856L48.121 30.1422L25.4698 0Z" fill="#121212"/>
<path d="M121.994 0H147.052L108.884 49.9397L147.052 99.8793H122.203L83.8301 49.7613L121.994 0Z" fill="#121212"/>
<path d="M182.599 57.0742H185.096V67.8969H182.599V57.0742Z" fill="#121212"/>
<path d="M179.647 90.9503C179.647 92.2135 179.479 93.4388 179.144 94.6257C178.794 95.7978 178.345 96.7414 177.797 97.4568L175.012 96.2011C175.514 95.5162 175.918 94.7021 176.222 93.7581C176.527 92.8145 176.679 91.8709 176.679 90.9273C176.679 89.8771 176.527 89.1011 176.222 88.5988C175.902 88.0965 175.484 87.8453 174.966 87.8453C174.586 87.8453 174.274 87.9975 174.03 88.3021C173.771 88.5913 173.566 88.9716 173.414 89.4434C173.262 89.9001 173.094 90.524 172.912 91.3155C172.623 92.5332 172.333 93.5299 172.044 94.3063C171.755 95.0824 171.291 95.7522 170.651 96.3152C170.012 96.863 169.16 97.1372 168.095 97.1372C167.166 97.1372 166.329 96.886 165.583 96.3837C164.822 95.8814 164.221 95.128 163.78 94.1237C163.338 93.1037 163.118 91.8634 163.118 90.4024C163.118 89.3827 163.24 88.3857 163.483 87.4116C163.727 86.4375 164.077 85.5853 164.533 84.8549L167.341 85.9962C166.504 87.4726 166.086 88.9489 166.086 90.425C166.086 91.4601 166.253 92.2286 166.588 92.7309C166.923 93.2181 167.364 93.4614 167.912 93.4614C168.46 93.4614 168.871 93.1801 169.145 92.6168C169.404 92.0385 169.662 91.1634 169.921 89.9916C170.21 88.7739 170.499 87.7768 170.788 87.0008C171.078 86.2247 171.534 85.5624 172.158 85.0145C172.782 84.4516 173.627 84.1699 174.692 84.1699C175.606 84.1699 176.443 84.4286 177.204 84.946C177.949 85.4483 178.543 86.2093 178.984 87.229C179.426 88.2486 179.647 89.4893 179.647 90.9503Z" fill="#121212"/>
<path d="M179.647 62.4887C179.647 64.1477 179.289 65.6468 178.573 66.9861C177.858 68.3104 176.876 69.353 175.629 70.114C174.365 70.8595 172.95 71.2327 171.382 71.2327C169.814 71.2327 168.407 70.8595 167.159 70.114C165.895 69.353 164.906 68.3104 164.191 66.9861C163.475 65.6468 163.118 64.1477 163.118 62.4887C163.118 60.83 163.475 59.3382 164.191 58.0143C164.906 56.69 165.895 55.6474 167.159 54.8864C168.407 54.1254 169.814 53.7451 171.382 53.7451C172.95 53.7451 174.365 54.1254 175.629 54.8864C176.876 55.6474 177.858 56.69 178.573 58.0143C179.289 59.3382 179.647 60.83 179.647 62.4887ZM176.496 62.4887C176.496 61.5451 176.283 60.693 175.857 59.932C175.415 59.171 174.807 58.5772 174.03 58.1513C173.254 57.7097 172.371 57.4891 171.382 57.4891C170.393 57.4891 169.51 57.7097 168.734 58.1513C167.958 58.5772 167.356 59.171 166.93 59.932C166.489 60.693 166.268 61.5451 166.268 62.4887C166.268 63.4323 166.489 64.2848 166.93 65.0458C167.356 65.8068 167.958 66.4077 168.734 66.8494C169.51 67.2753 170.393 67.4884 171.382 67.4884C172.371 67.4884 173.254 67.2753 174.03 66.8494C174.807 66.4077 175.415 65.8068 175.857 65.0458C176.283 64.2848 176.496 63.4323 176.496 62.4887Z" fill="#121212"/>
<path d="M166.359 35.8519H170.583V28.4552H173.551V35.8519H179.372V39.5503H163.392V27.4736H166.359V35.8519Z" fill="#121212"/>
<path d="M166.405 10.1334V15.2473H163.392V1.32129H166.405V6.43513H179.372V10.1334H166.405Z" fill="#121212"/>
</g>
<defs>
<clipPath id="clip0_604_690">
<rect width="185" height="100" fill="white" transform="translate(0.5)"/>
</clipPath>
</defs>
</svg>
