<svg width="128" height="128" viewBox="0 0 128 128" fill="none" xmlns="http://www.w3.org/2000/svg">
<path fill-rule="evenodd" clip-rule="evenodd" d="M64 0C28.6539 0 0 28.6539 0 64C0 99.3461 28.6539 128 64 128C99.3461 128 128 99.3461 128 64C128 28.6539 99.3461 0 64 0ZM91.5669 49.7864H73.4888V44.6069H91.5669V49.7864ZM89.9733 54.1341C87.7979 53.172 85.3536 52.6888 82.6363 52.6888C78.0645 52.6888 74.3517 54.1184 71.4819 56.9576C68.62 59.8045 67.1869 63.8949 67.1869 69.2288C67.1869 74.9152 68.7685 79.0253 71.9515 81.5477C75.1184 84.0741 78.7829 85.3333 82.9373 85.3333C87.9667 85.3333 91.88 83.8365 94.6736 80.8469C96.4637 78.9621 97.4752 77.1048 97.696 75.2835H89.3675C88.8856 76.1861 88.3237 76.8912 87.6856 77.4019C86.5256 78.3403 85.0123 78.8115 83.1621 78.8115C81.404 78.8115 79.9069 78.4235 78.6627 77.6515C76.6075 76.412 75.5317 74.2459 75.3952 71.1613H98.1256C98.1616 68.5043 98.0733 66.4611 97.8525 65.0512C97.4752 62.6397 96.6485 60.5173 95.36 58.688C93.9472 56.6131 92.1531 55.0925 89.9733 54.1341ZM50.2528 42.6667C55.3984 42.7419 59.0389 44.2189 61.1864 47.1016C62.4749 48.8717 63.1211 50.9861 63.1211 53.4531C63.1211 55.9915 62.4749 58.0387 61.1704 59.5829C60.4397 60.4461 59.3683 61.2381 57.9512 61.9509C60.1027 62.7269 61.7243 63.9504 62.828 65.6256C63.9197 67.2965 64.4696 69.3317 64.4696 71.7235C64.4696 74.1904 63.8435 76.404 62.5872 78.3603C61.7925 79.6549 60.7971 80.748 59.6011 81.6349C58.2563 82.6525 56.6709 83.3456 54.8365 83.7256C53.0021 84.1019 51.0195 84.284 48.876 84.284H29.8667V42.6667H50.2528Z" fill="white"/>
<path fill-rule="evenodd" clip-rule="evenodd" d="M38.276 49.8933H47.4598C49.4787 49.8933 51.1403 50.1109 52.4488 50.5426C53.9579 51.1682 54.7126 52.4472 54.7126 54.3914C54.7126 56.1338 54.1387 57.3533 52.9987 58.0424C51.8507 58.7314 50.3616 59.076 48.5355 59.076H38.276V49.8933ZM77.772 61.0874C78.924 59.9154 80.5536 59.3293 82.6406 59.3293C84.5672 59.3293 86.1768 59.8797 87.4854 60.9845C88.7779 62.0973 89.5083 63.7128 89.6568 65.8512H75.5966C75.8934 63.8474 76.62 62.2597 77.772 61.0874ZM48.6638 65.9621H38.276V77.0613H48.5192C50.3496 77.0613 51.7784 76.8157 52.7939 76.3288C54.6443 75.4178 55.5675 73.6914 55.5675 71.1336C55.5675 68.9634 54.6766 67.4786 52.8824 66.6669C51.879 66.2154 50.4699 65.9778 48.6638 65.9621Z" fill="white"/>
</svg>
