<svg width="228" height="78" viewBox="0 0 228 78" fill="none" xmlns="http://www.w3.org/2000/svg">
<mask id="mask0" mask-type="alpha" maskUnits="userSpaceOnUse" x="165" y="19" width="61" height="53">
<path fill-rule="evenodd" clip-rule="evenodd" d="M195.137 24.7634C201.983 17.9252 213.08 17.9252 219.926 24.7634C226.771 31.6015 226.771 42.6885 219.926 49.5267L199.845 69.5881C197.245 72.1849 193.03 72.1849 190.431 69.5881L170.349 49.5267C163.504 42.6885 163.504 31.6015 170.349 24.7634C177.194 17.9252 188.293 17.9252 195.137 24.7634Z" fill="white"/>
</mask>
<g mask="url(#mask0)">
<path d="M190.431 69.5882L195.137 64.8862L190.431 69.5882ZM170.349 49.5268L165.642 54.2286L170.349 49.5268ZM195.137 24.7635L190.431 29.4653L195.137 34.1673L199.845 29.4653L195.137 24.7635ZM224.632 20.0616C215.187 10.6266 199.874 10.6266 190.431 20.0616L199.845 29.4653C204.09 25.2239 210.974 25.2239 215.219 29.4653L224.632 20.0616ZM224.632 54.2286C234.077 44.7937 234.077 29.4966 224.632 20.0616L215.219 29.4653C219.465 33.7068 219.465 40.5834 215.219 44.8249L224.632 54.2286ZM204.55 74.2901L224.632 54.2286L215.219 44.8249L195.137 64.8862L204.55 74.2901ZM185.723 74.2901C190.924 79.4837 199.352 79.4837 204.55 74.2901L195.137 64.8862C195.135 64.8881 195.134 64.8892 195.134 64.8901C195.132 64.8911 195.132 64.8915 195.132 64.8917C195.13 64.8922 195.132 64.8919 195.132 64.8912C195.134 64.8905 195.135 64.8897 195.137 64.8889C195.139 64.8881 195.14 64.8872 195.14 64.8867C195.144 64.8857 195.144 64.8856 195.144 64.8857C195.144 64.8859 195.142 64.8861 195.142 64.8861C195.14 64.8862 195.139 64.8862 195.137 64.8862C195.135 64.8862 195.135 64.8862 195.134 64.8861C195.132 64.8861 195.132 64.8859 195.132 64.8857C195.13 64.8856 195.132 64.8857 195.134 64.8867C195.135 64.8872 195.137 64.8881 195.139 64.8889C195.14 64.8897 195.142 64.8905 195.142 64.8912C195.144 64.8919 195.144 64.8922 195.144 64.8917C195.144 64.8915 195.142 64.8911 195.142 64.8901C195.14 64.8892 195.139 64.8881 195.137 64.8862L185.723 74.2901ZM165.642 54.2286L185.723 74.2901L195.137 64.8862L175.055 44.8249L165.642 54.2286ZM175.055 44.8249C170.81 40.5834 170.81 33.7068 175.055 29.4653L165.642 20.0616C156.198 29.4966 156.198 44.7937 165.642 54.2286L175.055 44.8249ZM175.055 29.4653C179.302 25.2239 186.184 25.2239 190.431 29.4653L199.845 20.0616C190.399 10.6266 175.087 10.6266 165.642 20.0616L175.055 29.4653ZM190.431 29.4653L199.845 20.0616L190.431 29.4653ZM190.431 20.0616L199.845 29.4653L190.431 20.0616Z" fill="white"/>
</g>
<path d="M26.5987 72.0066C36.18 72.0066 43.2229 67.9709 46.5478 61.0064C47.1198 59.8279 47.4058 58.7921 47.4058 57.685C47.4058 55.5778 45.9042 54.0778 43.7234 54.0778C41.9717 54.0778 40.9348 54.8634 40.0769 56.7564C37.6815 62.328 32.8551 65.0065 26.563 65.0065C17.0889 65.0065 11.0828 57.3992 11.0828 45.3633C11.0828 33.4345 17.1604 25.7559 26.5272 25.7559C32.4618 25.7559 37.5385 28.8272 39.9337 34.5774C40.8277 36.6489 42.0789 37.5775 43.9737 37.5775C46.1187 37.5775 47.5488 36.1846 47.5488 34.0416C47.5488 33.0774 47.2985 32.0059 46.7979 30.9702C43.5805 23.3629 36.0013 18.7556 26.5272 18.7556C12.1195 18.7556 2.89578 29.0415 2.89578 45.3633C2.89578 61.7922 12.0123 72.0066 26.5987 72.0066ZM73.2538 72.0066C85.3018 72.0066 92.9526 65.8994 92.9526 56.1848C92.9526 48.6847 88.5194 44.3632 77.6868 42.0775L72.074 40.8989C65.3885 39.4704 62.7072 36.9704 62.7072 33.2202C62.7072 28.5059 67.176 25.5771 73.218 25.5771C78.3662 25.5771 82.2987 27.6129 84.0506 32.3631C84.8728 34.2203 86.0526 35.1132 87.9831 35.1132C90.0567 35.1132 91.5225 33.756 91.5225 31.6845C91.5225 30.9345 91.4152 30.3274 91.2365 29.8273C89.2345 22.9343 82.2273 18.7556 73.3253 18.7556C62.3498 18.7556 54.5917 24.8273 54.5917 33.6488C54.5917 41.0776 59.2751 45.8634 69.5714 48.0419L75.22 49.2205C82.12 50.7205 84.837 53.2205 84.837 57.2207C84.837 61.8279 80.1537 65.1851 73.6112 65.1851C67.6408 65.1851 62.9575 62.9351 61.3487 58.1135C60.5621 56.1848 59.3823 55.3635 57.559 55.3635C55.3783 55.3635 53.9482 56.8634 53.9482 59.1849C53.9482 60.0422 54.1269 60.8993 54.3772 61.685C56.3794 67.6851 63.2435 72.0066 73.2538 72.0066ZM104.143 71.721C106.609 71.721 108.147 70.1494 108.147 67.5781V23.1843C108.147 20.6128 106.609 19.0414 104.143 19.0414C101.64 19.0414 100.138 20.6128 100.138 23.1843V67.5781C100.138 70.1494 101.64 71.721 104.143 71.721ZM134.459 71.721C136.926 71.721 138.464 70.1494 138.464 67.5781V26.5415H151.084C153.3 26.5415 154.802 25.1843 154.802 23.0771C154.802 20.9701 153.3 19.6127 151.084 19.6127H117.799C115.583 19.6127 114.081 20.9701 114.081 23.0771C114.081 25.1843 115.583 26.5415 117.799 26.5415H130.455V67.5781C130.455 70.1494 131.957 71.721 134.459 71.721Z" fill="white"/>
</svg>
