<svg width="87" height="100" viewBox="0 0 87 100" fill="none" xmlns="http://www.w3.org/2000/svg">
<path d="M86.5826 62.5806C86.9045 62.5806 86.5826 62.5806 86.5826 62.5806V62.5806ZM71.4548 13.5484C66.3049 9.03226 59.8675 5.80645 52.1427 3.54839C44.7397 1.29032 35.7274 0 26.0713 0H0V51.9355H22.5308V100H37.9805C44.096 100 49.8896 99.0323 55.6832 97.0968C61.4769 95.1613 66.6268 92.5807 71.1329 89.0323C80.1452 82.2581 85.617 72.9032 86.5826 62.5806V48.7097C86.9045 34.1936 81.4327 21.9355 71.4548 13.5484ZM65.3393 61.6129C62.7643 50.6452 50.8552 45.4839 36.0493 45.4839H7.40297V6.77419H26.7151C56.9707 6.77419 73.7079 18.3871 78.8578 35.8065C79.5015 37.7419 79.8234 39.6774 80.1452 41.9355C80.4671 44.1936 80.789 46.4516 80.789 49.0323V61.2903L80.4671 61.6129H65.3393Z" fill="white"/>
</svg>
