<svg width="128" height="128" viewBox="0 0 128 128" fill="none" xmlns="http://www.w3.org/2000/svg">
<path d="M0 14.6286C0 6.54943 6.54943 0 14.6286 0H45.7143V76.4343H0V14.6286Z" fill="white"/>
<path d="M0 103.863H45.7143V128H14.6286C6.54943 128 0 121.451 0 113.372V103.863Z" fill="white"/>
<path d="M96 0H50.2857V53.5771H96V0Z" fill="white"/>
<path d="M96 81.0059H50.2857V128H96V81.0059Z" fill="white"/>
<path d="M73.1428 58.1484H50.2857V76.4342H73.1428V58.1484Z" fill="white"/>
<path d="M22.8571 81.0059H0V99.2916H22.8571V81.0059Z" fill="white"/>
<path d="M100.571 0H113.371C121.451 0 128 6.54943 128 14.6286V53.5771H100.571V0Z" fill="white"/>
<path d="M100.571 81.0059H128V113.372C128 121.451 121.451 128 113.371 128H100.571V81.0059Z" fill="white"/>
<path d="M96 58.1484H73.1428V76.4342H96V58.1484Z" fill="white"/>
<path d="M45.7143 81.0059H22.8571V99.2916H45.7143V81.0059Z" fill="white"/>
<path d="M128 58.1484H100.571V76.4342H128V58.1484Z" fill="white"/>
</svg>
