<svg width="100" height="100" viewBox="0 0 100 100" fill="none" xmlns="http://www.w3.org/2000/svg">
<path fill-rule="evenodd" clip-rule="evenodd" d="M0 20C0 8.9543 8.95431 0 20 0H80C91.0457 0 100 8.95431 100 20V80C100 91.0457 91.0457 100 80 100H20C8.9543 100 0 91.0457 0 80V20ZM43.4783 27.1735C43.4783 36.1781 36.1786 43.4778 27.1739 43.4778C18.1693 43.4778 10.8696 36.1781 10.8696 27.1735C10.8696 18.1688 18.1693 10.8691 27.1739 10.8691C36.1786 10.8691 43.4783 18.1688 43.4783 27.1735ZM66.3043 89.1304C78.9108 89.1304 89.1304 78.9108 89.1304 66.3043C89.1304 53.6978 78.9108 43.4782 66.3043 43.4782C53.6978 43.4782 43.4783 53.6978 43.4783 66.3043C43.4783 78.9108 53.6978 89.1304 66.3043 89.1304Z" fill="white"/>
</svg>
