<svg width="189" height="70" viewBox="0 0 189 70" fill="none" xmlns="http://www.w3.org/2000/svg">
<path d="M155.067 51.3133H144.285V69.8819H124.518V0H156.464C162.787 0 168.278 1.06487 172.937 3.1946C177.595 5.25778 181.189 8.25273 183.718 12.1794C186.247 16.0396 187.512 20.5985 187.512 25.8563C187.512 30.9144 186.314 35.3403 183.918 39.1339C181.589 42.8609 178.228 45.7893 173.835 47.919L188.91 69.8819H167.745L155.067 51.3133ZM167.546 25.8563C167.546 22.5952 166.514 20.0661 164.451 18.2691C162.388 16.4722 159.326 15.5737 155.266 15.5737H144.285V36.0391H155.266C159.326 36.0391 162.388 35.1739 164.451 33.4435C166.514 31.6465 167.546 29.1175 167.546 25.8563Z" fill="white"/>
<path d="M89.166 70.0001C85.0806 70.0001 81.0547 69.5494 77.0892 68.6482C73.1237 67.687 69.9395 66.455 67.5359 64.953L72.673 53.2367C74.8964 54.6188 77.5398 55.7301 80.6041 56.5714C83.6684 57.3523 86.7028 57.743 89.7068 57.743C92.4708 57.743 94.4235 57.4726 95.5649 56.9319C96.7667 56.3312 97.3674 55.4899 97.3674 54.4084C97.3674 53.3269 96.6464 52.5757 95.2044 52.1552C93.8227 51.6744 91.5994 51.2238 88.5351 50.8033C84.6299 50.3226 81.2953 49.6917 78.5312 48.9107C75.8274 48.1297 73.4842 46.6877 71.5014 44.5847C69.5187 42.4816 68.5273 39.5376 68.5273 35.7524C68.5273 32.6281 69.4587 29.8641 71.3212 27.4608C73.184 24.9973 75.8878 23.0748 79.4325 21.6928C83.0375 20.2508 87.3337 19.5298 92.3204 19.5298C95.8655 19.5298 99.3804 19.8903 102.865 20.6113C106.35 21.3323 109.264 22.3538 111.607 23.6756L106.47 35.3018C102.144 32.8985 97.4576 31.6967 92.4105 31.6967C89.7068 31.6967 87.724 32.0271 86.4622 32.6881C85.2005 33.2888 84.5696 34.1 84.5696 35.1215C84.5696 36.263 85.2608 37.0741 86.6425 37.5549C88.0245 37.9754 90.3078 38.426 93.492 38.9068C97.5179 39.5075 100.853 40.1987 103.496 40.9797C106.14 41.7606 108.423 43.2026 110.346 45.3057C112.328 47.3484 113.32 50.2324 113.32 53.9577C113.32 57.022 112.389 59.7857 110.526 62.2493C108.663 64.6525 105.9 66.5451 102.234 67.9272C98.6292 69.3092 94.2734 70.0001 89.166 70.0001Z" fill="white"/>
<path d="M28.0186 69.825C22.6364 69.825 17.4127 69.1601 12.3472 67.8304C7.28169 66.5007 3.16594 64.7277 0 62.5116L6.1736 48.6448C9.14958 50.6078 12.6005 52.1905 16.5262 53.3937C20.452 54.5969 24.3145 55.1983 28.1136 55.1983C35.332 55.1983 38.9412 53.3937 38.9412 49.7845C38.9412 47.8849 37.8964 46.4918 35.8069 45.6055C33.7808 44.6557 30.4881 43.6744 25.9291 42.6611C20.9269 41.5848 16.7479 40.4451 13.392 39.2419C10.0361 37.9756 7.15503 35.9811 4.74892 33.2583C2.34281 30.5354 1.13974 26.8632 1.13974 22.2408C1.13974 18.1882 2.24783 14.5475 4.46399 11.3182C6.68014 8.02555 9.97273 5.42959 14.3417 3.53002C18.7741 1.63045 24.188 0.680664 30.5831 0.680664C34.9521 0.680664 39.2576 1.18721 43.5001 2.20032C47.7426 3.1501 51.4783 4.57478 54.7076 6.47435L48.9139 20.4362C42.5819 17.017 36.4402 15.3073 30.4881 15.3073C26.7524 15.3073 24.0295 15.8772 22.3199 17.017C20.6103 18.0933 19.7555 19.5179 19.7555 21.291C19.7555 23.064 20.7686 24.3937 22.7948 25.2801C24.8209 26.1664 28.0821 27.0847 32.5776 28.0345C37.643 29.1108 41.8221 30.2824 45.1148 31.5487C48.4706 32.7518 51.3518 34.7145 53.7578 37.4373C56.2272 40.0967 57.462 43.7374 57.462 48.3598C57.462 52.3489 56.3538 55.9581 54.1377 59.1874C51.9217 62.4166 48.5974 65.0126 44.165 66.9756C39.7325 68.8752 34.3507 69.825 28.0186 69.825Z" fill="white"/>
<path d="M65.5996 0.208094V12.687L115.169 12.687V0.208094L65.5996 0.208094Z" fill="white"/>
</svg>
