<svg width="182" height="75" viewBox="0 0 182 75" fill="none" xmlns="http://www.w3.org/2000/svg">
<path d="M0.875 73H22.75L34.8105 51.7598H35.2012L47.3594 73H70.4062L48.6777 37.7949V37.4043L70.5039 2.54102H47.5547L36.4219 25.002H36.0312L24.9473 2.54102H0.826172L21.627 37.3066V37.6973L0.875 73ZM95.1133 31.8867C101.656 31.8867 105.953 27.4434 105.953 21.291C105.953 15.1387 101.656 10.6953 95.1133 10.6953C88.5703 10.6953 84.2734 15.1387 84.2734 21.291C84.2734 27.4434 88.5703 31.8867 95.1133 31.8867ZM95.1133 64.7969C101.656 64.7969 105.953 60.3535 105.953 54.2012C105.953 48.0488 101.656 43.6055 95.1133 43.6055C88.5703 43.6055 84.2734 48.0488 84.2734 54.2012C84.2734 60.3535 88.5703 64.7969 95.1133 64.7969ZM141.5 45.0215H150.533C156.686 45.0215 160.299 47.4141 160.299 51.3203V51.418C160.299 55.959 156.441 58.5469 150.729 58.5469C144.332 58.5469 140.328 55.959 140.328 51.418V51.3203H120.602V51.418C120.602 64.9434 132.516 74.9531 150.289 74.9531C168.355 74.9531 181.393 66.457 181.393 53.1758V53.0781C181.393 44.1914 175.191 37.7949 165.475 36.8672V35.8906C173.336 34.5234 178.951 28.0781 178.951 20.1191V20.0215C178.951 8.10742 167.477 0.587891 150.826 0.587891C133.248 0.587891 121.871 9.76758 121.871 23.9277V24.0254H140.572V23.9277C140.572 19.5332 144.479 16.9941 150.387 16.9941C156.148 16.9941 159.713 19.0938 159.713 23V23.0977C159.713 27.4434 156.197 29.8848 150.631 29.8848H141.5V45.0215Z" fill="white"/>
</svg>
