<svg width="185" height="100" viewBox="0 0 185 100" fill="none" xmlns="http://www.w3.org/2000/svg">
<path d="M24.9698 0H0L38.1682 49.9397V99.8793H57.7872V49.7613L96.0279 0H70.9856L47.621 30.1422L24.9698 0Z" fill="white"/>
<path d="M121.494 0H146.552L108.384 49.9397L146.552 99.8793H121.703L83.3301 49.7613L121.494 0Z" fill="white"/>
<path d="M182.099 57.0741H184.596V67.8968H182.099V57.0741Z" fill="white"/>
<path d="M179.147 90.9502C179.147 92.2134 178.979 93.4387 178.644 94.6256C178.294 95.7977 177.845 96.7413 177.297 97.4567L174.512 96.201C175.014 95.5161 175.418 94.702 175.722 93.758C176.027 92.8144 176.179 91.8708 176.179 90.9272C176.179 89.877 176.027 89.101 175.722 88.5987C175.402 88.0964 174.984 87.8452 174.466 87.8452C174.086 87.8452 173.774 87.9974 173.53 88.302C173.271 88.5912 173.066 88.9715 172.914 89.4433C172.762 89.9 172.594 90.5239 172.412 91.3154C172.123 92.5331 171.833 93.5298 171.544 94.3062C171.255 95.0823 170.791 95.7521 170.151 96.3151C169.512 96.8629 168.66 97.1371 167.595 97.1371C166.666 97.1371 165.829 96.8859 165.083 96.3836C164.322 95.8813 163.721 95.1279 163.28 94.1236C162.838 93.1036 162.618 91.8633 162.618 90.4023C162.618 89.3826 162.74 88.3856 162.983 87.4115C163.227 86.4374 163.577 85.5852 164.033 84.8548L166.841 85.9961C166.004 87.4725 165.586 88.9488 165.586 90.4249C165.586 91.46 165.753 92.2285 166.088 92.7308C166.423 93.218 166.864 93.4613 167.412 93.4613C167.96 93.4613 168.371 93.18 168.645 92.6167C168.904 92.0384 169.162 91.1633 169.421 89.9915C169.71 88.7738 169.999 87.7767 170.288 87.0007C170.578 86.2246 171.034 85.5623 171.658 85.0144C172.282 84.4515 173.127 84.1698 174.192 84.1698C175.106 84.1698 175.943 84.4285 176.704 84.9459C177.449 85.4482 178.043 86.2092 178.484 87.2289C178.926 88.2485 179.147 89.4892 179.147 90.9502V90.9502Z" fill="white"/>
<path d="M179.147 62.4885C179.147 64.1475 178.789 65.6466 178.073 66.9859C177.358 68.3102 176.376 69.3528 175.129 70.1138C173.865 70.8593 172.45 71.2325 170.882 71.2325C169.314 71.2325 167.907 70.8593 166.659 70.1138C165.395 69.3528 164.406 68.3102 163.691 66.9859C162.975 65.6466 162.618 64.1475 162.618 62.4885C162.618 60.8298 162.975 59.338 163.691 58.0141C164.406 56.6898 165.395 55.6472 166.659 54.8862C167.907 54.1252 169.314 53.7449 170.882 53.7449C172.45 53.7449 173.865 54.1252 175.129 54.8862C176.376 55.6472 177.358 56.6898 178.073 58.0141C178.789 59.338 179.147 60.8298 179.147 62.4885ZM175.996 62.4885C175.996 61.5449 175.783 60.6928 175.357 59.9318C174.915 59.1708 174.307 58.577 173.53 58.1511C172.754 57.7095 171.871 57.4889 170.882 57.4889C169.893 57.4889 169.01 57.7095 168.234 58.1511C167.458 58.577 166.856 59.1708 166.43 59.9318C165.989 60.6928 165.768 61.5449 165.768 62.4885C165.768 63.4321 165.989 64.2846 166.43 65.0456C166.856 65.8066 167.458 66.4075 168.234 66.8492C169.01 67.2751 169.893 67.4882 170.882 67.4882C171.871 67.4882 172.754 67.2751 173.53 66.8492C174.307 66.4075 174.915 65.8066 175.357 65.0456C175.783 64.2846 175.996 63.4321 175.996 62.4885Z" fill="white"/>
<path d="M165.859 35.8521H170.083V28.4554H173.051V35.8521H178.872V39.5505H162.892V27.4738H165.859V35.8521Z" fill="white"/>
<path d="M165.905 10.1334V15.2473H162.892V1.32124H165.905V6.43508H178.872V10.1334H165.905Z" fill="white"/>
</svg>
